<svg width="108" height="32" viewBox="0 0 108 32" fill="none" xmlns="http://www.w3.org/2000/svg">
<path d="M16.2718 28.9138C23.8401 28.9138 29.9753 22.7784 29.9753 15.21C29.9753 7.6417 23.8401 1.50635 16.2718 1.50635C8.70362 1.50635 2.56836 7.6417 2.56836 15.21C2.56836 22.7784 8.70362 28.9138 16.2718 28.9138Z" fill="white"/>
<path d="M16.2469 0C7.38285 0 0.0249414 7.11111 0.000250467 15.9506C-0.0244405 20.3951 1.778 24.4198 4.69153 27.3086C7.58037 30.1975 11.5803 32 16 32C20.4197 32 24.4196 30.1975 27.3084 27.3086C30.1973 24.4198 31.9997 20.4198 31.9997 16V3.65432C32.0244 1.65432 30.3701 0 28.3455 0H16.2469ZM27.0615 15.9506C27.0615 18.9877 25.827 21.7531 23.827 23.7284C21.8271 25.7284 19.0864 26.963 16.0494 26.963C13.0124 26.963 10.247 25.7284 8.27172 23.7284C6.29644 21.7531 5.0619 19.037 5.0372 16.0247C4.98782 9.92593 10.1482 4.93827 16.2469 4.93827H23.6048L19.432 9.11111H16.1975C12.4445 9.11111 9.28405 12.0741 9.20998 15.8025C9.16059 17.7531 9.9507 19.5062 11.2099 20.7901C12.4445 22.0247 14.1482 22.7901 16.0494 22.7901C17.6296 22.7901 19.111 22.2469 20.2715 21.3333C21.432 20.4198 22.2962 19.1358 22.6665 17.679H16.9382L20.2715 14.3457H27.0615V15.9506Z" fill="#023AFF"/>
<path d="M48.8243 20.6756C47.797 20.6756 46.8675 20.4782 46.0359 20.0588C45.2043 19.6394 44.4705 19.0719 43.8834 18.3811C43.2964 17.6656 42.8316 16.8514 42.4892 15.8892C42.1468 14.9516 42 13.9154 42 12.8298C42 11.6949 42.1712 10.634 42.5381 9.64707C42.8806 8.66017 43.3698 7.82132 44.0057 7.10582C44.6417 6.39032 45.3755 5.82286 46.256 5.40343C47.1366 4.984 48.115 4.78662 49.1668 4.78662C50.3408 4.78662 51.3681 5.03334 52.2242 5.55146C53.1048 6.04491 53.7897 6.76041 54.3278 7.64861V5.08269H58.4126V19.5407C58.4126 20.7249 58.1925 21.7858 57.7522 22.7481C57.3119 23.6856 56.7004 24.4998 55.9177 25.166C55.135 25.8321 54.2055 26.3256 53.1048 26.6956C52.0041 27.0411 50.8056 27.2384 49.4847 27.2384C47.8215 27.2384 46.4028 26.967 45.2287 26.4489C44.0546 25.9061 43.0273 25.1413 42.1468 24.1297L44.6661 21.5638C45.2287 22.2053 45.938 22.7234 46.7697 23.1182C47.6013 23.5129 48.5063 23.6856 49.4603 23.6856C50.0229 23.6856 50.561 23.6116 51.0746 23.4389C51.5883 23.2909 52.0286 23.0441 52.4199 22.7234C52.8113 22.4027 53.1293 21.9832 53.3494 21.4404C53.5695 20.9223 53.6918 20.2808 53.6918 19.5653V18.0603C53.2271 18.9239 52.5422 19.59 51.6617 20.0341C50.7811 20.4535 49.8272 20.6756 48.8243 20.6756ZM50.4387 16.9007C51.1725 16.9007 51.8084 16.7034 52.371 16.2839C52.9336 15.8892 53.3739 15.371 53.6918 14.7296V11.4975C53.3739 10.6586 52.9091 10.0172 52.2487 9.52371C51.6127 9.03026 50.9279 8.80821 50.1941 8.80821C49.6804 8.80821 49.2157 8.93157 48.7999 9.15362C48.384 9.37567 48.0171 9.69641 47.7236 10.0665C47.4301 10.4613 47.1855 10.9054 47.0143 11.3988C46.8431 11.8922 46.7697 12.4104 46.7697 12.9532C46.7697 13.5206 46.8675 14.0634 47.0387 14.5322C47.2344 15.0256 47.479 15.4451 47.8215 15.7905C48.1639 16.1359 48.5308 16.432 48.9711 16.6293C49.4114 16.802 49.9006 16.9007 50.4387 16.9007Z" fill="white"/>
<path d="M69.1015 20.8974C67.8051 20.8974 66.6555 20.6754 65.6282 20.2559C64.6009 19.8365 63.7203 19.2444 63.011 18.5289C62.3016 17.7887 61.7635 16.9498 61.3721 15.9876C61.0053 15.0254 60.8096 14.0385 60.8096 12.9776C60.8096 11.8427 61.0053 10.7818 61.3721 9.79487C61.739 8.80798 62.2772 7.91978 62.9865 7.17961C63.6958 6.43944 64.5519 5.8473 65.5793 5.4032C66.6066 4.9591 67.7806 4.76172 69.077 4.76172C70.3979 4.76172 71.5475 4.98377 72.5748 5.4032C73.6021 5.8473 74.4582 6.41476 75.1676 7.15493C75.8769 7.8951 76.415 8.75863 76.7575 9.72086C77.1244 10.6831 77.2956 11.6946 77.2956 12.7802C77.2956 13.0516 77.2956 13.323 77.2711 13.5944C77.2466 13.8658 77.2222 14.0879 77.1733 14.2852H65.8239C65.8972 15.3215 66.2886 16.1357 66.949 16.6784C67.6339 17.2212 68.3922 17.4926 69.2482 17.4926C69.9331 17.4926 70.5935 17.3199 71.2295 16.9992C71.8655 16.6538 72.2813 16.2097 72.5014 15.6422L76.4884 16.7771C75.8769 18.0108 74.9474 18.9976 73.6755 19.7625C72.4036 20.5273 70.8871 20.8974 69.1015 20.8974ZM72.3547 11.3739C72.2568 10.387 71.9144 9.59749 71.3029 9.03003C70.6914 8.46257 69.9331 8.1665 69.0526 8.1665C68.1231 8.1665 67.3648 8.46257 66.7778 9.03003C66.1908 9.62217 65.8239 10.387 65.726 11.3492H72.3547V11.3739Z" fill="white"/>
<path d="M87.031 20.8974C85.7102 20.8974 84.5606 20.6753 83.5333 20.2559C82.5059 19.8118 81.6498 19.2443 80.9405 18.5042C80.2312 17.764 79.6931 16.9005 79.3506 15.9382C78.9837 14.9514 78.8125 13.9398 78.8125 12.8789C78.8125 11.818 78.9837 10.7817 79.3506 9.81951C79.7175 8.83262 80.2556 7.99376 80.9405 7.25359C81.6498 6.51342 82.5059 5.92129 83.5333 5.47719C84.5606 5.03309 85.7347 4.81104 87.031 4.81104C88.3519 4.81104 89.5015 5.03309 90.5288 5.47719C91.5561 5.92129 92.4122 6.51342 93.1216 7.25359C93.8309 7.99376 94.369 8.85729 94.7359 9.81951C95.1028 10.8064 95.2985 11.818 95.2985 12.8789C95.2985 13.9398 95.1273 14.976 94.7604 15.9382C94.3935 16.9251 93.8554 17.764 93.1705 18.5042C92.4611 19.2443 91.605 19.8365 90.5777 20.2559C89.5015 20.7 88.3519 20.8974 87.031 20.8974ZM83.6066 12.8542C83.6066 14.0878 83.9246 15.05 84.585 15.7902C85.221 16.5304 86.0526 16.9005 87.0555 16.9005C87.5447 16.9005 87.985 16.8018 88.4008 16.6044C88.8166 16.407 89.1591 16.1356 89.477 15.7655C89.7705 15.4201 90.0151 14.976 90.1864 14.4826C90.3576 13.9891 90.4554 13.4217 90.4554 12.8295C90.4554 11.5959 90.1374 10.6337 89.477 9.89353C88.8411 9.15336 88.0094 8.78328 87.031 8.78328C86.5418 8.78328 86.0771 8.88197 85.6613 9.07934C85.2455 9.27672 84.8786 9.54812 84.585 9.9182C84.2915 10.2636 84.0469 10.7077 83.8757 11.2012C83.68 11.7193 83.6066 12.2621 83.6066 12.8542Z" fill="white"/>
<path d="M107.357 9.12892C106.232 9.15359 105.205 9.3263 104.275 9.69638C103.346 10.0418 102.685 10.5846 102.27 11.3001V20.6262H97.5732V5.08266H101.878V8.21604C102.416 7.17981 103.077 6.34095 103.908 5.74881C104.74 5.15668 105.621 4.86061 106.574 4.83594C106.795 4.83594 106.941 4.83594 107.039 4.83594C107.137 4.83594 107.235 4.83594 107.333 4.86061V9.12892H107.357Z" fill="white"/>
</svg>
