<svg width="108" height="32" viewBox="0 0 108 32" fill="none" xmlns="http://www.w3.org/2000/svg">
<path d="M16.2723 28.9138C23.8405 28.9138 29.9757 22.7784 29.9757 15.21C29.9757 7.6417 23.8405 1.50635 16.2723 1.50635C8.70404 1.50635 2.56879 7.6417 2.56879 15.21C2.56879 22.7784 8.70404 28.9138 16.2723 28.9138Z" fill="white"/>
<path d="M16.2469 0C7.38285 0 0.0249414 7.11111 0.000250467 15.9506C-0.0244405 20.3951 1.778 24.4198 4.69153 27.3086C7.58037 30.1975 11.5803 32 16 32C20.4197 32 24.4196 30.1975 27.3084 27.3086C30.1973 24.4198 31.9997 20.4198 31.9997 16V3.65432C32.0244 1.65432 30.3701 0 28.3455 0H16.2469ZM27.0615 15.9506C27.0615 18.9877 25.827 21.7531 23.827 23.7284C21.8271 25.7284 19.0864 26.963 16.0494 26.963C13.0124 26.963 10.247 25.7284 8.27172 23.7284C6.29644 21.7531 5.0619 19.037 5.0372 16.0247C4.98782 9.92593 10.1482 4.93827 16.2469 4.93827H23.6048L19.432 9.11111H16.1975C12.4445 9.11111 9.28405 12.0741 9.20998 15.8025C9.16059 17.7531 9.9507 19.5062 11.2099 20.7901C12.4445 22.0247 14.1482 22.7901 16.0494 22.7901C17.6296 22.7901 19.111 22.2469 20.2715 21.3333C21.432 20.4198 22.2962 19.1358 22.6665 17.679H16.9382L20.2715 14.3457H27.0615V15.9506Z" fill="#023AFF"/>
<path d="M48.8243 20.6756C47.797 20.6756 46.8675 20.4782 46.0359 20.0588C45.2043 19.6394 44.4705 19.0719 43.8834 18.3811C43.2964 17.6656 42.8316 16.8514 42.4892 15.8892C42.1468 14.9516 42 13.9154 42 12.8298C42 11.6949 42.1712 10.634 42.5381 9.64707C42.8806 8.66017 43.3698 7.82132 44.0057 7.10582C44.6417 6.39032 45.3755 5.82286 46.256 5.40343C47.1366 4.984 48.115 4.78662 49.1668 4.78662C50.3408 4.78662 51.3681 5.03334 52.2242 5.55146C53.1048 6.04491 53.7897 6.76041 54.3278 7.64861V5.08269H58.4126V19.5407C58.4126 20.7249 58.1925 21.7858 57.7522 22.7481C57.3119 23.6856 56.7004 24.4998 55.9177 25.166C55.135 25.8321 54.2055 26.3256 53.1048 26.6956C52.0041 27.0411 50.8056 27.2384 49.4847 27.2384C47.8215 27.2384 46.4028 26.967 45.2287 26.4489C44.0546 25.9061 43.0273 25.1413 42.1468 24.1297L44.6661 21.5638C45.2287 22.2053 45.938 22.7234 46.7697 23.1182C47.6013 23.5129 48.5063 23.6856 49.4603 23.6856C50.0229 23.6856 50.561 23.6116 51.0746 23.4389C51.5883 23.2909 52.0286 23.0441 52.4199 22.7234C52.8113 22.4027 53.1293 21.9832 53.3494 21.4404C53.5695 20.9223 53.6918 20.2808 53.6918 19.5653V18.0603C53.2271 18.9239 52.5422 19.59 51.6617 20.0341C50.7811 20.4535 49.8272 20.6756 48.8243 20.6756ZM50.4387 16.9007C51.1725 16.9007 51.8084 16.7034 52.371 16.2839C52.9336 15.8892 53.3739 15.371 53.6918 14.7296V11.4975C53.3739 10.6586 52.9091 10.0172 52.2487 9.52371C51.6127 9.03026 50.9279 8.80821 50.1941 8.80821C49.6804 8.80821 49.2157 8.93157 48.7999 9.15362C48.384 9.37567 48.0171 9.69641 47.7236 10.0665C47.4301 10.4613 47.1855 10.9054 47.0143 11.3988C46.8431 11.8922 46.7697 12.4104 46.7697 12.9532C46.7697 13.5206 46.8675 14.0634 47.0387 14.5322C47.2344 15.0256 47.479 15.4451 47.8215 15.7905C48.1639 16.1359 48.5308 16.432 48.9711 16.6293C49.4114 16.802 49.9006 16.9007 50.4387 16.9007Z" fill="#242424"/>
<path d="M69.1016 20.8974C67.8052 20.8974 66.6556 20.6754 65.6283 20.2559C64.601 19.8365 63.7204 19.2444 63.0111 18.5289C62.3017 17.7887 61.7636 16.9498 61.3723 15.9876C61.0054 15.0254 60.8097 14.0385 60.8097 12.9776C60.8097 11.8427 61.0054 10.7818 61.3723 9.79487C61.7392 8.80798 62.2773 7.91978 62.9866 7.17961C63.696 6.43944 64.5521 5.8473 65.5794 5.4032C66.6067 4.9591 67.7808 4.76172 69.0771 4.76172C70.398 4.76172 71.5476 4.98377 72.5749 5.4032C73.6022 5.8473 74.4583 6.41476 75.1677 7.15493C75.877 7.8951 76.4151 8.75863 76.7576 9.72086C77.1245 10.6831 77.2957 11.6946 77.2957 12.7802C77.2957 13.0516 77.2957 13.323 77.2712 13.5944C77.2468 13.8658 77.2223 14.0879 77.1734 14.2852H65.824C65.8974 15.3215 66.2887 16.1357 66.9491 16.6784C67.634 17.2212 68.3923 17.4926 69.2484 17.4926C69.9332 17.4926 70.5937 17.3199 71.2296 16.9992C71.8656 16.6538 72.2814 16.2097 72.5015 15.6422L76.4885 16.7771C75.877 18.0108 74.9475 18.9976 73.6756 19.7625C72.4037 20.5273 70.8872 20.8974 69.1016 20.8974ZM72.3548 11.3739C72.2569 10.387 71.9145 9.59749 71.303 9.03003C70.6915 8.46257 69.9333 8.1665 69.0527 8.1665C68.1232 8.1665 67.365 8.46257 66.7779 9.03003C66.1909 9.62217 65.824 10.387 65.7261 11.3492H72.3548V11.3739Z" fill="#242424"/>
<path d="M87.0307 20.8974C85.7099 20.8974 84.5603 20.6753 83.533 20.2559C82.5056 19.8118 81.6495 19.2443 80.9402 18.5042C80.2309 17.764 79.6927 16.9005 79.3503 15.9382C78.9834 14.9514 78.8122 13.9398 78.8122 12.8789C78.8122 11.818 78.9834 10.7817 79.3503 9.81951C79.7172 8.83262 80.2553 7.99376 80.9402 7.25359C81.6495 6.51342 82.5056 5.92129 83.533 5.47719C84.5603 5.03309 85.7344 4.81104 87.0307 4.81104C88.3516 4.81104 89.5012 5.03309 90.5285 5.47719C91.5558 5.92129 92.4119 6.51342 93.1213 7.25359C93.8306 7.99376 94.3687 8.85729 94.7356 9.81951C95.1025 10.8064 95.2982 11.818 95.2982 12.8789C95.2982 13.9398 95.127 14.976 94.7601 15.9382C94.3932 16.9251 93.855 17.764 93.1702 18.5042C92.4608 19.2443 91.6047 19.8365 90.5774 20.2559C89.5012 20.7 88.3516 20.8974 87.0307 20.8974ZM83.6063 12.8542C83.6063 14.0878 83.9243 15.05 84.5847 15.7902C85.2207 16.5304 86.0523 16.9005 87.0552 16.9005C87.5444 16.9005 87.9847 16.8018 88.4005 16.6044C88.8163 16.407 89.1587 16.1356 89.4767 15.7655C89.7702 15.4201 90.0148 14.976 90.1861 14.4826C90.3573 13.9891 90.4551 13.4217 90.4551 12.8295C90.4551 11.5959 90.1371 10.6337 89.4767 9.89353C88.8408 9.15336 88.0091 8.78328 87.0307 8.78328C86.5415 8.78328 86.0768 8.88197 85.661 9.07934C85.2452 9.27672 84.8783 9.54812 84.5847 9.9182C84.2912 10.2636 84.0466 10.7077 83.8754 11.2012C83.6797 11.7193 83.6063 12.2621 83.6063 12.8542Z" fill="#242424"/>
<path d="M107.357 9.12892C106.232 9.15359 105.204 9.3263 104.275 9.69638C103.345 10.0418 102.685 10.5846 102.269 11.3001V20.6262H97.5729V5.08266H101.878V8.21604C102.416 7.17981 103.076 6.34095 103.908 5.74881C104.74 5.15668 105.62 4.86061 106.574 4.83594C106.794 4.83594 106.941 4.83594 107.039 4.83594C107.137 4.83594 107.235 4.83594 107.332 4.86061V9.12892H107.357Z" fill="#242424"/>
</svg>
