<svg width="112" height="32" viewBox="0 0 112 32" fill="none" xmlns="http://www.w3.org/2000/svg">
<rect x="8.30939" y="16.6499" width="10.2881" height="10.2881" fill="#AA376A"/>
<rect y="8.34033" width="8.30963" height="8.30963" fill="#1E3978"/>
<rect x="18.5973" y="10.7144" width="5.93545" height="5.93545" fill="#FAD619"/>
<rect x="13.8494" y="5.96606" width="4.74836" height="4.74836" fill="#EF4152"/>
<rect x="18.5973" y="2.40479" width="3.56127" height="3.56127" fill="#178CC8"/>
<path d="M31.0961 5.00564L29.235 10.4048H28.1098L30.4543 4.17566H31.1731L31.0961 5.00564ZM32.6533 10.4048L30.788 5.00564L30.7067 4.17566H31.4298L33.7828 10.4048H32.6533ZM32.5635 8.09453V8.9459H29.1751V8.09453H32.5635ZM38.091 8.3769H39.1606C39.1263 8.78476 39.0122 9.14841 38.8183 9.46785C38.6243 9.78444 38.352 10.034 38.0011 10.2165C37.6503 10.3991 37.2239 10.4904 36.722 10.4904C36.3369 10.4904 35.9904 10.4219 35.6823 10.285C35.3743 10.1452 35.1105 9.94844 34.8909 9.6946C34.6712 9.4379 34.503 9.12844 34.386 8.76622C34.2719 8.40399 34.2149 7.99898 34.2149 7.55119V7.03353C34.2149 6.58574 34.2734 6.18073 34.3903 5.8185C34.5101 5.45628 34.6812 5.14682 34.9037 4.89012C35.1262 4.63058 35.3928 4.43235 35.7037 4.29545C36.0175 4.15854 36.3697 4.09009 36.7605 4.09009C37.2567 4.09009 37.676 4.18136 38.0183 4.3639C38.3605 4.54644 38.6258 4.79885 38.814 5.12115C39.0051 5.44344 39.1221 5.8128 39.1648 6.22921H38.0953C38.0667 5.96111 38.004 5.73151 37.907 5.54042C37.8129 5.34932 37.6732 5.20386 37.4878 5.10404C37.3024 5.00136 37.0599 4.95002 36.7605 4.95002C36.5152 4.95002 36.3013 4.99565 36.1187 5.08692C35.9362 5.17819 35.7836 5.31224 35.6609 5.48908C35.5383 5.66591 35.4456 5.8841 35.3829 6.14365C35.323 6.40034 35.293 6.69412 35.293 7.02497V7.55119C35.293 7.86493 35.3201 8.15015 35.3743 8.40684C35.4313 8.66069 35.5169 8.87888 35.631 9.06142C35.7479 9.24395 35.8963 9.38514 36.0759 9.48496C36.2556 9.58479 36.471 9.6347 36.722 9.6347C37.0271 9.6347 37.2738 9.58621 37.4621 9.48924C37.6532 9.39227 37.7972 9.25108 37.8942 9.06569C37.994 8.87745 38.0596 8.64785 38.091 8.3769ZM40.136 4.17566H42.3393C42.8128 4.17566 43.2163 4.24696 43.55 4.38957C43.8837 4.53218 44.139 4.74324 44.3158 5.02275C44.4955 5.29941 44.5854 5.64167 44.5854 6.04953C44.5854 6.36041 44.5283 6.63422 44.4142 6.87095C44.3002 7.10768 44.139 7.30733 43.9308 7.46991C43.7226 7.62963 43.4745 7.7537 43.1864 7.84211L42.8612 8.00041H40.8804L40.8719 7.14904H42.3564C42.6131 7.14904 42.827 7.1034 42.9981 7.01213C43.1693 6.92087 43.2976 6.7968 43.3832 6.63993C43.4716 6.48021 43.5158 6.30052 43.5158 6.10087C43.5158 5.8841 43.473 5.69586 43.3875 5.53614C43.3048 5.37357 43.1764 5.2495 43.0024 5.16393C42.8284 5.07551 42.6074 5.03131 42.3393 5.03131H41.2098V10.4048H40.136V4.17566ZM43.6912 10.4048L42.2281 7.60681L43.3532 7.60253L44.8378 10.3492V10.4048H43.6912ZM46.8015 4.17566V10.4048H45.7277V4.17566H46.8015ZM45.7448 3.76067L46.579 2.47291H47.7427L46.579 3.76067H45.7448ZM52.0381 9.55341V10.4048H48.9107V9.55341H52.0381ZM49.2102 4.17566V10.4048H48.1363V4.17566H49.2102ZM54.0146 4.17566V10.4048H52.9408V4.17566H54.0146ZM59.0287 8.3769H60.0983C60.0641 8.78476 59.95 9.14841 59.756 9.46785C59.5621 9.78444 59.2897 10.034 58.9389 10.2165C58.5881 10.3991 58.1617 10.4904 57.6597 10.4904C57.2747 10.4904 56.9281 10.4219 56.6201 10.285C56.3121 10.1452 56.0482 9.94844 55.8286 9.6946C55.609 9.4379 55.4407 9.12844 55.3238 8.76622C55.2097 8.40399 55.1526 7.99898 55.1526 7.55119V7.03353C55.1526 6.58574 55.2111 6.18073 55.3281 5.8185C55.4478 5.45628 55.619 5.14682 55.8414 4.89012C56.0639 4.63058 56.3306 4.43235 56.6415 4.29545C56.9552 4.15854 57.3075 4.09009 57.6982 4.09009C58.1945 4.09009 58.6137 4.18136 58.956 4.3639C59.2983 4.54644 59.5635 4.79885 59.7518 5.12115C59.9429 5.44344 60.0598 5.8128 60.1026 6.22921H59.033C59.0045 5.96111 58.9417 5.73151 58.8448 5.54042C58.7507 5.34932 58.6109 5.20386 58.4255 5.10404C58.2401 5.00136 57.9977 4.95002 57.6982 4.95002C57.4529 4.95002 57.239 4.99565 57.0565 5.08692C56.8739 5.17819 56.7213 5.31224 56.5987 5.48908C56.4761 5.66591 56.3834 5.8841 56.3206 6.14365C56.2607 6.40034 56.2308 6.69412 56.2308 7.02497V7.55119C56.2308 7.86493 56.2579 8.15015 56.3121 8.40684C56.3691 8.66069 56.4547 8.87888 56.5687 9.06142C56.6857 9.24395 56.834 9.38514 57.0137 9.48496C57.1934 9.58479 57.4087 9.6347 57.6597 9.6347C57.9649 9.6347 58.2116 9.58621 58.3998 9.48924C58.5909 9.39227 58.735 9.25108 58.8319 9.06569C58.9318 8.87745 58.9974 8.64785 59.0287 8.3769ZM66.0408 7.11909V7.46135C66.0408 7.93196 65.9795 8.35408 65.8568 8.72771C65.7342 9.10135 65.5588 9.41936 65.3306 9.68176C65.1053 9.94416 64.8343 10.1452 64.5177 10.285C64.2011 10.4219 63.8503 10.4904 63.4653 10.4904C63.0831 10.4904 62.7337 10.4219 62.4171 10.285C62.1034 10.1452 61.831 9.94416 61.6 9.68176C61.3689 9.41936 61.1893 9.10135 61.0609 8.72771C60.9354 8.35408 60.8727 7.93196 60.8727 7.46135V7.11909C60.8727 6.64848 60.9354 6.22779 61.0609 5.85701C61.1864 5.48337 61.3632 5.16536 61.5914 4.90296C61.8224 4.63771 62.0948 4.43663 62.4086 4.29973C62.7251 4.15997 63.0745 4.09009 63.4567 4.09009C63.8418 4.09009 64.1926 4.15997 64.5092 4.29973C64.8258 4.43663 65.0981 4.63771 65.3263 4.90296C65.5545 5.16536 65.7299 5.48337 65.8525 5.85701C65.978 6.22779 66.0408 6.64848 66.0408 7.11909ZM64.9669 7.46135V7.11053C64.9669 6.76257 64.9327 6.45596 64.8643 6.19071C64.7987 5.92261 64.7003 5.69871 64.5691 5.51903C64.4407 5.33649 64.2824 5.19958 64.0942 5.10831C63.9059 5.01419 63.6935 4.96713 63.4567 4.96713C63.22 4.96713 63.0089 5.01419 62.8235 5.10831C62.6382 5.19958 62.4799 5.33649 62.3487 5.51903C62.2203 5.69871 62.1219 5.92261 62.0535 6.19071C61.985 6.45596 61.9508 6.76257 61.9508 7.11053V7.46135C61.9508 7.80931 61.985 8.11735 62.0535 8.38545C62.1219 8.65356 62.2217 8.8803 62.3529 9.06569C62.487 9.24823 62.6467 9.38656 62.8321 9.48068C63.0175 9.57195 63.2286 9.61759 63.4653 9.61759C63.7049 9.61759 63.9173 9.57195 64.1027 9.48068C64.2881 9.38656 64.445 9.24823 64.5733 9.06569C64.7017 8.8803 64.7987 8.65356 64.8643 8.38545C64.9327 8.11735 64.9669 7.80931 64.9669 7.46135ZM70.3918 8.80044C70.3918 8.67209 70.3718 8.55801 70.3319 8.45818C70.2948 8.35836 70.2278 8.26709 70.1308 8.18437C70.0338 8.10166 69.8969 8.0218 69.7201 7.94479C69.5461 7.86493 69.3236 7.78365 69.0527 7.70093C68.756 7.60966 68.4822 7.50841 68.2312 7.39718C67.9831 7.28309 67.7663 7.15189 67.581 7.00358C67.3956 6.85241 67.2515 6.67986 67.1489 6.48591C67.0462 6.28911 66.9948 6.06236 66.9948 5.80567C66.9948 5.55183 67.0476 5.3208 67.1531 5.11259C67.2615 4.90438 67.4141 4.7247 67.6109 4.57353C67.8106 4.41952 68.0459 4.30115 68.3168 4.21844C68.5878 4.13287 68.8872 4.09009 69.2152 4.09009C69.6773 4.09009 70.0752 4.17566 70.4089 4.34679C70.7454 4.51792 71.0036 4.74751 71.1832 5.03558C71.3658 5.32365 71.457 5.64167 71.457 5.98963H70.3918C70.3918 5.78428 70.3476 5.60316 70.2591 5.4463C70.1736 5.28657 70.0424 5.16108 69.8655 5.06981C69.6916 4.97854 69.4705 4.93291 69.2024 4.93291C68.9486 4.93291 68.7375 4.97141 68.5692 5.04842C68.401 5.12543 68.2755 5.22953 68.1927 5.36073C68.11 5.49193 68.0687 5.64024 68.0687 5.80567C68.0687 5.92261 68.0958 6.02956 68.15 6.12654C68.2042 6.22066 68.2869 6.30908 68.3981 6.39179C68.5093 6.47165 68.6491 6.54723 68.8174 6.61854C68.9856 6.68984 69.1839 6.75829 69.412 6.82389C69.7572 6.92657 70.0581 7.04066 70.3148 7.16615C70.5715 7.28879 70.7854 7.42855 70.9565 7.58542C71.1276 7.74229 71.256 7.92055 71.3415 8.1202C71.4271 8.317 71.4699 8.5409 71.4699 8.79189C71.4699 9.05428 71.4171 9.29101 71.3116 9.50207C71.2061 9.71028 71.0549 9.88854 70.8581 10.0369C70.6641 10.1823 70.4303 10.295 70.1565 10.3748C69.8855 10.4518 69.5832 10.4904 69.2495 10.4904C68.95 10.4904 68.6548 10.4504 68.3639 10.3706C68.0758 10.2907 67.8134 10.1695 67.5767 10.0069C67.3399 9.84148 67.1517 9.63613 67.0119 9.39084C66.8722 9.1427 66.8023 8.85321 66.8023 8.52236H67.8762C67.8762 8.72486 67.9104 8.89742 67.9788 9.04002C68.0501 9.18263 68.1485 9.29957 68.274 9.39084C68.3995 9.47926 68.545 9.54486 68.7104 9.58764C68.8787 9.63042 69.0584 9.65181 69.2495 9.65181C69.5005 9.65181 69.7101 9.61616 69.8784 9.54486C70.0495 9.47355 70.1779 9.37373 70.2634 9.24538C70.349 9.11703 70.3918 8.96872 70.3918 8.80044Z" fill="#1E3978"/>
<path d="M32.0128 15.043V27.0029H29.1378V15.043H32.0128ZM43.6097 15.043V27.0029H40.7347L36.5043 19.5608V27.0029H33.6211V15.043H36.5043L40.7347 22.4851V15.043H43.6097ZM48.898 27.0029H46.2448L46.2612 24.7851H48.898C49.4456 24.7851 49.9083 24.6537 50.2862 24.3908C50.6695 24.1279 50.9598 23.7364 51.1569 23.2162C51.3595 22.6905 51.4608 22.0443 51.4608 21.2776V20.7601C51.4608 20.1851 51.4033 19.6813 51.2883 19.2487C51.1788 18.8106 51.0145 18.4464 50.7955 18.1562C50.5764 17.8605 50.3026 17.6387 49.9741 17.4908C49.651 17.343 49.2786 17.2691 48.8569 17.2691H46.1955V15.043H48.8569C49.6674 15.043 50.4094 15.1826 51.083 15.4619C51.762 15.7357 52.348 16.13 52.8408 16.6448C53.3392 17.1541 53.7225 17.7592 53.9908 18.4601C54.2646 19.1556 54.4015 19.9277 54.4015 20.7765V21.2776C54.4015 22.1209 54.2646 22.8931 53.9908 23.594C53.7225 24.295 53.3419 24.9001 52.849 25.4094C52.3562 25.9187 51.773 26.3129 51.0994 26.5922C50.4313 26.866 49.6975 27.0029 48.898 27.0029ZM47.8958 15.043V27.0029H45.0127V15.043H47.8958ZM61.9734 15.043H64.8566V22.8547C64.8566 23.7857 64.6622 24.5743 64.2734 25.2204C63.8846 25.8612 63.3397 26.3458 62.6388 26.6744C61.9378 27.0029 61.1137 27.1672 60.1663 27.1672C59.2299 27.1672 58.4057 27.0029 57.6938 26.6744C56.9874 26.3458 56.4343 25.8612 56.0345 25.2204C55.6402 24.5743 55.4431 23.7857 55.4431 22.8547V15.043H58.3345V22.8547C58.3345 23.3476 58.4057 23.7501 58.5481 24.0622C58.6905 24.3689 58.8985 24.5934 59.1724 24.7358C59.4462 24.8782 59.7775 24.9494 60.1663 24.9494C60.5606 24.9494 60.8919 24.8782 61.1602 24.7358C61.4285 24.5934 61.6311 24.3689 61.7681 24.0622C61.905 23.7501 61.9734 23.3476 61.9734 22.8547V15.043ZM71.1389 17.5566L68.2228 27.0029H65.126L69.5206 15.043H71.4839L71.1389 17.5566ZM73.5538 27.0029L70.6296 17.5566L70.2517 15.043H72.2396L76.6588 27.0029H73.5538ZM73.4388 22.5426V24.7687H67.3028V22.5426H73.4388ZM83.7378 22.9533H86.6128C86.5745 23.7857 86.35 24.5195 85.9393 25.1547C85.5286 25.79 84.959 26.2856 84.2307 26.6415C83.5079 26.992 82.6536 27.1672 81.6679 27.1672C80.8683 27.1672 80.1537 27.033 79.5239 26.7647C78.8997 26.4964 78.3685 26.1103 77.9304 25.6065C77.4978 25.1027 77.1665 24.4921 76.9365 23.7747C76.7119 23.0574 76.5997 22.2496 76.5997 21.3515V20.7026C76.5997 19.8045 76.7174 18.9968 76.9529 18.2794C77.1938 17.5566 77.5334 16.9432 77.9715 16.4394C78.415 15.9301 78.9462 15.5413 79.565 15.273C80.1838 15.0047 80.8711 14.8705 81.6268 14.8705C82.6673 14.8705 83.5462 15.0567 84.2636 15.4291C84.9809 15.8014 85.5368 16.3135 85.9311 16.9651C86.3253 17.6113 86.5581 18.3479 86.6293 19.1748H83.7543C83.7433 18.7257 83.6667 18.3506 83.5243 18.0494C83.3819 17.7427 83.1574 17.5127 82.8507 17.3594C82.544 17.2061 82.1361 17.1294 81.6268 17.1294C81.2708 17.1294 80.9614 17.1951 80.6986 17.3266C80.4357 17.458 80.2167 17.6661 80.0414 17.9508C79.8662 18.2356 79.7348 18.6052 79.6472 19.0598C79.565 19.5088 79.5239 20.0509 79.5239 20.6862V21.3515C79.5239 21.9868 79.5623 22.5289 79.6389 22.978C79.7156 23.427 79.8388 23.7939 80.0086 24.0787C80.1783 24.3634 80.3974 24.5743 80.6657 24.7112C80.9395 24.8426 81.2736 24.9083 81.6679 24.9083C82.106 24.9083 82.4756 24.8398 82.7768 24.7029C83.078 24.5606 83.3107 24.347 83.475 24.0622C83.6393 23.772 83.7269 23.4024 83.7378 22.9533ZM87.5558 15.043H92.2626C93.1826 15.043 93.9821 15.1799 94.6611 15.4537C95.3402 15.7275 95.8632 16.1328 96.2301 16.6694C96.6024 17.2061 96.7886 17.8687 96.7886 18.6573C96.7886 19.3418 96.6818 19.914 96.4683 20.374C96.2547 20.834 95.9563 21.2146 95.5729 21.5158C95.1951 21.8115 94.7542 22.0552 94.2504 22.2469L93.3058 22.7808H89.3547L89.3383 20.5548H92.2626C92.6295 20.5548 92.9334 20.489 93.1744 20.3576C93.4153 20.2262 93.596 20.04 93.7165 19.799C93.8425 19.5526 93.9054 19.2596 93.9054 18.9201C93.9054 18.5751 93.8425 18.2794 93.7165 18.033C93.5906 17.7866 93.4044 17.5976 93.1579 17.4662C92.917 17.3348 92.6185 17.2691 92.2626 17.2691H90.439V27.0029H87.5558V15.043ZM94.1026 27.0029L91.4576 21.713L94.5133 21.6965L97.1911 26.8797V27.0029H94.1026ZM101.173 15.043V27.0029H98.2984V15.043H101.173ZM110.684 24.7851V27.0029H104.638V24.7851H110.684ZM105.665 15.043V27.0029H102.782V15.043H105.665Z" fill="#1E3978"/>
<rect x="97.0145" y="2.12582" width="13.297" height="9.44046" rx="0.703017" fill="white" stroke="#F5F5F5" stroke-width="0.200862"/>
<mask id="mask0_2143_40863" style="mask-type:alpha" maskUnits="userSpaceOnUse" x="96" y="2" width="15" height="10">
<rect x="97.0145" y="2.12582" width="13.297" height="9.44046" rx="0.703017" fill="white" stroke="white" stroke-width="0.200862"/>
</mask>
<g mask="url(#mask0_2143_40863)">
<rect x="105.913" y="2.02539" width="4.49928" height="9.64132" fill="#E82438"/>
<path fill-rule="evenodd" clip-rule="evenodd" d="M96.9141 11.6667H101.413V2.02539H96.9141V11.6667Z" fill="#E82438"/>
</g>
</svg>
