<svg width="40" height="40" viewBox="0 0 40 40" fill="none" xmlns="http://www.w3.org/2000/svg">
<path fill-rule="evenodd" clip-rule="evenodd" d="M27.8495 16.787C27.8495 17.6194 28.5162 18.2853 29.3495 18.2853C30.1828 18.2853 30.8662 17.6194 30.8662 16.787C30.8662 15.9545 30.1828 15.272 29.3495 15.272C28.5162 15.272 27.8495 15.9545 27.8495 16.787ZM24.6162 26.8425C23.4328 28.0245 21.7995 28.757 19.9995 28.757C18.2495 28.757 16.6162 28.0744 15.3662 26.8425C14.1328 25.5938 13.4495 23.9623 13.4495 22.2143C13.4328 20.4828 14.1162 18.8513 15.3495 17.6027C16.5995 16.3541 18.2495 15.6715 19.9995 15.6715C21.7495 15.6715 23.3995 16.3541 24.6329 17.5861C25.8662 18.8347 26.5495 20.4828 26.5495 22.2143C26.5329 24.0289 25.7995 25.6604 24.6162 26.8425ZM19.9995 18.1688C18.9162 18.1688 17.8995 18.585 17.1162 19.3674C16.3495 20.1332 15.9328 21.1488 15.9495 22.1976V22.2143C15.9495 23.2964 16.3662 24.3119 17.1328 25.0777C17.8995 25.8436 18.9162 26.2598 19.9995 26.2598C22.2328 26.2598 24.0328 24.4451 24.0495 22.2143C24.0495 21.1321 23.6328 20.1166 22.8662 19.3508C22.0995 18.585 21.0828 18.1688 19.9995 18.1688Z" fill="#023AFF"/>
<path opacity="0.4" d="M29.0663 10.394L28.8997 10.0277C28.4497 9.0788 27.933 7.98002 27.6163 7.34739C26.8497 5.84906 25.533 5.01665 23.9163 5H16.0663C14.4497 5.01665 13.1497 5.84906 12.383 7.34739C12.0497 8.01332 11.483 9.21199 11.0163 10.1942L10.9163 10.394C10.8663 10.5272 10.733 10.5938 10.5997 10.5938C6.58301 10.5938 3.33301 13.8568 3.33301 17.8524V27.7414C3.33301 31.737 6.58301 35 10.5997 35H29.3997C33.3997 35 36.6663 31.737 36.6663 27.7414V17.8524C36.6663 13.8568 33.3997 10.5938 29.3997 10.5938C29.2497 10.5938 29.133 10.5105 29.0663 10.394Z" fill="#023AFF"/>
</svg>
