<svg width="46" height="30" viewBox="0 0 46 30" fill="none" xmlns="http://www.w3.org/2000/svg">
<path d="M45.4515 27.4924C45.4515 28.4129 44.7062 29.1582 43.7858 29.1582H2.21379C1.29397 29.1582 0.548401 28.4129 0.548401 27.4924V2.5094C0.548401 1.58958 1.29397 0.84375 2.21379 0.84375H43.7859C44.7063 0.84375 45.4516 1.58958 45.4516 2.5094V27.4924H45.4515Z" fill="#21246E"/>
<path d="M17.6152 9.04294L12.619 20.9649H9.35798L6.90109 11.4515C6.7498 10.8648 6.62051 10.6514 6.167 10.4022C5.42415 10.0005 4.20211 9.62372 3.12311 9.38907L3.19858 9.04302H8.44508C9.11422 9.04302 9.71577 9.48935 9.86706 10.2588L11.1662 17.159L14.3749 9.04302H17.6152V9.04294ZM30.3885 17.0706C30.403 13.9259 26.037 13.7547 26.0684 12.3478C26.0769 11.9184 26.484 11.4639 27.3754 11.3492C27.818 11.2902 29.0362 11.2471 30.4169 11.8809L30.9581 9.35401C30.2152 9.0844 29.2604 8.82617 28.0735 8.82617C25.0254 8.82617 22.8795 10.4475 22.8615 12.7673C22.8415 14.4828 24.3924 15.4401 25.5623 16.0114C26.7636 16.596 27.1652 16.9692 27.161 17.4935C27.1531 18.2937 26.2025 18.6434 25.3159 18.6591C23.765 18.6833 22.8654 18.2399 22.147 17.9054L21.5887 20.5192C22.3082 20.8496 23.6405 21.1365 25.0194 21.1534C28.2589 21.1533 30.3783 19.5493 30.3885 17.0706ZM38.438 20.9649H41.291L38.8015 9.04285H36.1677C35.5759 9.04285 35.0769 9.38802 34.8547 9.91674L30.2296 20.9648H33.4668L34.1094 19.1843H38.0664L38.438 20.9649ZM34.9966 16.7409L36.6206 12.2644L37.5549 16.7409H34.9966ZM22.0226 9.04294L19.4708 20.9649H16.3862L18.9385 9.04285H22.0226V9.04294Z" fill="white"/>
</svg>
