<svg width="40" height="40" viewBox="0 0 40 40" fill="none" xmlns="http://www.w3.org/2000/svg">
<path d="M36.6664 24.504V26.8099C36.6664 27.1925 36.6497 27.5785 36.6163 27.9611C36.1487 33.2263 32.4914 36.6667 27.2141 36.6667H12.7853C10.1133 36.6667 7.85876 35.7995 6.23885 34.2271C5.60425 33.644 5.06985 32.9589 4.65234 32.1736C5.20345 31.5035 5.82135 30.77 6.42255 30.0348C7.44126 28.815 8.42656 27.6102 9.04446 26.8266C9.96297 25.6903 12.3845 22.6994 15.7412 24.1029C16.4259 24.387 17.0271 24.788 17.5782 25.1389C18.9309 26.0412 19.4987 26.3086 20.4506 25.7906C21.5027 25.2225 22.1874 24.1029 22.9055 22.9333C23.2896 22.3134 23.6737 21.7135 24.0912 21.1621C25.9115 18.7894 28.7171 18.1544 31.0552 19.558C32.2242 20.2598 33.2262 21.1454 34.1614 22.046C34.3618 22.2465 34.5622 22.432 34.7459 22.6158C34.9964 22.8665 35.8314 23.7019 36.6664 24.504Z" fill="#023AFF"/>
<path opacity="0.4" d="M27.2308 3.33337H12.7852C7.12392 3.33337 3.33301 7.29349 3.33301 13.1902V26.81C3.33301 28.8636 3.80061 30.6866 4.65231 32.1737C5.20342 31.5037 5.82132 30.7701 6.42252 30.0333C7.44122 28.8151 8.42653 27.6104 9.04443 26.8267C9.96293 25.6905 12.3844 22.6995 15.7412 24.1031C16.4259 24.3872 17.0271 24.7882 17.5782 25.1391C18.9309 26.0414 19.4987 26.3087 20.4506 25.7891C21.5027 25.2226 22.1874 24.1031 22.9055 22.9318C23.2896 22.3135 23.6737 21.7137 24.0912 21.1623C25.9115 18.7895 28.7171 18.1546 31.0551 19.5582C32.2241 20.26 33.2261 21.1455 34.1613 22.0462C34.3617 22.2467 34.5621 22.4322 34.7458 22.616C34.9963 22.8649 35.8313 23.7004 36.6663 24.5041V13.1902C36.6663 7.29349 32.8754 3.33337 27.2308 3.33337Z" fill="#023AFF"/>
<path d="M19.0905 14.6612C19.0905 17.0088 17.1349 18.9638 14.7885 18.9638C12.4439 18.9638 10.4883 17.0088 10.4883 14.6612C10.4883 12.3152 12.4439 10.3585 14.7885 10.3585C17.1349 10.3585 19.0905 12.3152 19.0905 14.6612Z" fill="#023AFF"/>
</svg>
