<svg width="21" height="20" viewBox="0 0 21 20" fill="none" xmlns="http://www.w3.org/2000/svg">
<path d="M12.2864 14.1512H2.16663V5.2421C2.16663 4.73578 2.37986 4.25019 2.75943 3.89217C3.139 3.53414 3.6538 3.33301 4.19058 3.33301H10.2625C10.7992 3.33301 11.314 3.53414 11.6936 3.89217C12.0732 4.25019 12.2864 4.73578 12.2864 5.2421V14.1512ZM13.6357 14.1512H18.3583V10.9694H13.6357V14.1512ZM14.985 5.87846H13.6357V9.69664H18.3583V9.06028C18.3572 8.21672 18.0015 7.408 17.3691 6.81151C16.7367 6.21502 15.8793 5.87947 14.985 5.87846V5.87846ZM4.22971 15.4239C4.205 15.5284 4.19189 15.635 4.19058 15.7421C4.19058 16.164 4.36828 16.5687 4.68459 16.867C5.00089 17.1654 5.42989 17.333 5.87722 17.333C6.32454 17.333 6.75354 17.1654 7.06985 16.867C7.38615 16.5687 7.56385 16.164 7.56385 15.7421C7.56255 15.635 7.54943 15.5284 7.52472 15.4239H4.22971ZM13.6749 15.4239C13.6501 15.5284 13.637 15.635 13.6357 15.7421C13.6357 16.164 13.8134 16.5687 14.1297 16.867C14.446 17.1654 14.875 17.333 15.3224 17.333C15.7697 17.333 16.1987 17.1654 16.515 16.867C16.8313 16.5687 17.009 16.164 17.009 15.7421C17.0077 15.635 16.9946 15.5284 16.9699 15.4239H13.6749Z" fill="black" fill-opacity="0.6"/>
</svg>
