<svg width="48" height="48" viewBox="0 0 48 48" fill="none" xmlns="http://www.w3.org/2000/svg">
<path d="M19.3 30.7492L24 26.1992L28.7 30.7492L30.95 28.4992L26.3 23.9492L30.95 19.3492L28.7 17.0992L24 21.6492L19.3 17.0992L17.05 19.3492L21.7 23.9492L17.05 28.4992L19.3 30.7492ZM24 43.9492C19.3333 42.7826 15.5 40.0742 12.5 35.8242C9.5 31.5742 8 26.9159 8 21.8492V9.94922L24 3.94922L40 9.94922V21.8492C40 26.9159 38.5 31.5742 35.5 35.8242C32.5 40.0742 28.6667 42.7826 24 43.9492ZM24 40.8492C27.8333 39.5826 30.9583 37.1909 33.375 33.6742C35.7917 30.1576 37 26.2159 37 21.8492V12.0492L24 7.14922L11 12.0492V21.8492C11 26.2159 12.2083 30.1576 14.625 33.6742C17.0417 37.1909 20.1667 39.5826 24 40.8492Z" fill="#F44336"/>
</svg>
