<svg width="20" height="16" viewBox="0 0 20 16" fill="none" xmlns="http://www.w3.org/2000/svg">
<path d="M11.5414 1.54199V3.55866" stroke="black" stroke-width="1.5" stroke-linecap="round" stroke-linejoin="round"/>
<path d="M11.5414 12.7998V14.4865" stroke="black" stroke-width="1.5" stroke-linecap="round" stroke-linejoin="round"/>
<path d="M11.5414 9.93742V5.91992" stroke="black" stroke-width="1.5" stroke-linecap="round" stroke-linejoin="round"/>
<path fill-rule="evenodd" clip-rule="evenodd" d="M15.5851 14.6663C17.1035 14.6663 18.3334 13.4518 18.3334 11.9523V9.79187C17.3286 9.79187 16.5195 8.99276 16.5195 8.00053C16.5195 7.0083 17.3286 6.20834 18.3334 6.20834L18.3325 4.04705C18.3325 2.54755 17.1018 1.33301 15.5843 1.33301H4.41578C2.89826 1.33301 1.66756 2.54755 1.66756 4.04705L1.66669 6.27872C2.67142 6.27872 3.48059 7.0083 3.48059 8.00053C3.48059 8.99276 2.67142 9.79187 1.66669 9.79187V11.9523C1.66669 13.4518 2.89652 14.6663 4.41491 14.6663H15.5851Z" stroke="black" stroke-width="1.5" stroke-linecap="round" stroke-linejoin="round"/>
</svg>
