<svg width="21" height="20" viewBox="0 0 21 20" fill="none" xmlns="http://www.w3.org/2000/svg">
<path fill-rule="evenodd" clip-rule="evenodd" d="M16.8642 16.3629C14.1137 19.1137 10.0408 19.708 6.70777 18.1666C6.21574 17.9685 5.81234 17.8084 5.42883 17.8084C4.36064 17.8147 3.03105 18.8505 2.34002 18.1603C1.649 17.4692 2.68554 16.1385 2.68554 15.0639C2.68554 14.6804 2.53177 14.2841 2.33369 13.7911C0.791548 10.4587 1.3867 6.38442 4.13723 3.63449C7.64844 0.121989 13.353 0.121989 16.8642 3.63358C20.3818 7.15151 20.3754 12.8513 16.8642 16.3629Z" stroke="black" stroke-width="1.5" stroke-linecap="round" stroke-linejoin="round"/>
<path d="M14.0454 10.3718H14.0535" stroke="black" stroke-width="2" stroke-linecap="round" stroke-linejoin="round"/>
<path d="M10.4373 10.3718H10.4454" stroke="black" stroke-width="2" stroke-linecap="round" stroke-linejoin="round"/>
<path d="M6.82925 10.3718H6.83735" stroke="black" stroke-width="2" stroke-linecap="round" stroke-linejoin="round"/>
</svg>
