<svg width="22" height="19" viewBox="0 0 22 19" fill="none" xmlns="http://www.w3.org/2000/svg">
<path fill-rule="evenodd" clip-rule="evenodd" d="M10.9725 17.3681C7.73349 17.3681 4.96649 16.8781 4.96649 14.9161C4.96649 12.9541 7.71549 11.2461 10.9725 11.2461C14.2115 11.2461 16.9785 12.9381 16.9785 14.8991C16.9785 16.8601 14.2295 17.3681 10.9725 17.3681Z" stroke="black" stroke-width="1.5" stroke-linecap="round" stroke-linejoin="round"/>
<path fill-rule="evenodd" clip-rule="evenodd" d="M10.9725 8.449C13.0985 8.449 14.8225 6.726 14.8225 4.6C14.8225 2.474 13.0985 0.75 10.9725 0.75C8.84648 0.75 7.12248 2.474 7.12248 4.6C7.11648 6.718 8.82648 8.442 10.9455 8.449H10.9725Z" stroke="black" stroke-width="1.5" stroke-linecap="round" stroke-linejoin="round"/>
<path d="M17.3622 7.39105C18.5992 7.06005 19.5112 5.93205 19.5112 4.58905C19.5112 3.18805 18.5182 2.01805 17.1962 1.74805" stroke="black" stroke-width="1.5" stroke-linecap="round" stroke-linejoin="round"/>
<path d="M17.9432 10.5449C19.6972 10.5449 21.1952 11.7339 21.1952 12.7959C21.1952 13.4209 20.6782 14.1019 19.8942 14.2859" stroke="black" stroke-width="1.5" stroke-linecap="round" stroke-linejoin="round"/>
<path d="M4.58378 7.39105C3.34578 7.06005 2.43378 5.93205 2.43378 4.58905C2.43378 3.18805 3.42778 2.01805 4.74878 1.74805" stroke="black" stroke-width="1.5" stroke-linecap="round" stroke-linejoin="round"/>
<path d="M4.00179 10.5449C2.24779 10.5449 0.749786 11.7339 0.749786 12.7959C0.749786 13.4209 1.26679 14.1019 2.05179 14.2859" stroke="black" stroke-width="1.5" stroke-linecap="round" stroke-linejoin="round"/>
</svg>
