<svg width="22" height="20" viewBox="0 0 22 20" fill="none" xmlns="http://www.w3.org/2000/svg">
<path fill-rule="evenodd" clip-rule="evenodd" d="M6.53133 18.4867C7.25565 18.4867 7.84284 17.8995 7.84284 17.1752C7.84284 17.0427 7.8236 16.916 7.78793 16.7971C7.75915 16.7924 7.6895 16.7839 7.5394 16.7785C7.35123 16.7718 7.10657 16.7716 6.7331 16.7716C6.59104 16.7716 6.44759 16.7698 6.31388 16.768L6.30255 16.7679C6.16989 16.7662 6.04628 16.7645 5.9248 16.7643C5.67093 16.7638 5.46761 16.7696 5.30266 16.7864C5.29387 16.7872 5.28536 16.7882 5.27716 16.7891C5.23993 16.9103 5.21982 17.0397 5.21982 17.1752C5.21982 17.8995 5.807 18.4867 6.53133 18.4867ZM8.97821 15.7628C8.24639 15.2583 8.18439 15.2583 6.73319 15.2583H6.7331C6.59768 15.2583 6.45885 15.2565 6.31901 15.2547C5.37908 15.2424 4.39293 15.2295 4.08445 15.7628C3.8441 16.1783 3.70654 16.6607 3.70654 17.1752C3.70654 18.7353 4.97124 20 6.53133 20C8.09142 20 9.35612 18.7353 9.35612 17.1752C9.35612 16.6607 9.21855 16.1783 8.97821 15.7628Z" fill="#9E9E9E"/>
<path fill-rule="evenodd" clip-rule="evenodd" d="M15.8128 18.4867C16.5371 18.4867 17.1243 17.8995 17.1243 17.1752C17.1243 17.0427 17.105 16.916 17.0694 16.7971C17.0406 16.7924 16.9709 16.7839 16.8208 16.7785C16.6327 16.7718 16.388 16.7716 16.0145 16.7716C15.8725 16.7716 15.729 16.7698 15.5953 16.768L15.584 16.7679C15.4513 16.7662 15.3277 16.7645 15.2062 16.7643C14.9524 16.7638 14.749 16.7696 14.5841 16.7864C14.5753 16.7872 14.5668 16.7882 14.5586 16.7891C14.5214 16.9103 14.5013 17.0397 14.5013 17.1752C14.5013 17.8995 15.0884 18.4867 15.8128 18.4867ZM18.2596 15.7628C17.5278 15.2583 17.4658 15.2583 16.0146 15.2583H16.0145C15.8791 15.2583 15.7403 15.2565 15.6004 15.2547C14.6605 15.2424 13.6744 15.2295 13.3659 15.7628C13.1255 16.1783 12.988 16.6607 12.988 17.1752C12.988 18.7353 14.2527 20 15.8128 20C17.3728 20 18.6375 18.7353 18.6375 17.1752C18.6375 16.6607 18.5 16.1783 18.2596 15.7628Z" fill="#9E9E9E"/>
<path fill-rule="evenodd" clip-rule="evenodd" d="M11.7774 2.14316H4.7154C3.32247 2.14316 2.19327 3.27236 2.19327 4.6653V12.7361C2.19327 14.129 3.32247 15.2582 4.7154 15.2582H14.2995V4.66529C14.2995 3.27236 13.1703 2.14316 11.7774 2.14316ZM4.7154 0.629883C2.48671 0.629883 0.679993 2.4366 0.679993 4.6653V12.7361C0.679993 14.9648 2.4867 16.7715 4.7154 16.7715H15.8128V4.66529C15.8128 2.4366 14.0061 0.629883 11.7774 0.629883H4.7154Z" fill="#9E9E9E"/>
<path fill-rule="evenodd" clip-rule="evenodd" d="M17.3261 6.17832H15.8128V15.258H17.3261C18.719 15.258 19.8482 14.1288 19.8482 12.7359V8.70045C19.8482 7.30751 18.719 6.17832 17.3261 6.17832ZM14.2995 4.66504V16.7713H17.3261C19.5548 16.7713 21.3615 14.9645 21.3615 12.7359V8.70045C21.3615 6.47175 19.5548 4.66504 17.3261 4.66504H14.2995Z" fill="#9E9E9E"/>
</svg>
