<svg width="24" height="16" viewBox="0 0 24 16" fill="none" xmlns="http://www.w3.org/2000/svg">
<path d="M23.2258 14.2462C23.2258 14.7064 22.8531 15.0791 22.3929 15.0791H1.60693C1.14702 15.0791 0.774231 14.7064 0.774231 14.2462V1.7547C0.774231 1.29479 1.14702 0.921875 1.60693 0.921875H22.393C22.8532 0.921875 23.2258 1.29479 23.2258 1.7547V14.2462H23.2258Z" fill="#21246E"/>
<path d="M9.30761 5.02049L6.80952 10.9815H5.17902L3.95057 6.22479C3.87493 5.93142 3.81029 5.8247 3.58353 5.70015C3.21211 5.49929 2.60108 5.31088 2.06158 5.19356L2.09932 5.02053H4.72257C5.05714 5.02053 5.35792 5.2437 5.43356 5.6284L6.08311 9.07852L7.68749 5.02053H9.30761V5.02049ZM15.6943 9.03434C15.7015 7.46195 13.5185 7.37636 13.5342 6.67291C13.5385 6.4582 13.742 6.23097 14.1877 6.1736C14.409 6.14415 15.0181 6.12259 15.7085 6.43949L15.9791 5.17603C15.6076 5.04122 15.1302 4.91211 14.5368 4.91211C13.0128 4.91211 11.9398 5.72276 11.9308 6.88266C11.9208 7.74042 12.6962 8.21905 13.2812 8.50471C13.8818 8.79703 14.0826 8.98364 14.0805 9.24576C14.0766 9.64585 13.6013 9.82072 13.158 9.82856C12.3825 9.84066 11.9327 9.61898 11.5735 9.4517L11.2944 10.7586C11.6541 10.9238 12.3203 11.0673 13.0097 11.0757C14.6295 11.0757 15.6892 10.2737 15.6943 9.03434ZM19.719 10.9814H21.1456L19.9008 5.02045H18.5839C18.288 5.02045 18.0385 5.19303 17.9274 5.45739L15.6148 10.9814H17.2334L17.5547 10.0912H19.5332L19.719 10.9814ZM17.9983 8.86947L18.8103 6.63123L19.2775 8.86947H17.9983ZM11.5113 5.02049L10.2354 10.9814H8.69312L9.96929 5.02045H11.5113V5.02049Z" fill="white"/>
</svg>
