<svg width="20" height="20" viewBox="0 0 20 20" fill="none" xmlns="http://www.w3.org/2000/svg">
<path fill-rule="evenodd" clip-rule="evenodd" d="M10.2055 18.3336C9.07629 18.3336 7.97546 18.3211 6.88629 18.2986C5.49296 18.2711 4.52879 17.3678 4.37129 15.9411C4.10879 13.5745 3.65962 7.99612 3.65546 7.94029C3.62712 7.59612 3.88379 7.29445 4.22796 7.26695C4.56712 7.25779 4.87379 7.49612 4.90129 7.83945C4.90546 7.89612 5.35379 13.4553 5.61379 15.8036C5.70296 16.6145 6.14046 17.0328 6.91212 17.0486C8.99546 17.0928 11.1213 17.0953 13.413 17.0536C14.233 17.0378 14.6763 16.6278 14.768 15.7978C15.0263 13.4695 15.4763 7.89612 15.4813 7.83945C15.5088 7.49612 15.813 7.25612 16.1538 7.26695C16.498 7.29529 16.7546 7.59612 16.7271 7.94029C16.7221 7.99695 16.2705 13.5895 16.0105 15.9353C15.8488 17.3911 14.8871 18.277 13.4355 18.3036C12.3246 18.3228 11.253 18.3336 10.2055 18.3336Z" fill="black"/>
<path fill-rule="evenodd" clip-rule="evenodd" d="M17.2567 5.82422H3.125C2.78 5.82422 2.5 5.54422 2.5 5.19922C2.5 4.85422 2.78 4.57422 3.125 4.57422H17.2567C17.6017 4.57422 17.8817 4.85422 17.8817 5.19922C17.8817 5.54422 17.6017 5.82422 17.2567 5.82422Z" fill="black"/>
<path fill-rule="evenodd" clip-rule="evenodd" d="M14.5337 5.82449C13.5854 5.82449 12.7621 5.14866 12.5754 4.21866L12.3729 3.20533C12.3304 3.05116 12.1546 2.91699 11.9546 2.91699H8.42707C8.22707 2.91699 8.05123 3.05116 8.0004 3.24366L7.80623 4.21866C7.6204 5.14866 6.79623 5.82449 5.8479 5.82449C5.5029 5.82449 5.2229 5.54449 5.2229 5.19949C5.2229 4.85449 5.5029 4.57449 5.8479 4.57449C6.2029 4.57449 6.51123 4.32116 6.58123 3.97283L6.78373 2.95949C6.98957 2.18283 7.66207 1.66699 8.42707 1.66699H11.9546C12.7196 1.66699 13.3921 2.18283 13.5896 2.92199L13.8012 3.97283C13.8704 4.32116 14.1787 4.57449 14.5337 4.57449C14.8787 4.57449 15.1587 4.85449 15.1587 5.19949C15.1587 5.54449 14.8787 5.82449 14.5337 5.82449Z" fill="black"/>
</svg>
