<svg width="24" height="24" viewBox="0 0 24 24" fill="none" xmlns="http://www.w3.org/2000/svg">
<rect width="24" height="24" rx="12" fill="#F5F5F5"/>
<path fill-rule="evenodd" clip-rule="evenodd" d="M10.6149 18.5392C8.07221 18.5392 5.90021 18.1545 5.90021 16.6145C5.90021 15.0745 8.05821 13.6738 10.6149 13.6738C13.1575 13.6738 15.3295 15.0612 15.3295 16.6005C15.3295 18.1398 13.1715 18.5392 10.6149 18.5392Z" stroke="#130F26" stroke-width="1.2" stroke-linecap="round" stroke-linejoin="round"/>
<path fill-rule="evenodd" clip-rule="evenodd" d="M10.6149 11.4776C12.2835 11.4776 13.6369 10.1243 13.6369 8.45559C13.6369 6.78626 12.2835 5.43359 10.6149 5.43359C8.94619 5.43359 7.59285 6.78626 7.59285 8.45559C7.58685 10.1183 8.93085 11.4716 10.5935 11.4776H10.6149Z" stroke="#130F26" stroke-width="1.2" stroke-linecap="round" stroke-linejoin="round"/>
<path d="M16.7542 9.41992V12.0933" stroke="#130F26" stroke-linecap="round" stroke-linejoin="round"/>
<path d="M18.1184 10.7562H15.3917" stroke="#130F26" stroke-linecap="round" stroke-linejoin="round"/>
</svg>
