<svg width="21" height="20" viewBox="0 0 21 20" fill="none" xmlns="http://www.w3.org/2000/svg">
<path fill-rule="evenodd" clip-rule="evenodd" d="M10.9508 18.3336C9.7923 18.3336 8.66285 18.3211 7.54536 18.2986C6.1158 18.2711 5.12657 17.3678 4.96497 15.9411C4.69565 13.5745 4.2348 7.99612 4.23053 7.94029C4.20146 7.59612 4.4648 7.29445 4.81791 7.26695C5.1659 7.25779 5.48054 7.49612 5.50875 7.83945C5.51303 7.89612 5.97302 13.4553 6.23978 15.8036C6.33126 16.6145 6.78014 17.0328 7.57187 17.0486C9.70937 17.0928 11.8905 17.0953 14.2417 17.0536C15.083 17.0378 15.5379 16.6278 15.632 15.7978C15.897 13.4695 16.3587 7.89612 16.3638 7.83945C16.392 7.49612 16.7041 7.25612 17.0538 7.26695C17.4069 7.29529 17.6703 7.59612 17.6421 7.94029C17.6369 7.99695 17.1735 13.5895 16.9068 15.9353C16.7409 17.3911 15.7542 18.277 14.2648 18.3036C13.1251 18.3228 12.0256 18.3336 10.9508 18.3336Z" fill="#9E9E9E"/>
<path fill-rule="evenodd" clip-rule="evenodd" d="M18.1853 5.82422H3.68623C3.33226 5.82422 3.04498 5.54422 3.04498 5.19922C3.04498 4.85422 3.33226 4.57422 3.68623 4.57422H18.1853C18.5393 4.57422 18.8266 4.85422 18.8266 5.19922C18.8266 5.54422 18.5393 5.82422 18.1853 5.82422Z" fill="#9E9E9E"/>
<path fill-rule="evenodd" clip-rule="evenodd" d="M15.3915 5.82449C14.4185 5.82449 13.5738 5.14866 13.3823 4.21866L13.1745 3.20533C13.1309 3.05116 12.9505 2.91699 12.7453 2.91699H9.1261C8.9209 2.91699 8.74049 3.05116 8.68834 3.24366L8.48912 4.21866C8.29846 5.14866 7.45286 5.82449 6.47987 5.82449C6.1259 5.82449 5.83862 5.54449 5.83862 5.19949C5.83862 4.85449 6.1259 4.57449 6.47987 4.57449C6.8441 4.57449 7.16045 4.32116 7.23227 3.97283L7.44004 2.95949C7.65122 2.18283 8.34121 1.66699 9.1261 1.66699H12.7453C13.5302 1.66699 14.2202 2.18283 14.4228 2.92199L14.64 3.97283C14.711 4.32116 15.0273 4.57449 15.3915 4.57449C15.7455 4.57449 16.0328 4.85449 16.0328 5.19949C16.0328 5.54449 15.7455 5.82449 15.3915 5.82449Z" fill="#9E9E9E"/>
</svg>
