<svg width="24" height="24" viewBox="0 0 24 24" fill="none" xmlns="http://www.w3.org/2000/svg">
<path fill-rule="evenodd" clip-rule="evenodd" d="M11.9988 4.41918C13.0512 3.35931 14.4091 2.98182 15.7114 3.00067C18.8415 3.04596 22.0007 5.60029 22.0007 9.30056C22.0007 12.8599 19.7242 15.8231 17.4725 17.8376C16.3333 18.8569 15.1648 19.6661 14.2158 20.2234C13.7417 20.5019 13.3143 20.7222 12.9655 20.8756C12.7918 20.9521 12.6287 21.0158 12.4835 21.0619C12.3571 21.102 12.179 21.1505 12.0004 21.1505C11.8218 21.1505 11.6437 21.102 11.5174 21.0619C11.3721 21.0158 11.2091 20.9521 11.0353 20.8756C10.6866 20.7222 10.2592 20.5019 9.78501 20.2234C8.83606 19.6661 7.66758 18.8569 6.5283 17.8376C4.27667 15.8231 2.00012 12.8599 2.00012 9.30057C2.00012 5.60904 5.15199 3.00059 8.3003 3.00059C9.5673 3.00059 10.9382 3.36137 11.9988 4.41918ZM15.6897 4.50051C14.4919 4.48318 13.3757 4.88982 12.6244 6.01663C12.4853 6.22528 12.2512 6.3506 12.0004 6.3506C11.7497 6.3506 11.5155 6.22528 11.3764 6.01664C10.6297 4.89663 9.49318 4.50059 8.3003 4.50059C5.89843 4.50059 3.50012 6.51714 3.50012 9.30057C3.50012 12.2163 5.38621 14.8031 7.52847 16.7197C8.58614 17.666 9.67241 18.4178 10.5446 18.93C10.981 19.1863 11.3558 19.3779 11.6394 19.5027C11.7818 19.5653 11.8925 19.6072 11.9708 19.6321C11.982 19.6356 11.9919 19.6386 12.0004 19.6411C12.009 19.6386 12.0188 19.6356 12.03 19.6321C12.1084 19.6072 12.219 19.5653 12.3614 19.5027C12.645 19.3779 13.0198 19.1863 13.4562 18.93C14.3284 18.4178 15.4147 17.666 16.4724 16.7197C18.6146 14.8031 20.5007 12.2163 20.5007 9.30056C20.5007 6.52588 18.1097 4.53553 15.6897 4.50051Z" fill="black"/>
</svg>
