<svg width="21" height="22" viewBox="0 0 21 22" fill="none" xmlns="http://www.w3.org/2000/svg">
<path fill-rule="evenodd" clip-rule="evenodd" d="M11.7168 14.2913C12.9208 14.2913 13.9008 15.2643 13.9008 16.4603V19.5363C13.9008 19.7933 14.1068 19.9993 14.3708 20.0053H16.2768C17.7788 20.0053 18.9998 18.7993 18.9998 17.3173V8.5933C18.9928 8.0833 18.7498 7.6033 18.3328 7.2843L11.7398 2.0263C10.8548 1.3253 9.6168 1.3253 8.7288 2.0283L2.1808 7.2823C1.7478 7.6113 1.5048 8.0913 1.4998 8.6103V17.3173C1.4998 18.7993 2.7208 20.0053 4.2228 20.0053H6.1468C6.4178 20.0053 6.6378 19.7903 6.6378 19.5263C6.6378 19.4683 6.6448 19.4103 6.6568 19.3553V16.4603C6.6568 15.2713 7.6308 14.2993 8.8258 14.2913H11.7168ZM16.2768 21.5053H14.3528C13.2508 21.4793 12.4008 20.6143 12.4008 19.5363V16.4603C12.4008 16.0913 12.0938 15.7913 11.7168 15.7913H8.8308C8.4618 15.7933 8.1568 16.0943 8.1568 16.4603V19.5263C8.1568 19.6013 8.1468 19.6733 8.1258 19.7413C8.0178 20.7313 7.1718 21.5053 6.1468 21.5053H4.2228C1.8938 21.5053 -0.000200272 19.6263 -0.000200272 17.3173V8.6033C0.00979973 7.6093 0.4678 6.6993 1.2588 6.1003L7.7938 0.855296C9.2328 -0.284704 11.2378 -0.284704 12.6738 0.853296L19.2558 6.1033C20.0288 6.6923 20.4868 7.6003 20.4998 8.5823V17.3173C20.4998 19.6263 18.6058 21.5053 16.2768 21.5053Z" fill="black"/>
</svg>
