<svg width="21" height="21" viewBox="0 0 21 21" fill="none" xmlns="http://www.w3.org/2000/svg">
<path d="M1.50012 1.24988L3.58012 1.60988L4.54312 13.0829C4.62012 14.0199 5.40312 14.7389 6.34312 14.7359H17.2521C18.1491 14.7379 18.9101 14.0779 19.0371 13.1899L19.9861 6.63188C20.0921 5.89888 19.5831 5.21888 18.8511 5.11288C18.7871 5.10388 3.91412 5.09888 3.91412 5.09888" stroke="black" stroke-width="1.5" stroke-linecap="round" stroke-linejoin="round"/>
<path fill-rule="evenodd" clip-rule="evenodd" d="M5.90441 18.2025C6.20541 18.2025 6.44841 18.4465 6.44841 18.7465C6.44841 19.0475 6.20541 19.2915 5.90441 19.2915C5.60341 19.2915 5.36041 19.0475 5.36041 18.7465C5.36041 18.4465 5.60341 18.2025 5.90441 18.2025Z" fill="black" stroke="black" stroke-width="1.5" stroke-linecap="round" stroke-linejoin="round"/>
<path fill-rule="evenodd" clip-rule="evenodd" d="M17.1847 18.2025C17.4857 18.2025 17.7297 18.4465 17.7297 18.7465C17.7297 19.0475 17.4857 19.2915 17.1847 19.2915C16.8837 19.2915 16.6407 19.0475 16.6407 18.7465C16.6407 18.4465 16.8837 18.2025 17.1847 18.2025Z" fill="black" stroke="black" stroke-width="1.5" stroke-linecap="round" stroke-linejoin="round"/>
</svg>
