<svg width="26" height="24" viewBox="0 0 26 24" fill="none" xmlns="http://www.w3.org/2000/svg">
<path fill-rule="evenodd" clip-rule="evenodd" d="M18.2822 16.7787C18.3712 16.6954 18.4206 16.5818 18.4195 16.463C18.4183 16.3441 18.3668 16.2297 18.2762 16.1449L10.2177 8.60481L14.48 8.64089C14.543 8.64141 14.6052 8.63032 14.6632 8.60826C14.7211 8.58619 14.7737 8.55358 14.8178 8.51229C14.862 8.47099 14.8968 8.42183 14.9204 8.36759C14.944 8.31335 14.9558 8.25511 14.9553 8.19619C14.9547 8.13726 14.9417 8.07882 14.9171 8.02418C14.8925 7.96954 14.8567 7.91978 14.8118 7.87775C14.7669 7.83571 14.7137 7.80222 14.6553 7.77919C14.5969 7.75616 14.5344 7.74403 14.4715 7.74351L9.05299 7.69845C8.98999 7.69785 8.92771 7.70889 8.86971 7.73093C8.81171 7.75296 8.75912 7.78557 8.71498 7.82688C8.67083 7.86819 8.63598 7.91739 8.61242 7.97166C8.58887 8.02593 8.57708 8.08421 8.57772 8.14315L8.62587 13.2131C8.62643 13.272 8.63939 13.3304 8.66401 13.3851C8.68862 13.4397 8.72442 13.4895 8.76934 13.5315C8.81427 13.5735 8.86744 13.607 8.92584 13.6301C8.98423 13.6531 9.0467 13.6652 9.10967 13.6657C9.17265 13.6663 9.23489 13.6552 9.29286 13.6331C9.35082 13.6111 9.40337 13.5784 9.44751 13.5372C9.49164 13.4959 9.52649 13.4467 9.55007 13.3925C9.57366 13.3382 9.5855 13.28 9.58494 13.221L9.54639 9.23291L17.6049 16.773C17.6955 16.8578 17.8178 16.9061 17.9448 16.9071C18.0718 16.9082 18.1932 16.862 18.2822 16.7787Z" fill="#9E9E9E"/>
</svg>
