<svg width="48" height="48" viewBox="0 0 48 48" fill="none" xmlns="http://www.w3.org/2000/svg">
<g clip-path="url(#clip0_3615_65102)">
<rect width="48" height="48" rx="24" fill="#EEEEEE"/>
<path d="M23.4484 22.9531V23.6719C23.4484 24.526 23.3417 25.2917 23.1281 25.9688C22.9146 26.6458 22.6073 27.2214 22.2063 27.6953C21.8052 28.1693 21.3234 28.5312 20.7609 28.7812C20.2036 29.0312 19.5786 29.1562 18.8859 29.1562C18.2141 29.1562 17.5969 29.0312 17.0344 28.7812C16.4771 28.5312 15.9927 28.1693 15.5813 27.6953C15.175 27.2214 14.8599 26.6458 14.6359 25.9688C14.412 25.2917 14.3 24.526 14.3 23.6719V22.9531C14.3 22.099 14.4094 21.3359 14.6281 20.6641C14.8521 19.987 15.1672 19.4115 15.5734 18.9375C15.9797 18.4583 16.4615 18.0938 17.0188 17.8438C17.5813 17.5938 18.1984 17.4688 18.8703 17.4688C19.563 17.4688 20.188 17.5938 20.7453 17.8438C21.3078 18.0938 21.7896 18.4583 22.1906 18.9375C22.5969 19.4115 22.9068 19.987 23.1203 20.6641C23.3391 21.3359 23.4484 22.099 23.4484 22.9531ZM21.9563 23.6719V22.9375C21.9563 22.2604 21.8859 21.6615 21.7453 21.1406C21.6099 20.6198 21.4094 20.1823 21.1438 19.8281C20.8781 19.474 20.5526 19.2057 20.1672 19.0234C19.787 18.8411 19.3547 18.75 18.8703 18.75C18.4016 18.75 17.9771 18.8411 17.5969 19.0234C17.2219 19.2057 16.899 19.474 16.6281 19.8281C16.3625 20.1823 16.1568 20.6198 16.0109 21.1406C15.8651 21.6615 15.7922 22.2604 15.7922 22.9375V23.6719C15.7922 24.3542 15.8651 24.9583 16.0109 25.4844C16.1568 26.0052 16.3651 26.4453 16.6359 26.8047C16.912 27.1589 17.2375 27.4271 17.6125 27.6094C17.9927 27.7917 18.4172 27.8828 18.8859 27.8828C19.3755 27.8828 19.8104 27.7917 20.1906 27.6094C20.5708 27.4271 20.8911 27.1589 21.1516 26.8047C21.4172 26.4453 21.6177 26.0052 21.7531 25.4844C21.8885 24.9583 21.9563 24.3542 21.9563 23.6719ZM30.0516 24.5391H27.0125V23.3125H30.0516C30.6401 23.3125 31.1167 23.2188 31.4813 23.0312C31.8458 22.8438 32.1115 22.5833 32.2781 22.25C32.45 21.9167 32.5359 21.5365 32.5359 21.1094C32.5359 20.7188 32.45 20.3516 32.2781 20.0078C32.1115 19.6641 31.8458 19.388 31.4813 19.1797C31.1167 18.9661 30.6401 18.8594 30.0516 18.8594H27.3641V29H25.8563V17.625H30.0516C30.9109 17.625 31.6375 17.7734 32.2313 18.0703C32.825 18.3672 33.2755 18.7786 33.5828 19.3047C33.8901 19.8255 34.0438 20.4219 34.0438 21.0938C34.0438 21.8229 33.8901 22.4453 33.5828 22.9609C33.2755 23.4766 32.825 23.8698 32.2313 24.1406C31.6375 24.4062 30.9109 24.5391 30.0516 24.5391Z" fill="#BDBDBD"/>
</g>
<defs>
<clipPath id="clip0_3615_65102">
<rect width="48" height="48" rx="24" fill="white"/>
</clipPath>
</defs>
</svg>
