<svg width="25" height="24" viewBox="0 0 25 24" fill="none" xmlns="http://www.w3.org/2000/svg">
<path d="M3.50012 3.25L5.58012 3.61L6.54312 15.083C6.62012 16.02 7.40312 16.739 8.34312 16.736H19.2521C20.1491 16.738 20.9101 16.078 21.0371 15.19L21.9861 8.632C22.0921 7.899 21.5831 7.219 20.8511 7.113C20.7871 7.104 5.91412 7.099 5.91412 7.099" stroke="black" stroke-width="1.5" stroke-linecap="round" stroke-linejoin="round"/>
<path fill-rule="evenodd" clip-rule="evenodd" d="M7.90441 20.2026C8.20541 20.2026 8.44841 20.4466 8.44841 20.7466C8.44841 21.0476 8.20541 21.2916 7.90441 21.2916C7.60341 21.2916 7.36041 21.0476 7.36041 20.7466C7.36041 20.4466 7.60341 20.2026 7.90441 20.2026Z" fill="black" stroke="black" stroke-width="1.5" stroke-linecap="round" stroke-linejoin="round"/>
<path fill-rule="evenodd" clip-rule="evenodd" d="M19.1847 20.2026C19.4857 20.2026 19.7297 20.4466 19.7297 20.7466C19.7297 21.0476 19.4857 21.2916 19.1847 21.2916C18.8837 21.2916 18.6407 21.0476 18.6407 20.7466C18.6407 20.4466 18.8837 20.2026 19.1847 20.2026Z" fill="black" stroke="black" stroke-width="1.5" stroke-linecap="round" stroke-linejoin="round"/>
</svg>
