<svg width="275" height="207" viewBox="0 0 275 207" fill="none" xmlns="http://www.w3.org/2000/svg">
<g clip-path="url(#clip0_4120_63717)">
<path fill-rule="evenodd" clip-rule="evenodd" d="M67.6977 83.7873C64.4597 86.4568 60.7579 88.5081 56.7771 89.8389C54.2615 90.6905 51.6123 91.0795 48.958 90.9869C48.0027 90.941 47.0635 90.7244 46.1847 90.3473C45.2381 89.9764 44.4275 89.3252 43.8615 88.4811C43.2955 87.637 43.0011 86.6401 43.0177 85.6241C43.0207 84.2965 43.3001 82.984 43.8382 81.7701C45.2338 78.5362 47.4617 75.7295 50.2953 73.6357C50.6974 73.3159 51.2307 73.1437 51.5014 72.6107C50.9845 72.4549 50.4758 72.3319 49.9918 72.1515C48.6854 71.7391 47.5836 70.8478 46.9078 69.6567C46.232 68.4657 46.0323 67.0631 46.3488 65.731C46.7947 63.7008 47.7521 61.8182 49.1303 60.2616C50.9543 58.119 53.2292 56.4054 55.7925 55.2432C55.8418 54.9234 55.6203 54.7676 55.448 54.579C54.8148 53.8951 54.3519 53.0717 54.0968 52.1756C53.8416 51.2794 53.8013 50.3358 53.9793 49.4212C54.3908 46.7914 55.4137 44.2946 56.9658 42.1315C58.53 39.8543 60.3833 37.7898 62.4795 35.9897C68.5054 30.6714 75.7283 26.8876 83.533 24.9607C85.473 24.5112 87.4456 24.2151 89.4322 24.0751C89.6209 23.6077 89.2763 23.4109 89.1286 23.1649C88.4975 22.1998 88.2014 21.0541 88.2859 19.9043C88.3704 18.7545 88.8308 17.6643 89.5963 16.8018C90.6427 15.527 91.9986 14.5417 93.5346 13.94C95.8982 12.9848 98.3836 12.3638 100.919 12.095C106.548 11.2992 112.266 11.3822 117.87 12.341C120.791 12.8608 123.652 13.6712 126.411 14.76C126.805 14.9158 127.232 15.0962 127.593 15.2356C127.773 15.293 127.962 15.4734 128.175 15.2356C128.389 14.9978 128.29 14.76 128.175 14.5386C127.781 13.9072 127.355 13.3004 126.994 12.6526C126.002 11.0109 125.469 9.13347 125.451 7.21599C125.432 5.77465 125.859 4.36261 126.674 3.17349C127.49 1.98437 128.653 1.07638 130.005 0.574021C131.757 -0.053652 133.64 -0.228534 135.477 0.0656226C143.732 1.09882 150.566 5.084 156.884 10.1762C160.273 12.8836 163.462 15.8324 166.426 18.9993C166.629 18.4909 166.666 17.9313 166.533 17.4004C166.399 15.0042 166.969 12.6213 168.174 10.5452C168.928 9.25961 169.98 8.17291 171.24 7.37559C172.5 6.57827 173.933 6.09341 175.418 5.9614C177.75 5.67064 180.116 6.03406 182.253 7.011C183.477 7.54159 184.634 8.216 185.699 9.01999C191.918 13.7104 197.243 19.1715 200.377 26.4449C203.214 32.9057 204.662 39.8896 204.627 46.9448C204.588 47.1729 204.63 47.4075 204.745 47.6082C204.86 47.8088 205.042 47.9629 205.259 48.0436C207.311 49.0595 209.141 50.4726 210.642 52.201C214.145 55.9812 217.353 59.991 219.552 64.706C220.646 66.7756 221.273 69.0594 221.39 71.3971C221.39 74.3327 219.856 76.1859 216.959 76.6779C214.48 77.0713 211.939 76.7024 209.673 75.6201C209.239 75.4315 208.853 75.1937 208.229 74.8903C210.998 85.5455 211.812 96.6137 210.633 107.559C210.986 107.92 211.265 107.666 211.536 107.559C219.166 104.394 226.756 101.138 233.935 97.022C237.464 94.9731 240.855 92.694 244.084 90.1997C245.406 89.2089 246.439 87.8843 247.079 86.3621C247.859 84.5089 248.589 82.6311 249.352 80.7779C249.854 79.3785 250.55 78.0564 251.419 76.8501C251.885 76.1683 252.512 75.6124 253.245 75.2318C253.978 74.8512 254.794 74.6578 255.62 74.6689C255.966 74.6467 256.312 74.6974 256.636 74.8179C256.96 74.9383 257.256 75.1257 257.503 75.3679C257.75 75.6101 257.943 75.9016 258.069 76.2234C258.196 76.5452 258.253 76.8901 258.238 77.2355C258.261 77.872 258.172 78.5077 257.975 79.1133C257.762 79.8267 257.598 80.5483 257.417 81.2617C257.31 81.4339 257.245 81.6307 257.417 81.7865C257.589 81.9423 257.647 81.7373 257.778 81.7045C259.619 80.7797 261.378 79.7017 263.037 78.4819C263.995 77.7313 265.122 77.2273 266.319 77.0141C267.228 76.7823 268.184 76.8202 269.072 77.1231C269.959 77.426 270.739 77.9809 271.316 78.7197C273.477 81.3019 274.761 84.5036 274.984 87.8627C275.083 89.42 274.591 90.9576 273.605 92.1677C270.052 96.7104 265.318 98.7276 259.608 98.6702C258.787 98.6702 258.016 98.6702 257.22 98.6702C254.888 98.7907 252.64 99.5824 250.747 100.95C241.23 107.593 231.057 113.245 220.389 117.817C216.286 119.572 212.184 121.204 207.959 122.647C207.56 122.762 207.195 122.972 206.894 123.257C206.593 123.542 206.364 123.895 206.227 124.287C201.935 134.876 194.579 143.944 185.1 150.33C181.917 152.511 178.298 153.971 174.778 155.553C173.285 156.226 171.751 156.824 170.2 157.366C170.074 157.388 169.954 157.436 169.846 157.506C169.739 157.576 169.647 157.667 169.576 157.773C169.505 157.88 169.456 157.999 169.432 158.125C169.408 158.251 169.41 158.38 169.437 158.505C169.577 160.408 169.683 162.31 169.774 164.245C170.135 172.027 170.29 179.825 170.455 187.607C170.455 189.034 170.496 189.009 171.882 189.329C175.35 190.066 178.383 192.148 180.317 195.118C182.524 198.398 181.892 201.998 178.741 204.401C176.219 206.208 173.161 207.113 170.061 206.967C166.59 206.967 163.357 206.229 160.625 203.851C159.658 202.944 158.974 201.776 158.656 200.489C157.885 197.953 157.336 195.355 157.015 192.724C155.858 183.573 155.005 174.389 154.554 165.172C154.472 163.639 154.472 162.105 154.48 160.564C154.48 159.957 154.291 159.67 153.659 159.744C153.241 159.744 152.839 159.744 152.388 159.793C143.547 160.385 134.679 160.472 125.829 160.055C124.713 160.006 123.605 159.916 122.498 159.826C121.964 159.785 121.759 159.924 121.767 160.523C121.711 167.439 121.292 174.347 120.512 181.219C120.061 185.91 119.626 190.6 118.871 195.258C118.617 196.775 118.198 198.251 117.903 199.759C117.63 201.146 116.991 202.435 116.052 203.492C115.113 204.549 113.907 205.336 112.562 205.77C110.469 206.62 108.224 207.032 105.966 206.98C103.708 206.928 101.485 206.413 99.4338 205.467C98.441 205.076 97.5418 204.481 96.7952 203.719C96.0487 202.958 95.4716 202.047 95.1017 201.047C94.2812 198.587 94.9376 196.43 96.4227 194.487C98.4158 191.759 101.367 189.884 104.685 189.239C105.784 189.018 105.801 189.009 105.834 187.763C106.03 181.244 106.203 174.725 106.416 168.206C106.515 165.139 106.662 162.064 106.867 158.997C106.933 158.112 106.662 157.808 105.817 157.653C101.866 156.881 97.9692 155.857 94.1499 154.586C91.938 153.837 89.848 152.768 87.9471 151.412C81.9844 147.422 76.8105 142.366 72.6862 136.497C69.8884 132.503 68.2228 128.116 66.7377 123.59C66.6536 123.209 66.4705 122.857 66.2069 122.569C65.9434 122.281 65.6086 122.067 65.2363 121.95C51.0125 116.864 37.5009 109.975 25.0328 101.45C24.7702 101.27 24.4831 101.122 24.2123 100.925C21.7509 98.908 18.8464 98.5144 15.827 98.6538C12.2581 98.8199 8.72022 97.9239 5.66128 96.079C3.88693 94.9927 2.35846 93.5489 1.17326 91.8397C0.628015 91.0495 0.256844 90.1526 0.0842869 89.2083C-0.0882701 88.264 -0.0582812 87.2939 0.172271 86.3621C0.583817 84.2356 1.37895 82.2018 2.51884 80.3597C4.92284 76.4565 8.41809 75.7841 12.061 78.5311C12.5287 78.8755 12.9799 79.2527 13.4722 79.5561C14.785 80.3761 16.1142 81.0977 17.5336 81.9259C17.7798 80.9501 17.3285 80.1957 17.1152 79.4659C16.8008 78.5605 16.7162 77.5913 16.869 76.6451C16.9403 76.1139 17.2012 75.6263 17.6038 75.2722C18.0063 74.9181 18.5234 74.7213 19.0597 74.7181C19.9374 74.6404 20.8199 74.7994 21.6151 75.1788C22.4103 75.5581 23.0891 76.1438 23.5805 76.8747C24.3954 77.9888 25.05 79.2116 25.5251 80.5073C26.2799 82.3687 27.0101 84.2465 27.7896 86.0997C28.5104 87.8134 29.6708 89.3068 31.1536 90.4293C37.1232 94.9367 43.5631 98.7858 50.361 101.909C54.5208 103.902 58.7955 105.607 63.0128 107.461C63.265 107.592 63.5537 107.635 63.8332 107.584C64.1368 107.223 63.9973 106.764 63.9891 106.37C63.7827 98.8574 65.1842 91.3873 68.0997 84.4597C68.1347 84.3594 68.154 84.2543 68.1572 84.1481C68.1902 84.1358 68.2199 84.1161 68.2441 84.0905C68.2683 84.0649 68.2863 84.0341 68.2967 84.0005C68.4576 83.8717 68.5829 83.7038 68.6604 83.5129C68.738 83.322 68.7653 83.1144 68.7397 82.9099C68.5592 82.9484 68.3905 83.0296 68.2478 83.1466C68.1051 83.2635 67.9924 83.4129 67.9192 83.5823C67.8244 83.6237 67.7463 83.696 67.6977 83.7873ZM206.4 70.2656C206.401 70.3414 206.43 70.4141 206.482 70.4699C206.533 70.5258 206.603 70.561 206.679 70.5689C207.245 71.1265 207.77 71.7251 208.385 72.2089C209.488 73.127 210.771 73.8036 212.152 74.1949C213.533 74.5861 214.981 74.6834 216.401 74.4803C218.436 74.2097 219.166 73.3077 219.142 71.2906C219.137 70.6569 219.054 70.0262 218.896 69.4128C217.94 66.0981 216.392 62.9838 214.326 60.2206C211.512 56.1049 208.099 52.4318 204.201 49.3228C203.763 49.0277 203.4 48.6347 203.141 48.1749C202.882 47.7152 202.733 47.2013 202.708 46.6742C202.514 41.7587 201.687 36.8887 200.246 32.1849C197.596 23.5503 193.059 16.2196 185.477 11.0208C183.369 9.41044 180.927 8.28996 178.331 7.74079C175.87 7.33079 173.408 7.41279 171.275 9.16759C170.621 9.46798 170.051 9.92411 169.615 10.496C169.179 11.0678 168.889 11.738 168.773 12.4476C168.215 14.7144 168.181 17.0784 168.674 19.3601C169.541 22.9186 171.174 26.2456 173.457 29.1099C174.04 29.9299 174.746 30.6597 174.721 31.7503C173.774 31.5786 172.917 31.0793 172.301 30.3399C170.281 28.2426 168.724 25.7452 167.731 23.0091C167.525 22.4761 167.468 21.8611 166.976 21.4675C165.335 20.1473 163.891 18.5812 162.135 17.3676C161.473 16.5269 160.632 15.8435 159.673 15.3668C159.659 15.2452 159.606 15.1316 159.522 15.0429C159.437 14.9542 159.326 14.8952 159.206 14.8748C153.971 10.1926 148.351 6.0926 141.705 3.60801C138.545 2.49269 135.21 1.95657 131.859 2.02542C131.197 2.01071 130.542 2.16032 129.952 2.46084C129.362 2.76136 128.856 3.20341 128.479 3.74741C127.748 4.66729 127.344 5.80378 127.33 6.9782C127.317 8.94861 127.968 10.8661 129.176 12.423C129.313 12.705 129.467 12.9788 129.636 13.243C131.361 15.5677 133.577 17.4852 136.126 18.8599C138.415 20.1883 140.729 21.4593 143.034 22.7631C143.567 23.0665 144.158 23.3289 144.371 24.0095C143.658 24.3375 143.075 24.0095 142.476 23.8455C140.671 23.4027 139.047 22.4925 137.283 21.9349C137.228 21.8146 137.13 21.7195 137.008 21.6692C136.886 21.6189 136.749 21.6171 136.626 21.6643C132.575 18.8526 128.05 16.7917 123.269 15.58C123.079 15.3983 122.833 15.2856 122.571 15.2602C115.547 13.4065 108.242 12.8507 101.017 13.6202C98.5907 13.8834 96.2342 14.5952 94.0679 15.7194C93.0076 16.2109 92.069 16.9305 91.3193 17.8268C90.9911 18.1755 90.7365 18.5868 90.5707 19.036C90.4049 19.4852 90.3313 19.9632 90.3543 20.4414C90.3773 20.9197 90.4963 21.3884 90.7044 21.8197C90.9125 22.251 91.2053 22.636 91.5654 22.9517C92.4622 23.8581 93.5618 24.5383 94.7735 24.9361C95.1534 25.2169 95.5817 25.4254 96.0371 25.5511C101.181 27.6011 106.638 28.1997 112.045 29.0361C112.414 29.4215 113.013 29.1673 113.521 29.5363C112.028 30.0282 110.466 30.28 108.894 30.2825C107.721 30.2825 106.58 30.1021 105.423 29.9627C100.944 29.5415 96.5848 28.2784 92.5746 26.2399C92.0865 25.9233 91.5156 25.7578 90.9337 25.7643C89.0411 25.8319 87.1655 26.1462 85.3544 26.6991C83.2376 27.0511 81.1749 27.674 79.2172 28.5523C77.7226 28.9925 76.3055 29.662 75.0164 30.5367C74.5395 30.5724 74.0833 30.7463 73.7036 31.0369C71.2807 32.3374 68.9554 33.8118 66.7459 35.4485C63.9226 37.5119 61.4156 39.9759 59.3042 42.7629C57.7744 44.7315 56.7289 47.032 56.252 49.4786C55.7597 52.2994 57.0725 53.9886 59.9278 54.1608C62.1443 54.3472 64.3762 54.2202 66.5572 53.7836C67.224 53.8947 67.9089 53.7974 68.5182 53.5048H69.1253C69.2238 53.5048 69.3551 53.5622 69.4125 53.636C69.4699 53.7098 69.4125 53.8 69.2976 53.8574C66.2783 55.2104 63.2999 56.7766 59.8211 56.3666C59.0862 56.2759 58.3405 56.3424 57.6332 56.5615C56.926 56.7806 56.2734 57.1474 55.7187 57.6376L55.3167 57.9082C53.3358 59.0158 51.6196 60.5407 50.2871 62.3772C49.4702 63.4139 48.8779 64.6091 48.5477 65.8868C48.3884 66.3377 48.3253 66.817 48.3624 67.2938C48.3995 67.7706 48.536 68.2344 48.7632 68.6553C48.9904 69.0762 49.3032 69.445 49.6816 69.7378C50.0599 70.0307 50.4953 70.2412 50.9599 70.3558C52.1722 70.7299 53.4454 70.8663 54.7095 70.7576C56.3505 71.0855 58.0981 70.7576 60.1575 70.7576C58.8772 71.5942 57.4735 72.225 55.9977 72.6271C55.3241 72.7577 54.6777 73.0017 54.086 73.3487C51.6283 74.7926 49.5124 76.7507 47.8831 79.0887C47.7504 79.1691 47.6348 79.2749 47.5433 79.4002C47.4518 79.5255 47.386 79.6677 47.3498 79.8185C47.2678 79.9415 47.1857 80.0727 47.0955 80.1957C46.9949 80.2627 46.9104 80.3512 46.848 80.4547C46.7855 80.5581 46.7468 80.6741 46.7345 80.7943C46.5452 80.9512 46.4221 81.1738 46.3899 81.4175C46.2122 81.5887 46.1041 81.8194 46.0863 82.0653C45.5472 82.9465 45.2631 83.9598 45.2658 84.9927C45.1838 87.2969 46.0863 88.4941 48.359 88.7975C49.6237 88.9661 50.9062 88.9495 52.166 88.7483C55.7253 88.152 59.1422 86.8979 62.2415 85.0501C66.7542 82.4097 70.5612 78.8755 74.4174 75.4069C74.7904 75.1294 75.0849 74.7598 75.2719 74.3343C75.4589 73.9088 75.532 73.442 75.484 72.9797C75.5046 72.1865 75.6571 71.4023 75.9353 70.6591C76.3567 69.4651 76.864 68.3032 77.4532 67.1824C78.3721 66.4116 78.8726 65.0914 80.489 64.9028C80.1608 65.2964 79.9475 65.5178 79.7587 65.7228C78.6918 67.1293 77.9275 68.7412 77.5138 70.4572C77.1001 72.1731 77.0459 73.9561 77.3547 75.6939C78.0029 77.0223 78.6019 77.3339 79.9557 77.1043C82.0328 76.6315 83.966 75.6669 85.5924 74.2917C88.5391 71.9611 91.0835 69.1633 93.1244 66.0098C95.996 61.6802 98.4575 57.121 100.919 52.5536C101.204 51.8348 101.64 51.1859 102.199 50.6512C102.535 50.93 102.437 51.1924 102.388 51.4712C102.015 53.0692 101.507 54.6328 100.87 56.1452C100.635 56.666 100.539 57.2383 100.59 57.8071C100.64 58.3759 100.837 58.9221 101.16 59.3932C101.483 59.8643 101.922 60.2444 102.434 60.497C102.946 60.7496 103.515 60.8662 104.086 60.8356C105.48 60.778 106.849 60.4464 108.115 59.8598C114.038 57.5392 118.682 53.4802 122.965 48.9374C124.133 47.503 125.402 46.1547 126.764 44.903C127.437 44.6735 127.945 44.0831 128.881 43.9601C128.372 44.534 127.97 44.9522 127.617 45.4032C127.412 45.6738 127.068 45.9526 127.355 46.3708C127.333 46.3436 127.306 46.3215 127.275 46.3063C127.243 46.2912 127.209 46.2833 127.174 46.2833C127.139 46.2833 127.105 46.2912 127.074 46.3063C127.043 46.3215 127.015 46.3436 126.994 46.3708C126.8 46.5527 126.675 46.7962 126.641 47.0596C126.231 48.4618 126.526 48.9784 127.921 49.3884C128.69 49.6048 129.499 49.6385 130.284 49.4868C134.195 48.9096 137.911 47.4054 141.122 45.0998C141.814 44.5007 142.673 44.1285 143.584 44.0339C143.379 44.7391 142.763 44.9768 142.435 45.395C141.853 46.0756 141.09 46.6168 140.975 47.609C140.564 48.6258 141.377 48.716 141.992 48.962C142.264 49.1299 142.571 49.2348 142.889 49.2688C143.207 49.3029 143.528 49.2653 143.83 49.1588C144.818 48.979 145.796 48.7463 146.759 48.4618C148.364 48.0169 149.892 47.3282 151.288 46.42C151.157 47.5516 150.082 47.978 150.279 48.9292C149.88 49.7154 149.792 50.6231 150.033 51.4712C150.517 53.9312 152.264 55.0382 154.496 55.5712C156.628 56.0207 158.838 55.9504 160.937 55.3662C165.295 54.4526 169.414 52.64 173.031 50.0444C173.79 49.3692 174.75 48.9629 175.763 48.8882C175.199 49.8362 174.445 50.6571 173.548 51.299C172.998 51.7746 172.35 52.1846 172.194 52.98C171.3 55.2186 171.89 56.3912 174.196 56.875C174.703 57.0331 175.233 57.1025 175.763 57.08C177.925 56.8603 180.039 56.3071 182.031 55.44C183.043 54.9405 184.112 54.566 185.215 54.3248C184.993 55.1448 184.198 55.358 183.91 56.0386C184.534 56.6014 185.125 57.1982 185.683 57.8262C188.488 61.15 190.733 64.9083 192.328 68.9536C195.704 76.9148 197.419 85.481 197.366 94.1275C197.366 95.2345 197.178 96.3415 197.104 97.4074C196.812 102.126 195.209 106.669 192.476 110.527C189.457 114.873 185.346 118.022 180.94 120.818C178.569 122.327 176.017 123.451 173.556 124.779C171.643 125.685 169.678 126.479 167.673 127.157C158.463 129.665 148.97 130.988 139.424 131.093C134.435 131.2 129.463 130.839 124.491 130.617C118.024 130.397 111.597 129.518 105.308 127.993C103.372 127.501 101.354 127.411 99.4585 126.616C94.8814 124.616 90.7816 121.667 87.4302 117.965C85.5717 116.087 83.9814 113.963 82.7043 111.651C81.6636 109.553 80.8389 107.355 80.2428 105.091C79.2097 101.252 78.6584 97.299 78.6019 93.3239C78.6341 88.144 79.8967 83.0459 82.2858 78.4491C81.4653 78.5721 80.8746 78.6787 80.3085 78.7197C79.7423 78.7607 79.0449 78.7197 78.4132 78.7689C77.5655 78.4864 76.7975 78.0057 76.1732 77.3667C76.0743 76.7846 75.7859 76.2513 75.3528 75.8497C74.0185 77.0847 72.9081 78.5412 72.0709 80.1547C67.5937 88.9204 65.5616 98.7295 66.188 108.551C66.4051 112.564 66.9539 116.552 67.829 120.474C68.3986 123.6 69.3378 126.647 70.6268 129.551C74.323 136.928 79.799 143.269 86.5605 148.001C87.9018 149.12 89.433 149.989 91.0814 150.568C92.3941 151.388 93.9202 151.683 95.3232 152.273C99.7931 154.013 104.462 155.192 109.222 155.783C110.685 156.155 112.179 156.394 113.686 156.496C116.024 156.808 118.354 157.111 120.709 157.21C128.214 157.81 135.747 157.979 143.272 157.718C149.089 157.48 154.898 157.48 160.674 156.423C167.005 155.394 173.159 153.478 178.955 150.732C181.664 149.521 184.228 148.011 186.602 146.23C186.728 146.22 186.848 146.174 186.949 146.096C187.049 146.019 187.125 145.915 187.168 145.795C187.578 145.605 187.929 145.307 188.185 144.934C189.309 144.467 189.974 143.458 190.802 142.663C192.706 140.818 194.823 139.162 196.414 137.038C200.74 131.393 203.986 125 205.989 118.178C206.904 115.193 207.6 112.145 208.073 109.06C208.402 106.542 208.779 104.033 208.894 101.499C209.044 97.6365 208.981 93.7685 208.705 89.9127C208.393 86.0505 207.942 82.2211 207.302 78.4327C206.884 75.9727 206.482 73.4143 205.103 71.1921C204.884 70.8815 204.732 70.5284 204.657 70.1556C204.582 69.7829 204.586 69.3986 204.668 69.0274L205.94 69.6998C205.939 69.8229 205.98 69.9429 206.056 70.0398C206.132 70.1367 206.239 70.2048 206.359 70.2327L206.4 70.2656ZM209.198 115.775L207.499 121.138C208.144 121.079 208.774 120.91 209.362 120.638C213.3 119.211 217.107 117.473 220.93 115.775C226.362 113.354 231.665 110.691 236.839 107.789C241.762 105.001 246.472 101.803 251.378 98.9654C253.043 97.911 254.97 97.3429 256.941 97.3254C258.848 97.4665 260.765 97.3562 262.644 96.9975C264.596 96.5219 266.557 96.079 268.206 94.8245C269.883 94.0143 271.314 92.7716 272.35 91.2247C273.094 90.2967 273.481 89.1332 273.441 87.9447C273.285 85.2469 273.014 82.6065 270.914 80.4827C268.814 78.3589 267.509 78.0227 264.801 79.0313C264.163 79.294 263.566 79.6475 263.029 80.0809C261.435 81.3133 259.763 82.4418 258.024 83.4593C256.843 84.1481 255.522 84.6237 254.595 85.7061C254.439 85.8865 254.127 86.1817 253.774 85.8455C253.892 85.234 254.176 84.6666 254.595 84.2055C255.837 82.2185 256.53 79.9381 256.605 77.5963C256.662 76.2351 255.973 75.7923 254.652 76.2023C254.11 76.3354 253.605 76.5918 253.178 76.9516C252.751 77.3115 252.413 77.765 252.191 78.2769C251.206 80.5073 250.468 82.8361 249.557 85.0993C248.858 87.1663 247.687 89.0419 246.135 90.5769C243.999 92.5614 241.735 94.4048 239.358 96.0955C233.288 100.095 226.841 103.492 220.11 106.239C217.283 107.441 214.397 108.497 211.462 109.404C210.839 109.593 210.256 109.74 210.149 110.56C209.969 111.872 209.69 113.168 209.46 114.472C209.332 114.66 209.244 114.874 209.203 115.098C209.163 115.323 209.169 115.553 209.222 115.775H209.198ZM81.8182 101.835C81.8371 102.259 81.8809 102.68 81.9494 103.098C83.076 108.753 85.945 113.915 90.1542 117.858C91.052 118.823 92.0858 119.652 93.2228 120.318C94.9931 122.072 97.1196 123.425 99.4585 124.287C102.828 125.384 106.261 126.274 109.739 126.952C116.096 128.097 122.52 128.839 128.971 129.174C131.35 129.338 133.722 129.773 136.093 129.74C141.284 129.71 146.468 129.359 151.616 128.69C156.812 128.035 161.942 126.938 166.951 125.41C171.398 124.029 175.65 122.083 179.603 119.621C182.039 118.228 184.319 116.578 186.405 114.701C190.238 111.497 193.083 107.272 194.609 102.516C195.43 101.015 195.356 99.3262 195.43 97.7108C195.731 92.4655 195.308 87.2038 194.175 82.0735C192.296 73.2667 189.104 65.034 183.607 57.8016C182.786 56.6618 182.786 56.6536 181.531 57.2358C179.415 58.3707 177.029 58.9039 174.631 58.7774C172.694 58.6052 171.012 57.9574 170.2 55.9566C169.954 55.3498 170.143 54.6938 169.897 54.1034C169.782 54.1034 169.659 54.0378 169.577 54.1034C169.043 54.3412 168.526 54.6036 168.001 54.8496C164.267 56.7944 160.091 57.7354 155.883 57.5802C154.574 57.5102 153.295 57.1695 152.125 56.5798C150.911 56.0172 149.917 55.0683 149.299 53.8814C148.682 52.6945 148.475 51.3365 148.712 50.0198C148.753 49.7246 148.983 49.4294 148.786 49.1014C148.277 49.1014 147.908 49.4212 147.481 49.6016C146.127 50.2169 144.674 50.5835 143.19 50.684C141.122 50.7742 140.023 50.0608 139.293 48.224C138.974 48.248 138.672 48.3746 138.431 48.5848C136.398 49.8478 134.138 50.7029 131.777 51.1022C129.316 51.5368 126.764 51.832 125.016 49.3228C124.468 49.7579 123.985 50.2687 123.581 50.8398C119.478 55.4646 114.81 59.294 108.951 61.4998C107.273 62.1746 105.463 62.4552 103.659 62.3198C102.941 62.2787 102.246 62.0572 101.636 61.676C101.026 61.2947 100.523 60.7659 100.172 60.1386C99.9753 59.8024 99.9671 59.3186 99.401 59.171C98.3098 61.2292 97.1857 63.271 95.9468 65.2472C93.5674 69.0356 91.0239 72.6845 87.381 75.3987C85.9281 76.4477 84.7788 77.8623 84.0499 79.4987C83.7955 80.0809 83.4591 80.6303 83.2294 81.2125C81.2218 86.2025 80.4641 91.6071 81.0223 96.9564C81.0394 98.6136 81.3077 100.259 81.8182 101.835ZM11.4867 96.7104C11.6955 96.8721 11.9458 96.9716 12.2087 96.9975C14.0821 97.3715 15.9984 97.4846 17.9028 97.3336C19.9341 97.3257 21.9258 97.8944 23.6462 98.9736C25.2133 99.8674 26.7312 100.835 28.2573 101.786C32.6222 104.5 36.9954 107.198 41.5162 109.642C47.0709 112.643 52.8142 115.242 58.5822 117.776C60.8573 118.831 63.1882 119.762 65.5645 120.564C65.6648 119.598 65.518 118.621 65.1378 117.727C64.8096 115.423 64.3912 113.127 64.1778 110.814C64.186 110.432 64.06 110.059 63.8218 109.759C63.5835 109.46 63.248 109.253 62.8733 109.174C56.0133 106.972 49.383 104.11 43.0751 100.63C39.3515 98.7097 35.828 96.4244 32.5566 93.8077C31.3341 92.7991 30.0951 91.7741 28.9465 90.7081C26.8871 88.8221 25.8615 86.3129 24.9097 83.7709C24.2041 81.8931 23.5559 79.9907 22.7108 78.1621C22.5207 77.7264 22.238 77.3372 21.8824 77.0214C21.5268 76.7057 21.1068 76.471 20.6514 76.3335C19.0105 75.7513 18.3295 76.1859 18.4443 77.9735C18.5378 80.2073 19.2261 82.3756 20.4381 84.2547C20.8926 84.8133 21.2026 85.4751 21.3406 86.1817C20.7338 86.0421 20.1892 85.7081 19.7899 85.2305C19.4692 84.89 19.0881 84.612 18.6659 84.4105C16.278 83.2537 14.0314 81.8257 11.9708 80.1547C11.0422 79.4452 9.96514 78.9546 8.82012 78.7197C8.12497 78.5534 7.39879 78.5678 6.7108 78.7616C6.02281 78.9554 5.39596 79.3221 4.89003 79.8267C3.86308 80.7447 3.04035 81.8678 2.47502 83.1235C1.90969 84.3792 1.61435 85.7395 1.60811 87.1165C1.52447 87.9601 1.60903 88.8119 1.8569 89.6226C2.10476 90.4333 2.51101 91.1869 3.05215 91.8397C5.19561 94.4129 8.18557 96.1395 11.4867 96.7104ZM170.775 191.477C170.561 192.297 170.775 192.871 170.52 193.421C170.458 193.627 170.334 193.809 170.166 193.943C169.997 194.077 169.792 194.157 169.577 194.171C169.362 194.185 169.148 194.134 168.963 194.023C168.778 193.912 168.632 193.748 168.543 193.552C168.283 192.97 168.162 192.336 168.19 191.699C168.092 188.468 167.999 185.237 167.911 182.007C167.755 176.34 167.624 170.674 167.46 165.008C167.402 163.097 167.238 161.195 167.148 159.268C167.148 158.587 166.902 158.325 166.172 158.522C163.399 159.217 160.576 159.697 157.729 159.957C157.097 160.031 156.761 160.195 156.794 160.916C156.908 163.458 156.9 166.008 157.081 168.542C157.63 176.144 158.295 183.745 159.239 191.313C159.563 194.103 160.112 196.861 160.88 199.563C161.096 200.6 161.65 201.537 162.455 202.228C165.491 204.63 168.978 204.835 172.571 204.36C174.325 204.178 175.994 203.517 177.396 202.449C179.307 200.932 179.857 198.874 178.626 196.816C177.784 195.41 176.645 194.204 175.289 193.282C173.933 192.36 172.393 191.744 170.775 191.477ZM105.448 191.477C101.953 192.24 99.1303 194.011 97.4975 197.308C96.5704 199.177 97.0544 200.735 98.6052 202.178C99.4328 202.926 100.412 203.485 101.477 203.818C104.458 204.83 107.683 204.873 110.691 203.941C111.928 203.65 113.056 203.01 113.94 202.097C114.824 201.184 115.428 200.037 115.679 198.792C117.074 192.945 117.509 186.984 118.141 181.039C118.485 177.759 118.797 174.479 118.961 171.24C119.175 167.755 119.462 164.27 119.421 160.769C119.421 159.949 119.166 159.67 118.338 159.653C115.583 159.636 112.836 159.361 110.133 158.833C109.312 158.653 109.148 159.047 109.115 159.744C108.968 162.704 108.722 165.664 108.631 168.624C108.443 174.29 108.336 179.948 108.213 185.615C108.164 187.788 108.213 189.96 107.959 192.117C107.953 192.487 107.909 192.855 107.827 193.216C107.786 193.511 107.631 193.778 107.394 193.959C107.158 194.14 106.859 194.221 106.564 194.183C105.957 194.101 105.743 193.626 105.637 193.044C105.62 192.568 105.842 192.076 105.448 191.477ZM128.618 15.4406C128.618 15.375 128.544 15.3094 128.503 15.2438C128.462 15.1782 128.405 15.3176 128.405 15.3422C128.429 15.4168 128.462 15.4884 128.503 15.5554C128.546 15.5213 128.584 15.4828 128.618 15.4406Z" fill="#023AFF"/>
<path fill-rule="evenodd" clip-rule="evenodd" d="M142.009 48.9949C141.393 48.7489 140.581 48.6587 140.991 47.6419C142.033 47.6419 142.706 46.8219 143.453 46.3053C144.602 45.5392 145.539 44.4957 146.177 43.2713C146.472 42.6317 146.776 41.9511 146.25 41.3443C145.725 40.7375 145.094 40.9835 144.486 41.2295C143.879 41.4755 143.198 41.7051 142.583 42.0085C139.773 43.4569 136.798 44.5583 133.722 45.2885C131.641 45.8477 129.512 46.2047 127.363 46.3545C127.076 45.9363 127.42 45.6575 127.626 45.3869C127.978 44.9359 128.38 44.5177 128.889 43.9437C127.954 44.0503 127.445 44.6571 126.772 44.8867C126.788 44.4101 126.871 43.9381 127.018 43.4845C127.077 43.2505 127.066 43.0046 126.988 42.7765C126.909 42.5485 126.766 42.3481 126.576 42.1996C126.386 42.0512 126.157 41.9611 125.916 41.9403C125.676 41.9194 125.434 41.9688 125.222 42.0823C124.689 42.3258 124.212 42.6744 123.819 43.1073C122.077 44.8717 120.433 46.7304 118.896 48.6751C116.241 51.6493 112.933 53.9678 109.23 55.4483C107.371 56.1866 105.449 56.7574 103.487 57.1539C102.486 57.3753 102.1 56.9981 102.42 56.0797C103.001 54.1097 103.456 52.1049 103.782 50.0773C103.972 48.9793 103.882 47.8512 103.52 46.7973C103.298 45.9773 102.749 45.9035 102.076 46.4529C101.473 46.9732 100.996 47.6238 100.681 48.3553C99.3683 51.1843 98.1211 54.0543 96.7017 56.8259C94.144 61.966 90.5846 66.5437 86.2324 70.2902C83.533 72.5862 80.3496 73.9884 77.3548 75.735C77.046 73.9971 77.1001 72.2142 77.5138 70.4982C77.9275 68.7823 78.6919 67.1704 79.7588 65.7638C79.9475 65.5178 80.1608 65.2964 80.489 64.9438C78.8481 65.1324 78.3722 66.4526 77.4533 67.2234C77.0266 66.6658 76.5671 66.6576 76.1487 67.1824C75.5876 67.8147 75.0721 68.4861 74.6062 69.1914C72.4859 72.9807 69.5316 76.2389 65.9666 78.7198C62.6899 80.9598 59.0428 82.6032 55.1937 83.5742C53.1889 84.2268 51.091 84.5481 48.9826 84.5253C49.0553 83.9505 49.3497 83.4268 49.8031 83.0658C51.0831 81.8112 52.3466 80.5402 53.6101 79.2692C53.9686 78.9585 54.2686 78.5864 54.4963 78.1704C54.7178 77.6784 54.9803 77.1454 54.5537 76.7026C54.3602 76.4501 54.0914 76.2656 53.7861 76.1757C53.4809 76.0857 53.1549 76.0951 52.8553 76.2024C52.3727 76.4 51.9015 76.6245 51.4441 76.8748C50.1969 77.4898 49.4093 78.7034 48.1622 79.2692L47.916 79.0314C49.5452 76.6934 51.6612 74.7353 54.1188 73.2914C54.7106 72.9444 55.357 72.7003 56.0306 72.5698C57.5064 72.1677 58.91 71.5368 60.1904 70.7002C58.131 70.7002 56.4244 71.0036 54.7424 70.7002C55.1116 70.405 55.4726 70.1016 55.8583 69.831C57.4992 68.7076 57.4992 68.0598 56.129 66.6986C55.3098 65.9375 54.3627 65.3268 53.3312 64.8946C52.0512 64.3124 51.9774 63.7712 52.9456 62.7626C53.766 61.8852 54.6357 60.9996 55.5465 60.196C55.9035 59.9585 56.1755 59.6134 56.323 59.2108C56.4705 58.8083 56.4859 58.3693 56.3669 57.9575C59.1976 58.4412 61.9708 59.0152 64.941 58.597C68.9629 58.107 72.8911 57.0295 76.6 55.3991C77.6789 54.8447 78.7155 54.2115 79.7014 53.5049C79.9182 53.397 80.0925 53.2197 80.1966 53.0012C80.3008 52.7827 80.3286 52.5356 80.2757 52.2995C80.1116 51.6845 79.5619 51.5943 79.0286 51.5369C78.8185 51.5163 78.6069 51.5163 78.3968 51.5369C77.1005 51.7255 75.7959 51.8895 74.5077 52.1191C72.6981 52.3799 70.914 52.7941 69.1746 53.3573H68.5675H66.9265C67.5362 52.8431 68.1169 52.2956 68.6659 51.7173C69.9459 50.2495 69.6259 48.6833 67.9357 47.7731C67.0419 47.3061 66.0617 47.027 65.0558 46.9531C62.1349 46.6743 61.4457 45.4443 62.7667 42.8531L62.8405 42.7137C64.4689 40.1053 66.4922 37.7651 68.8382 35.7765C70.9305 33.9971 73.2278 32.4474 75.0411 30.34C76.3302 29.4652 77.7473 28.7958 79.2419 28.3556C81.1901 27.5263 83.2358 26.9477 85.3299 26.6336C85.5241 26.953 85.8367 27.1828 86.1996 27.2732C89.6995 28.8879 93.3073 30.2579 96.9971 31.3732C99.9884 32.217 103.055 32.7662 106.154 33.0131C109.905 33.2827 113.676 32.9617 117.329 32.062C119.001 31.5956 120.492 30.6318 121.603 29.2986C118.247 29.2494 115.171 28.6836 112.045 28.9706C106.638 28.1506 101.182 27.5356 96.0371 25.4856C95.5817 25.3598 95.1534 25.1514 94.7736 24.8706C95.2987 24.8706 95.832 24.8706 96.3571 24.7804C96.6097 24.7814 96.8583 24.7166 97.0782 24.5923C97.2981 24.468 97.4818 24.2885 97.611 24.0715C97.7403 23.8546 97.8107 23.6077 97.8152 23.3552C97.8198 23.1028 97.7584 22.8535 97.637 22.632C97.4264 22.1391 97.1196 21.6931 96.7345 21.32C95.2412 19.7374 95.233 18.983 96.5458 17.3512C97.0196 16.8514 97.6706 16.557 98.3591 16.5312C100.328 16.2032 102.314 15.9736 104.308 15.785C106.72 15.5554 109.14 15.4078 111.552 15.252C115.466 15.006 119.363 15.5308 123.269 15.539C128.05 16.7482 132.574 18.8063 136.626 21.6152C136.694 21.7225 136.794 21.8062 136.911 21.8546C137.029 21.9031 137.159 21.914 137.283 21.8858C137.529 22.4161 137.937 22.8551 138.448 23.1404C141.019 25.0035 143.807 26.5482 146.751 27.7406C149.065 28.6484 151.519 29.1451 154.004 29.2084C154.874 29.2084 156.047 29.2084 156.244 28.1916C156.416 27.2896 155.423 26.8468 154.603 26.4614C152.568 25.4364 150.501 24.4524 148.49 23.411C143.915 20.9765 139.685 17.9431 135.912 14.391C133.702 12.2288 131.606 9.95156 129.636 7.56865C129.718 5.10866 130.456 4.46906 132.868 4.75606H133.024C138.269 5.52395 143.277 7.44821 147.686 10.3894C151.258 12.9294 154.685 15.667 157.95 18.5894C158.599 19.1306 159.329 19.9424 160.108 19.4094C160.888 18.8764 160.248 17.8514 159.985 17.0806C159.797 16.5394 159.403 16.0392 159.739 15.4406C160.698 15.9174 161.538 16.6007 162.201 17.4414C162.089 18.8134 162.312 20.1919 162.849 21.4594C163.796 23.9317 165.131 26.2374 166.803 28.29C168.775 30.8436 171.063 33.1361 173.613 35.1123C174.88 36.047 176.412 36.5527 177.987 36.5555C177.166 34.6695 176.411 32.9393 174.787 31.775C174.787 30.6844 174.106 29.93 173.523 29.1346C171.239 26.2703 169.607 22.9433 168.74 19.3848C168.247 17.103 168.281 14.7391 168.838 12.4722C168.955 11.7626 169.244 11.0925 169.681 10.5206C170.117 9.94877 170.687 9.49263 171.341 9.19224C173.868 9.70064 176.428 10.0122 178.93 10.6764C185.97 12.5624 190.909 16.8756 194.207 23.2716C197.096 28.8804 198.466 34.9319 199.426 41.1065C199.552 42.5294 199.932 43.9181 200.55 45.2065C200.727 45.6505 201.034 46.0309 201.431 46.2985C201.827 46.566 202.295 46.7084 202.773 46.7071C202.799 47.2342 202.947 47.748 203.207 48.2078C203.466 48.6675 203.829 49.0606 204.267 49.3557C208.165 52.4647 211.578 56.1377 214.391 60.2534C216.457 63.0166 218.006 66.1309 218.961 69.4456C219.12 70.0591 219.203 70.6897 219.207 71.3234C219.207 73.3406 218.502 74.2426 216.467 74.5132C215.037 74.7211 213.58 74.6248 212.19 74.2306C210.8 73.8363 209.509 73.153 208.402 72.2254C207.786 71.7252 207.261 71.1266 206.695 70.5854L206.416 70.282C206.416 70.0196 206.326 69.7818 205.998 69.749C205.957 68.6256 205.095 68.109 204.275 67.699C203.454 67.289 203.225 67.4612 202.863 68.3222C202.531 69.0543 202.447 69.8751 202.626 70.6592C203.118 72.5206 202.798 74.4312 203.151 76.3172C203.684 79.1626 203.766 82.0572 204.25 84.9189C204.714 87.5637 204.988 90.2383 205.071 92.9221C205.304 97.1444 205.239 101.378 204.874 105.591C204.525 108.728 204.019 111.845 203.356 114.931C202.268 119.82 200.659 124.579 198.556 129.125C196.428 133.97 193.578 138.465 190.105 142.458C189.391 143.278 188.464 143.934 188.259 145.123C188.003 145.496 187.652 145.793 187.242 145.984C186.954 145.984 186.725 146.091 186.675 146.419C184.302 148.199 181.737 149.709 179.029 150.92C173.223 153.673 167.058 155.591 160.715 156.619C154.972 157.677 149.13 157.677 143.313 157.915C135.789 158.176 128.255 158.006 120.75 157.407C121.545 157.12 122.371 156.927 123.211 156.833C125.821 156.3 128.348 155.537 130.366 153.708C130.577 153.449 130.879 153.278 131.21 153.231C131.542 153.184 131.879 153.264 132.155 153.454C134.854 154.889 137.594 154.586 140.195 153.249C140.529 153.022 140.927 152.908 141.33 152.924C141.734 152.94 142.121 153.086 142.435 153.339C145.14 155.206 148.22 156.459 151.46 157.013C153.659 157.349 155.768 157.054 157.376 155.242C159.452 154.947 160.297 153.602 160.51 151.658C160.506 151.607 160.506 151.555 160.51 151.503C161.151 147.745 161.527 143.948 161.634 140.138C161.806 138.607 161.75 137.06 161.47 135.546C160.937 133.496 159.477 132.7 157.491 133.43C154.414 134.553 151.329 135.677 148.261 136.833C145.487 137.883 142.698 138.908 139.99 140.113C139.602 140.352 139.154 140.479 138.698 140.479C138.242 140.479 137.794 140.352 137.406 140.113C135.707 139.162 133.738 138.678 132.007 139.998C131.611 140.33 131.142 140.562 130.638 140.675C130.134 140.788 129.61 140.778 129.111 140.646C128.437 140.523 127.784 140.302 127.174 139.99C125.763 139.252 124.352 138.53 122.916 137.842C119.438 136.031 115.711 134.746 111.856 134.029C111.084 133.816 110.261 133.884 109.535 134.222C108.809 134.56 108.227 135.146 107.893 135.874C107.516 136.573 107.222 137.313 107.015 138.079C106.58 139.531 106.769 141.023 106.646 142.491C105.829 144.059 105.379 145.792 105.331 147.559C105.282 149.326 105.637 151.081 106.367 152.692C106.999 154.11 108.27 154.914 109.271 155.972C104.511 155.381 99.8424 154.202 95.3725 152.462C93.9695 151.872 92.4434 151.576 91.1306 150.757C91.1306 150.404 90.8435 150.232 90.5891 150.027C88.3255 148.284 86.2469 146.314 84.3863 144.147C80.1869 138.896 76.9432 132.948 74.8031 126.575C73.5645 122.878 72.6207 119.088 71.9807 115.242C71.5254 112.708 71.2322 110.147 71.1028 107.575C70.9088 103.417 71.079 99.2489 71.6115 95.1197C72.0828 91.7336 72.7707 88.3812 73.6709 85.0829C74.3436 82.5246 75.3775 80.0974 76.1323 77.58C76.7566 78.2189 77.5245 78.6997 78.3722 78.9822C78.9301 79.5152 79.7096 78.9822 80.3988 79.4004C76.362 83.6807 76.1733 88.4203 78.5609 93.5371C78.6175 97.5123 79.1687 101.465 80.2019 105.304C80.798 107.568 81.6227 109.766 82.6633 111.864C83.9405 114.176 85.5308 116.301 87.3893 118.178C90.7407 121.88 94.8405 124.829 99.4175 126.829C101.313 127.649 103.331 127.715 105.268 128.207C111.556 129.732 117.983 130.611 124.45 130.831C129.422 131.052 134.395 131.413 139.383 131.306C148.929 131.201 158.422 129.878 167.632 127.37C169.637 126.692 171.602 125.898 173.515 124.992C173.515 125.263 173.622 125.615 173.892 125.624C175.574 125.624 177.24 126.009 178.897 125.271C184.116 122.934 188.177 119.178 191.557 114.701C196.948 107.575 199.442 99.3837 199.934 90.5359C200.017 87.2079 199.778 83.8796 199.221 80.5976C198.636 76.5545 197.587 72.5924 196.095 68.7896C195.307 66.5497 194.202 64.4345 192.813 62.5084C191.902 61.3358 190.655 60.4584 189.974 59.1054C189.276 57.7975 188.373 56.6098 187.299 55.5877C187.143 55.4688 187.012 55.3199 186.914 55.1499C186.816 54.9798 186.753 54.7919 186.729 54.5972C186.704 54.4026 186.719 54.2049 186.772 54.016C186.824 53.827 186.914 53.6504 187.036 53.4967C187.517 52.8619 187.802 52.1012 187.857 51.3073C187.857 50.4873 187.406 50.1265 186.626 50.2905C186.323 50.3643 186.044 50.5529 185.748 50.6513C184.042 51.2089 182.507 52.1683 180.735 52.6111C179.143 52.9656 177.528 53.2121 175.903 53.3491C174.696 53.4885 173.375 53.7755 172.194 53.0539C172.35 52.2339 173.014 51.8485 173.548 51.3729C174.445 50.7309 175.199 49.9101 175.763 48.9621C176.155 48.533 176.446 48.0214 176.613 47.465C176.781 46.9086 176.821 46.3217 176.731 45.7477C176.649 44.6571 176.099 44.2635 175.033 44.6079C174.537 44.7896 174.059 45.0174 173.605 45.2885C170.663 46.9239 167.551 48.2354 164.326 49.1999C159.665 50.5529 154.964 51.7337 150.049 51.4713C149.808 50.6232 149.896 49.7154 150.295 48.9293C150.45 48.9656 150.611 48.9697 150.768 48.9415C150.924 48.9133 151.074 48.8533 151.206 48.7653C152.24 47.7977 153.405 46.9367 154.045 45.6165C154.373 44.9523 154.8 44.1897 154.201 43.5665C153.602 42.9433 152.905 43.5665 152.338 43.8125C149.877 45.0671 147.416 46.3791 144.905 47.6747C144.709 47.7532 144.535 47.8768 144.396 48.0355C144.121 48.3951 143.754 48.6741 143.334 48.8429C142.914 49.0117 142.456 49.0642 142.009 48.9949ZM131.096 23.7144C130.988 22.9228 130.687 22.1699 130.219 21.5222C129.751 20.8744 129.131 20.3516 128.413 19.9998C126.671 19.1098 124.799 18.5009 122.867 18.1958C120.719 17.8653 118.524 18.0451 116.459 18.7206C115.926 18.8928 115.4 19.1306 115.45 19.7538C115.499 20.377 116.081 20.3934 116.508 20.5738C116.66 20.6189 116.817 20.6437 116.976 20.6476C120.579 21.1534 124.108 22.0922 127.486 23.4438C128.646 23.8414 129.889 23.9346 131.096 23.7144ZM86.7903 31.3978C85.2886 31.0624 83.7351 31.0289 82.2202 31.2994C79.7942 31.8644 77.4753 32.8169 75.3528 34.1201C73.3371 35.2989 71.5703 36.8586 70.151 38.7121C69.9049 39.0319 69.2649 39.4501 69.6751 39.8929C70.0854 40.3357 70.4956 39.7371 70.8812 39.5075C75.0262 36.8615 79.4508 34.6808 84.0745 33.0049C85.1032 32.7119 86.0386 32.1583 86.7903 31.3978Z" fill="#6B9FFC"/>
<path fill-rule="evenodd" clip-rule="evenodd" d="M179.627 119.613C175.675 122.075 171.423 124.021 166.976 125.402C161.967 126.93 156.837 128.027 151.641 128.682C146.493 129.351 141.309 129.702 136.117 129.732C133.746 129.732 131.375 129.33 128.996 129.166C122.545 128.831 116.121 128.089 109.764 126.944C106.286 126.266 102.852 125.376 99.4831 124.279C97.1443 123.417 95.0178 122.064 93.2475 120.31C95.646 119.062 97.4971 116.97 98.444 114.438C99.3909 111.907 99.3665 109.114 98.3755 106.6C97.7275 104.763 96.5676 103.149 95.0325 101.949C93.4975 100.749 91.6512 100.013 89.7112 99.8265C87.7117 99.6701 85.7008 99.8984 83.7873 100.499C83.8858 99.7363 83.4591 99.0639 83.4591 98.3177C83.3252 95.2131 83.413 92.1029 83.7217 89.0108C84.1443 86.1453 84.8057 83.3202 85.6991 80.5648C85.9314 79.8579 86.3935 79.249 87.0118 78.8346C88.3464 77.889 89.6257 76.8678 90.8435 75.776C93.7233 73.2718 96.244 70.3828 98.3344 67.1906C99.2862 65.6491 100.189 64.3863 102.24 64.8701C102.293 64.886 102.35 64.886 102.404 64.8701C105.645 64.407 108.812 63.5221 111.823 62.2379C115.523 60.6266 118.793 58.1722 121.373 55.0711C121.608 54.7332 121.929 54.4644 122.302 54.2927C122.676 54.1211 123.089 54.0529 123.499 54.0953C127.002 54.2166 130.481 53.4672 133.623 51.9141C134.44 51.5112 135.372 51.4068 136.257 51.6189C137.758 52.0125 139.309 51.7747 140.811 52.1437C141.44 52.2381 142.083 52.2018 142.698 52.0371C144.224 51.7583 145.766 51.5943 147.342 51.3811C147.382 52.1561 147.467 52.9282 147.596 53.6935C148.622 57.9985 151.543 60.5651 155.653 61.5901C159.36 62.6265 163.312 62.3364 166.828 60.7701C167.175 60.5812 167.57 60.4963 167.964 60.5253C168.358 60.5544 168.736 60.6963 169.052 60.9341C170.502 61.9208 172.18 62.5215 173.927 62.6793C175.674 62.8371 177.433 62.5469 179.037 61.8361C180.194 61.3851 180.226 61.3523 180.907 62.4429C181.695 63.7002 182.439 64.9794 183.139 66.2804C185.584 70.8488 187.51 75.6757 188.883 80.6714C190.048 84.5095 190.664 88.4932 190.712 92.5039C190.819 94.9877 190.712 97.4759 190.392 99.9413C188.785 99.5366 187.121 99.4036 185.469 99.5477C184.112 99.5734 182.778 99.9071 181.568 100.524C180.359 101.14 179.305 102.023 178.487 103.107C177.776 104.031 177.147 105.016 176.608 106.05C175.5 108.094 175.106 110.449 175.488 112.742C175.869 115.036 177.006 117.136 178.717 118.711C179.098 118.922 179.413 119.234 179.627 119.613ZM113.037 90.3802C117.96 90.4458 121.242 88.7402 123.63 85.3126C124.964 83.3839 125.685 81.0974 125.697 78.7526C125.649 76.8427 125.205 74.9635 124.393 73.234C121.3 65.854 112.824 63.1727 106.49 67.7564C104.503 69.1158 102.939 71.006 101.976 73.2113C101.012 75.4167 100.689 77.8483 101.042 80.2286C101.346 82.7878 102.567 85.1502 104.48 86.8788C106.788 89.0839 109.845 90.3348 113.037 90.3802ZM158.287 89.3798C160.622 89.3927 162.908 88.7133 164.857 87.4275C166.806 86.1418 168.329 84.3073 169.235 82.1562C170.141 80.0051 170.388 77.6339 169.945 75.3425C169.502 73.0511 168.389 70.9424 166.747 69.283C165.105 67.6236 163.008 66.4882 160.72 66.0201C158.432 65.5521 156.057 65.7726 153.895 66.6537C151.733 67.5347 149.88 69.0368 148.572 70.97C147.264 72.9032 146.559 75.1807 146.546 77.5144C146.531 79.0658 146.823 80.6048 147.406 82.0426C147.989 83.4805 148.851 84.7887 149.943 85.8918C151.034 86.9949 152.334 87.8711 153.766 88.4697C155.198 89.0684 156.734 89.3777 158.287 89.3798ZM137.332 124.869C142.334 124.932 147.316 124.221 152.1 122.762C158.172 120.925 161.79 116.964 162.767 110.642C163.219 107.44 163.307 104.197 163.029 100.975C162.84 98.3095 162.841 98.2849 160.166 98.3095C144.987 98.4325 129.808 99.1295 114.67 99.7937C114.248 99.8142 113.826 99.7977 113.407 99.7445C112.012 99.5477 111.593 99.7445 111.142 101.048C110.602 102.666 110.434 104.384 110.65 106.075C110.898 108.233 111.388 110.356 112.11 112.405C115.162 121.376 122.719 124.705 129.71 124.845C132.245 124.877 134.788 124.845 137.332 124.861V124.869Z" fill="#ABCDFF"/>
<path fill-rule="evenodd" clip-rule="evenodd" d="M11.4867 96.7105C8.1727 96.1303 5.17539 94.3854 3.03574 91.7905C2.4946 91.1377 2.08835 90.3841 1.84048 89.5734C1.59261 88.7627 1.50805 87.9109 1.59169 87.0673C1.59794 85.6904 1.89327 84.33 2.4586 83.0743C3.02393 81.8186 3.84667 80.6955 4.87361 79.7775C5.37955 79.2729 6.0064 78.9062 6.69438 78.7124C7.38237 78.5186 8.10856 78.5042 8.8037 78.6705C9.94872 78.9054 11.0258 79.396 11.9543 80.1055C14.015 81.7765 16.2616 83.2045 18.6495 84.3613C19.0717 84.5628 19.4528 84.8408 19.7735 85.1813C20.1725 85.6665 20.7204 86.0066 21.3324 86.1489C21.1944 85.4423 20.8844 84.7805 20.4299 84.2219C19.2179 82.3428 18.5296 80.1745 18.4361 77.9407C18.3213 76.1613 18.9694 75.7267 20.6432 76.3007C21.0986 76.4382 21.5186 76.6729 21.8742 76.9886C22.2298 77.3044 22.5125 77.6936 22.7026 78.1293C23.5231 79.9579 24.1959 81.8603 24.9015 83.7381C25.8533 86.2801 26.8789 88.7893 28.9383 90.6753C30.1115 91.7413 31.3259 92.7663 32.5484 93.7749C35.8198 96.3916 39.3433 98.6769 43.0669 100.597C49.3692 104.079 55.9941 106.944 62.8487 109.15C63.2234 109.228 63.5589 109.435 63.7971 109.734C64.0354 110.034 64.1613 110.407 64.1532 110.79C64.3666 113.102 64.785 115.398 65.1132 117.702C61.3882 116.366 57.6632 115.029 53.9793 113.602C47.8891 111.169 42.0015 108.257 36.3718 104.894C34.1483 103.574 31.9904 102.131 29.7095 100.909C26.8692 99.2925 23.8371 98.039 20.6842 97.1779C18.9187 96.6624 17.0918 96.3866 15.2527 96.3579C14.5142 96.3579 13.7676 96.3579 13.0292 96.3579C12.4918 96.3251 11.9563 96.4475 11.4867 96.7105Z" fill="#85B7FF"/>
<path fill-rule="evenodd" clip-rule="evenodd" d="M209.509 114.472C209.739 113.168 210.018 111.872 210.199 110.56C210.305 109.74 210.888 109.593 211.511 109.404C214.446 108.497 217.332 107.441 220.159 106.239C226.89 103.492 233.337 100.095 239.408 96.0954C241.784 94.4048 244.048 92.5614 246.185 90.5768C247.736 89.0419 248.908 87.1663 249.606 85.0993C250.517 82.8361 251.247 80.5073 252.24 78.2769C252.463 77.765 252.801 77.3115 253.228 76.9516C253.655 76.5918 254.159 76.3353 254.701 76.2023C256.022 75.7923 256.712 76.2023 256.654 77.5963C256.58 79.9381 255.886 82.2185 254.644 84.2055C254.225 84.6666 253.941 85.2339 253.823 85.8455C254.16 86.1817 254.472 85.8865 254.644 85.7061C255.571 84.6237 256.892 84.1481 258.074 83.4593C259.813 82.4417 261.485 81.3133 263.078 80.0809C263.616 79.6475 264.212 79.294 264.851 79.0313C267.558 77.9981 268.953 78.4409 270.963 80.4827C272.973 82.5245 273.334 85.2469 273.49 87.9447C273.53 89.1332 273.143 90.2967 272.399 91.2246C271.363 92.7716 269.933 94.0142 268.256 94.8244C266.403 94.8821 264.549 94.841 262.701 94.7014C261.246 94.517 259.774 94.517 258.32 94.7014C254.669 95.1442 251.428 96.6202 248.228 98.2766C246.488 99.1704 244.946 100.417 243.149 101.204C241.352 101.991 239.367 102.844 237.512 103.73C232.343 106.19 227.174 108.6 222.063 111.151C218.321 113.004 214.432 114.562 210.83 116.71C209.436 117.53 209.255 117.678 209.247 115.743C209.682 115.431 209.518 114.931 209.509 114.472Z" fill="#85B7FF"/>
<path fill-rule="evenodd" clip-rule="evenodd" d="M190.433 99.9084C190.753 97.443 190.86 94.9548 190.753 92.471C190.705 88.4603 190.089 84.4767 188.923 80.6385C187.551 75.6428 185.625 70.8159 183.18 66.2476C182.48 64.941 181.736 63.6618 180.948 62.41C180.267 61.3194 180.235 61.3522 179.078 61.8032C177.464 62.5275 175.692 62.8249 173.93 62.6669C172.169 62.509 170.477 61.9009 169.019 60.9012C168.703 60.6634 168.325 60.5215 167.931 60.4924C167.537 60.4634 167.142 60.5483 166.795 60.7372C163.28 62.3035 159.327 62.5936 155.62 61.5572C151.518 60.5322 148.589 57.9656 147.563 53.6606C147.434 52.8953 147.349 52.1232 147.309 51.3482C145.733 51.5614 144.191 51.7254 142.665 52.0042C142.05 52.1689 141.407 52.2052 140.778 52.1108C139.276 51.7418 137.726 51.9796 136.224 51.586C135.339 51.3739 134.407 51.4783 133.59 51.8812C130.448 53.4343 126.969 54.1837 123.466 54.0624C123.056 54.02 122.643 54.0882 122.27 54.2598C121.896 54.4315 121.575 54.7003 121.341 55.0382C118.76 58.1393 115.49 60.5937 111.79 62.205C108.779 63.4892 105.612 64.3741 102.371 64.8372C102.318 64.8531 102.261 64.8531 102.207 64.8372C100.156 64.3534 99.2533 65.6572 98.3016 67.1577C96.2111 70.3499 93.6904 73.2389 90.8106 75.7431C89.5928 76.8349 88.3135 77.8561 86.979 78.8017C86.3606 79.2161 85.8986 79.825 85.6662 80.5319C84.7729 83.2873 84.1115 86.1124 83.6888 88.9779C83.3801 92.07 83.2923 95.1802 83.4263 98.2848C83.4263 99.031 83.8529 99.7034 83.7545 100.466C83.0318 100.812 82.3675 101.269 81.7853 101.819C81.2722 100.262 80.9957 98.6366 80.9648 96.9974C80.4067 91.6481 81.1643 86.2435 83.1719 81.2535C83.4099 80.6713 83.7463 80.1219 83.9924 79.5397C84.7214 77.9032 85.8707 76.4887 87.3236 75.4397C90.9419 72.7255 93.51 69.0765 95.8894 65.2882C97.1283 63.312 98.2523 61.2702 99.3436 59.212C99.9097 59.3596 99.9179 59.8434 100.115 60.1796C100.476 60.8072 100.99 61.3329 101.61 61.7073C102.23 62.0816 102.935 62.2924 103.659 62.3198C105.463 62.4552 107.273 62.1746 108.951 61.4998C114.81 59.2858 119.486 55.4564 123.581 50.8398C123.984 50.2658 124.468 49.7522 125.016 49.3146C126.764 51.8238 129.299 51.5286 131.777 51.094C134.138 50.6946 136.398 49.8396 138.431 48.5766C138.672 48.3664 138.974 48.2398 139.293 48.2158C140.023 50.0854 141.122 50.7988 143.19 50.6758C144.674 50.5753 146.127 50.2087 147.481 49.5934C147.908 49.413 148.302 49.0686 148.786 49.0932C148.983 49.4212 148.786 49.7164 148.712 50.0116C148.475 51.3283 148.682 52.6863 149.299 53.8731C149.917 55.06 150.911 56.009 152.125 56.5716C153.31 57.1776 154.611 57.5268 155.94 57.5966C160.148 57.7518 164.324 56.8108 168.059 54.866C168.584 54.62 169.101 54.3576 169.634 54.1198C169.716 54.1198 169.839 54.1198 169.954 54.1198C170.2 54.7102 170.011 55.3662 170.258 55.973C171.078 57.982 172.719 58.6216 174.688 58.7938C177.086 58.9203 179.473 58.3871 181.588 57.2522C182.819 56.67 182.803 56.6782 183.664 57.818C189.161 65.0504 192.353 73.2831 194.232 82.0899C195.366 87.2202 195.788 92.4819 195.487 97.7272C195.389 99.3672 195.487 101.007 194.667 102.532C193.358 101.503 191.938 100.623 190.433 99.9084Z" fill="#4F88ED"/>
<path fill-rule="evenodd" clip-rule="evenodd" d="M170.775 191.477C172.389 191.752 173.924 192.373 175.274 193.299C176.624 194.225 177.757 195.433 178.594 196.84C179.808 198.898 179.275 200.94 177.363 202.474C175.961 203.541 174.292 204.202 172.539 204.384C168.945 204.86 165.458 204.655 162.422 202.252C161.605 201.567 161.039 200.629 160.814 199.587C160.046 196.886 159.498 194.127 159.173 191.338C158.229 183.769 157.532 176.168 157.015 168.567C156.835 166.033 156.843 163.483 156.728 160.941C156.728 160.219 157.031 160.055 157.663 159.981C160.51 159.721 163.333 159.241 166.106 158.546C166.836 158.35 167.05 158.612 167.082 159.293C167.173 161.195 167.337 163.097 167.394 165.032C167.558 170.699 167.69 176.365 167.845 182.031C167.927 185.262 168.02 188.493 168.124 191.723C168.096 192.36 168.217 192.995 168.477 193.577C168.566 193.773 168.713 193.937 168.897 194.047C169.082 194.158 169.296 194.21 169.511 194.195C169.726 194.181 169.932 194.102 170.1 193.968C170.269 193.834 170.392 193.651 170.455 193.445C170.775 192.871 170.561 192.265 170.775 191.477Z" fill="#85B7FF"/>
<path fill-rule="evenodd" clip-rule="evenodd" d="M105.448 191.478C105.817 192.076 105.62 192.568 105.686 193.027C105.776 193.61 106.006 194.085 106.613 194.167C106.909 194.204 107.207 194.124 107.444 193.943C107.68 193.762 107.836 193.495 107.877 193.2C107.958 192.839 108.002 192.471 108.008 192.101C108.221 189.944 108.213 187.771 108.262 185.598C108.385 179.932 108.492 174.274 108.681 168.608C108.771 165.648 109.017 162.687 109.165 159.727C109.165 159.03 109.321 158.637 110.182 158.817C112.886 159.345 115.632 159.619 118.387 159.637C119.207 159.637 119.462 159.94 119.47 160.752C119.511 164.254 119.224 167.739 119.01 171.224C118.814 174.504 118.502 177.784 118.19 181.023C117.55 186.968 117.115 192.929 115.729 198.776C115.477 200.021 114.873 201.168 113.989 202.081C113.105 202.993 111.977 203.633 110.74 203.925C107.733 204.857 104.507 204.814 101.526 203.802C100.462 203.469 99.482 202.909 98.6544 202.162C97.1037 200.719 96.6196 199.161 97.5468 197.291C99.1303 194.011 101.953 192.24 105.448 191.478Z" fill="#85B7FF"/>
<path fill-rule="evenodd" clip-rule="evenodd" d="M76.1568 77.5553C75.3774 80.0727 74.3436 82.4753 73.6954 85.0583C72.7859 88.364 72.0898 91.7247 71.6114 95.1196C71.0747 99.2567 70.9018 103.433 71.0945 107.6C71.2239 110.172 71.5171 112.733 71.9724 115.267C72.6124 119.113 73.5562 122.902 74.7948 126.599C76.935 132.972 80.1786 138.92 84.378 144.172C86.2382 146.342 88.3168 148.315 90.5808 150.059C90.8352 150.264 91.0895 150.437 91.1224 150.789C89.474 150.211 87.9428 149.341 86.6015 148.223C79.84 143.49 74.364 137.149 70.6678 129.773C69.3788 126.868 68.4396 123.821 67.87 120.695C66.9949 116.773 66.4461 112.785 66.229 108.773C65.587 98.9491 67.605 89.1342 72.0708 80.3597C72.9081 78.7462 74.0185 77.2897 75.3527 76.0547C75.7767 76.4543 76.059 76.9811 76.1568 77.5553Z" fill="#023AFF"/>
<path fill-rule="evenodd" clip-rule="evenodd" d="M172.21 53.0538C173.392 53.7754 174.713 53.4884 175.919 53.349C177.545 53.212 179.159 52.9655 180.752 52.611C182.524 52.1682 184.033 51.2088 185.765 50.6512C186.06 50.5528 186.339 50.3642 186.643 50.2904C187.463 50.1264 187.849 50.4954 187.873 51.3072C187.818 52.1011 187.533 52.8618 187.053 53.4966C186.931 53.6503 186.841 53.8269 186.788 54.0159C186.735 54.2048 186.72 54.4024 186.745 54.5971C186.769 54.7918 186.832 54.9797 186.93 55.1498C187.028 55.3198 187.159 55.4687 187.315 55.5876C188.389 56.6097 189.292 57.7974 189.99 59.1053C190.671 60.4583 191.918 61.3357 192.829 62.5083C194.218 64.4344 195.323 66.5496 196.111 68.7895C197.599 72.5739 198.648 76.5165 199.237 80.5401C199.795 83.8221 200.034 87.1504 199.951 90.4784C199.458 99.3262 196.964 107.518 191.574 114.644C188.193 119.121 184.132 122.844 178.914 125.213C177.273 125.951 175.591 125.591 173.909 125.566C173.638 125.566 173.564 125.205 173.531 124.935C175.993 123.606 178.569 122.475 180.916 120.974C185.322 118.178 189.432 115.029 192.452 110.683C195.185 106.825 196.787 102.281 197.079 97.5632C197.153 96.4644 197.325 95.3574 197.342 94.2832C197.394 85.6367 195.68 77.0705 192.304 69.1093C190.708 65.0641 188.463 61.3057 185.658 57.9819C185.101 57.3539 184.509 56.7571 183.886 56.1944C184.173 55.5138 184.969 55.3006 185.19 54.4806C184.088 54.7217 183.019 55.0962 182.007 55.5958C180.015 56.4628 177.9 57.016 175.738 57.2358C175.208 57.2582 174.678 57.1889 174.171 57.0308C171.907 56.465 171.316 55.2924 172.21 53.0538Z" fill="#023AFF"/>
<path fill-rule="evenodd" clip-rule="evenodd" d="M188.226 145.14C188.398 143.951 189.358 143.262 190.072 142.475C193.559 138.479 196.419 133.978 198.556 129.125C200.65 124.567 202.248 119.797 203.323 114.898C203.986 111.812 204.492 108.695 204.841 105.558C205.206 101.345 205.271 97.1117 205.038 92.8893C204.956 90.2055 204.681 87.5309 204.217 84.8862C203.733 82.0408 203.651 79.1462 203.118 76.2844C202.765 74.3984 203.118 72.4878 202.593 70.6264C202.415 69.8424 202.498 69.0216 202.831 68.2894C203.192 67.4694 203.471 67.2398 204.242 67.6662C205.013 68.0926 205.94 68.5928 205.94 69.6998L204.619 69.011C204.537 69.3822 204.533 69.7665 204.608 70.1393C204.683 70.5121 204.835 70.8651 205.054 71.1758C206.449 73.398 206.835 75.9236 207.253 78.4164C207.893 82.2212 208.344 86.0506 208.656 89.8963C208.932 93.7521 208.995 97.6202 208.845 101.483C208.763 104.017 208.385 106.526 208.024 109.043C207.572 112.183 206.889 115.286 205.981 118.326C203.978 125.147 200.732 131.541 196.406 137.186C194.815 139.309 192.698 140.966 190.794 142.811C190.015 143.647 189.35 144.656 188.226 145.14Z" fill="#023AFF"/>
<path fill-rule="evenodd" clip-rule="evenodd" d="M190.433 99.9085C191.93 100.63 193.342 101.515 194.642 102.549C193.116 107.305 190.271 111.53 186.437 114.734C184.352 116.611 182.072 118.261 179.636 119.654C179.451 119.275 179.167 118.952 178.815 118.719C177.104 117.144 175.968 115.044 175.586 112.751C175.204 110.457 175.598 108.102 176.707 106.059C177.245 105.024 177.874 104.039 178.585 103.115C179.403 102.032 180.457 101.148 181.667 100.532C182.876 99.9153 184.21 99.5816 185.568 99.5559C187.198 99.4048 188.842 99.5239 190.433 99.9085Z" fill="#023AFF"/>
<path fill-rule="evenodd" clip-rule="evenodd" d="M81.8181 101.835C82.4003 101.285 83.0646 100.829 83.7873 100.482C85.7007 99.8819 87.7116 99.6536 89.7111 99.81C91.653 99.9975 93.5007 100.736 95.0359 101.94C96.5712 103.143 97.7299 104.76 98.3754 106.6C99.3687 109.115 99.3943 111.91 98.4473 114.443C97.5003 116.976 95.6478 119.07 93.2474 120.318C92.1103 119.652 91.0766 118.823 90.1788 117.858C85.9696 113.914 83.1006 108.753 81.974 103.098C81.8973 102.681 81.8452 102.259 81.8181 101.835Z" fill="#023AFF"/>
<path fill-rule="evenodd" clip-rule="evenodd" d="M77.3547 75.735C80.3495 73.9884 83.5329 72.5862 86.2323 70.2902C90.5603 66.5478 94.0997 61.982 96.6442 56.8586C98.0636 54.1199 99.2779 51.2171 100.624 48.3799C100.938 47.6483 101.415 46.9978 102.018 46.4775C102.691 45.9281 103.241 46.0347 103.462 46.8219C103.824 47.8758 103.914 49.0039 103.725 50.1019C103.399 52.1295 102.944 54.1343 102.363 56.1043C102.043 57.0226 102.429 57.3999 103.43 57.1785C105.391 56.782 107.313 56.2112 109.173 55.4729C112.875 53.9924 116.184 51.6739 118.838 48.6997C120.376 46.755 122.019 44.8963 123.761 43.1319C124.155 42.699 124.632 42.3503 125.164 42.1069C125.377 41.9934 125.618 41.944 125.859 41.9649C126.099 41.9857 126.328 42.0758 126.519 42.2242C126.709 42.3726 126.852 42.573 126.93 42.8011C127.009 43.0292 127.019 43.2751 126.961 43.5091C126.813 43.9627 126.731 44.4347 126.715 44.9113C125.353 46.163 124.083 47.5113 122.916 48.9457C118.682 53.4967 114.047 57.5556 108.115 59.8598C106.856 60.4254 105.498 60.7401 104.119 60.7864C103.552 60.8127 102.987 60.6937 102.479 60.4406C101.971 60.1876 101.536 59.809 101.215 59.3408C100.895 58.8725 100.699 58.3301 100.647 57.7651C100.596 57.2001 100.689 56.6312 100.919 56.1125C101.556 54.6001 102.064 53.0365 102.437 51.4385C102.486 51.1925 102.584 50.9301 102.248 50.6185C101.668 51.1577 101.214 51.8185 100.919 52.5537C98.4575 57.121 95.996 61.6802 93.0915 66.0098C91.0542 69.1779 88.5096 71.9898 85.5595 74.3328C83.9331 75.708 82 76.6725 79.9228 77.1454C78.6019 77.3996 78.0029 77.0798 77.3547 75.735Z" fill="#023AFF"/>
<path fill-rule="evenodd" clip-rule="evenodd" d="M209.222 115.767C209.222 117.702 209.411 117.563 210.806 116.735C214.408 114.586 218.297 113.028 222.038 111.175C227.15 108.625 232.319 106.198 237.488 103.754C239.342 102.869 241.237 102.057 243.124 101.229C245.011 100.4 246.464 99.195 248.203 98.3012C251.403 96.6612 254.644 95.1688 258.295 94.726C259.75 94.5415 261.222 94.5415 262.676 94.726C264.524 94.8656 266.379 94.9067 268.231 94.849C266.59 96.1036 264.621 96.5464 262.668 97.022C260.79 97.3808 258.873 97.4911 256.966 97.35C254.995 97.3675 253.068 97.9355 251.403 98.99C246.48 101.827 241.803 105.025 236.864 107.813C231.69 110.727 226.386 113.389 220.955 115.8C217.131 117.497 213.324 119.236 209.386 120.662C208.799 120.935 208.169 121.104 207.524 121.163L209.222 115.767Z" fill="#023AFF"/>
<path fill-rule="evenodd" clip-rule="evenodd" d="M109.263 155.972C108.262 154.906 106.99 154.102 106.359 152.692C105.628 151.083 105.274 149.329 105.322 147.563C105.371 145.797 105.821 144.066 106.638 142.499C106.968 145.763 107.752 148.964 108.968 152.011C109.387 153.281 110.293 154.334 111.487 154.938C112.475 155.332 113.558 155.42 114.596 155.193C119.989 154.374 125.253 152.864 130.259 150.699C130.664 150.479 131.121 150.374 131.581 150.396C132.041 150.418 132.486 150.565 132.868 150.822C133.982 151.567 135.336 151.862 136.659 151.649C137.982 151.436 139.175 150.731 139.998 149.674C140.351 149.198 140.638 149.248 141.049 149.526C142.802 150.614 144.634 151.57 146.529 152.388C149.951 154.028 153.471 155.275 157.327 155.242C155.686 157.054 153.61 157.349 151.411 157.013C148.171 156.459 145.091 155.206 142.386 153.339C142.072 153.086 141.684 152.94 141.281 152.924C140.877 152.908 140.479 153.022 140.146 153.249C137.545 154.586 134.805 154.889 132.105 153.454C131.83 153.264 131.493 153.184 131.161 153.231C130.829 153.278 130.528 153.449 130.317 153.708C128.298 155.537 125.771 156.3 123.162 156.833C122.322 156.927 121.496 157.12 120.701 157.407C118.346 157.308 116.016 157.005 113.677 156.693C112.187 156.585 110.71 156.344 109.263 155.972Z" fill="#023AFF"/>
<path fill-rule="evenodd" clip-rule="evenodd" d="M75.0164 30.4712C73.2032 32.5786 70.914 34.1284 68.8136 35.9078C66.4675 37.8964 64.4442 40.2366 62.8159 42.8449L62.7421 42.9843C61.4211 45.5673 62.1103 46.7973 65.0312 47.0843C66.0371 47.1582 67.0172 47.4373 67.9111 47.9043C69.6013 48.8145 69.9213 50.3643 68.6413 51.8485C68.0923 52.4269 67.5116 52.9744 66.9019 53.4885L66.5573 53.7837C64.3636 54.2097 62.1205 54.3229 59.895 54.1199C57.0233 53.9477 55.727 52.2585 56.2192 49.4377C56.6961 46.9911 57.7416 44.6906 59.2714 42.7219C61.3828 39.935 63.8898 37.4709 66.7132 35.4076C68.9227 33.7709 71.248 32.2965 73.6708 30.996C74.0568 30.6905 74.5255 30.5077 75.0164 30.4712Z" fill="#ABCDFF"/>
<path fill-rule="evenodd" clip-rule="evenodd" d="M48.9826 84.5008C51.0909 84.5235 53.1888 84.2022 55.1936 83.5496C59.0411 82.5862 62.6881 80.9512 65.9665 78.7198C69.5362 76.2272 72.4909 72.9547 74.6061 69.1505C75.0721 68.4451 75.5875 67.7738 76.1486 67.1415C76.5671 66.6167 77.0266 66.6249 77.4532 67.1825C76.864 68.3033 76.3567 69.4652 75.9353 70.6593C75.6571 71.4024 75.5046 72.1867 75.4841 72.9798C75.5204 73.4266 75.444 73.8754 75.262 74.2851C75.0799 74.6948 74.798 75.0523 74.4421 75.325C70.5858 78.7936 66.7788 82.3278 62.2661 84.9682C59.1668 86.816 55.7499 88.0701 52.1907 88.6664C50.9308 88.8676 49.6483 88.8842 48.3836 88.7156C46.1519 88.4122 45.2084 87.215 45.2904 84.9108L46.6032 84.837C47.4103 85.0296 48.2605 84.9095 48.9826 84.5008Z" fill="#023AFF"/>
<path fill-rule="evenodd" clip-rule="evenodd" d="M159.714 15.3996C159.378 16.0064 159.772 16.5066 159.961 17.0396C160.223 17.8104 160.912 18.7697 160.084 19.3683C159.255 19.9669 158.574 19.1141 157.926 18.5483C154.66 15.626 151.233 12.8884 147.662 10.3484C143.246 7.4136 138.232 5.4977 132.983 4.7396H132.827C130.415 4.4526 129.677 5.0922 129.595 7.55219C129.518 8.4788 129.59 9.41167 129.808 10.3156C129.947 10.6825 129.966 11.0839 129.863 11.4623C129.759 11.8408 129.539 12.177 129.234 12.423C128.025 10.8661 127.375 8.94861 127.388 6.97819C127.401 5.80378 127.806 4.66729 128.536 3.74741C128.913 3.20341 129.419 2.76136 130.009 2.46084C130.599 2.16031 131.255 2.01071 131.917 2.02541C135.267 1.95657 138.602 2.49269 141.762 3.60801C148.408 6.068 154.028 10.168 159.263 14.8748C159.263 15.1618 159.263 15.498 159.731 15.3668L159.714 15.3996Z" fill="#ABCDFF"/>
<path fill-rule="evenodd" clip-rule="evenodd" d="M150.049 51.5041C154.972 51.7665 159.665 50.5857 164.326 49.2327C167.558 48.2588 170.675 46.9363 173.622 45.2885C174.075 45.0174 174.553 44.7896 175.049 44.6079C176.116 44.2635 176.69 44.6571 176.748 45.7477C176.837 46.3217 176.797 46.9086 176.629 47.465C176.462 48.0213 176.171 48.533 175.779 48.9621C174.766 49.0367 173.806 49.4431 173.047 50.1183C169.43 52.7138 165.311 54.5264 160.953 55.44C158.854 56.0242 156.645 56.0945 154.513 55.645C152.281 55.071 150.533 53.964 150.049 51.5041Z" fill="#023AFF"/>
<path fill-rule="evenodd" clip-rule="evenodd" d="M202.708 46.6907C202.229 46.692 201.761 46.5496 201.365 46.282C200.969 46.0145 200.662 45.634 200.484 45.1901C199.867 43.9017 199.486 42.513 199.36 41.0901C198.4 34.9155 197.03 28.8639 194.142 23.2552C190.86 16.8592 185.937 12.546 178.864 10.66C176.362 9.97941 173.802 9.68421 171.275 9.17581C173.367 7.42102 175.829 7.33902 178.331 7.74902C180.928 8.29819 183.369 9.41867 185.478 11.029C193.067 16.2278 197.604 23.5586 200.246 32.1931C201.688 36.8996 202.515 41.7724 202.708 46.6907Z" fill="#ABCDFF"/>
<path fill-rule="evenodd" clip-rule="evenodd" d="M129.234 12.4394C129.539 12.1934 129.759 11.8572 129.863 11.4787C129.966 11.1003 129.947 10.6989 129.808 10.332C129.604 9.42588 129.546 8.49303 129.636 7.5686C131.632 9.95921 133.755 12.242 135.994 14.4074C139.767 17.9594 143.997 20.9928 148.572 23.4273C150.599 24.4687 152.675 25.4527 154.685 26.4777C155.44 26.8631 156.457 27.2977 156.326 28.2079C156.129 29.2493 154.956 29.2329 154.086 29.2247C151.601 29.1615 149.147 28.6648 146.833 27.7569C143.889 26.5646 141.101 25.0199 138.53 23.1567C138.019 22.8714 137.611 22.4324 137.365 21.9021C139.129 22.4597 140.753 23.3699 142.558 23.8127C143.157 23.9603 143.74 24.3047 144.454 23.9767C144.24 23.2961 143.633 23.0337 143.116 22.7303C140.811 21.4265 138.497 20.1556 136.208 18.8272C133.685 17.4622 131.49 15.5651 129.775 13.2676C129.578 13.0029 129.397 12.7263 129.234 12.4394Z" fill="#023AFF"/>
<path fill-rule="evenodd" clip-rule="evenodd" d="M112.045 28.9704C115.171 28.6834 118.247 29.2492 121.603 29.2984C120.492 30.6316 119.001 31.5954 117.328 32.0618C113.685 32.9645 109.923 33.291 106.178 33.0294C103.08 32.7825 100.013 32.2332 97.0216 31.3894C93.3318 30.2741 89.724 28.9042 86.2241 27.2894C85.8612 27.1991 85.5486 26.9692 85.3544 26.6498C87.1655 26.0969 89.0411 25.7827 90.9336 25.715C91.5156 25.7085 92.0864 25.874 92.5746 26.1906C96.5847 28.2291 100.944 29.4922 105.423 29.9134C106.58 30.0528 107.721 30.2004 108.894 30.2332C110.466 30.2307 112.028 29.9789 113.521 29.487C113.013 29.1016 112.406 29.3558 112.045 28.9704Z" fill="#023AFF"/>
<path fill-rule="evenodd" clip-rule="evenodd" d="M123.269 15.5799C119.363 15.5799 115.466 15.0469 111.552 15.2929C109.14 15.4487 106.72 15.5963 104.307 15.8259C102.314 16.0145 100.328 16.2441 98.359 16.5721C97.6705 16.5979 97.0196 16.8922 96.5457 17.3921C95.233 19.0321 95.2412 19.7783 96.7344 21.3609C97.1151 21.7219 97.4216 22.1536 97.637 22.6319C97.759 22.8546 97.8204 23.1054 97.8152 23.3592C97.8099 23.6131 97.738 23.8611 97.6068 24.0786C97.4756 24.296 97.2897 24.4752 97.0675 24.5984C96.8453 24.7215 96.5946 24.7842 96.3406 24.7802C95.8155 24.8458 95.2822 24.8376 94.7571 24.8704C93.5454 24.4726 92.4458 23.7924 91.549 22.8861C91.1889 22.5703 90.8961 22.1853 90.688 21.754C90.4799 21.3227 90.3608 20.854 90.3378 20.3758C90.3149 19.8975 90.3885 19.4195 90.5543 18.9703C90.7201 18.5211 90.9747 18.1099 91.3029 17.7611C92.0526 16.8648 92.9911 16.1452 94.0515 15.6537C96.2177 14.5295 98.5743 13.8177 101.001 13.5545C108.226 12.785 115.53 13.3408 122.555 15.1945C122.831 15.234 123.084 15.3707 123.269 15.5799Z" fill="#ABCDFF"/>
<path fill-rule="evenodd" clip-rule="evenodd" d="M11.4867 96.7103C11.9533 96.4561 12.4825 96.3395 13.0128 96.3741C13.7512 96.3741 14.4979 96.3741 15.2363 96.3741C17.0754 96.4028 18.9023 96.6786 20.6679 97.1941C23.8207 98.0553 26.8528 99.3088 29.6931 100.925C31.9741 102.147 34.1319 103.59 36.3554 104.91C41.9851 108.274 47.8727 111.185 53.9629 113.619C57.6468 115.078 61.3472 116.415 65.0968 117.719C65.477 118.613 65.6238 119.589 65.5235 120.556C63.1472 119.754 60.8163 118.823 58.5412 117.768C52.7978 115.234 47.0545 112.635 41.4752 109.633C36.9544 107.173 32.5812 104.492 28.2163 101.778C26.6902 100.827 25.1723 99.8591 23.6052 98.9653C21.8848 97.8861 19.893 97.3173 17.8618 97.3253C15.9573 97.4763 14.0411 97.3632 12.1677 96.9891C11.9199 96.9584 11.6848 96.8622 11.4867 96.7103Z" fill="#023AFF"/>
<path fill-rule="evenodd" clip-rule="evenodd" d="M69.1254 53.3981C70.8647 52.835 72.6489 52.4208 74.4585 52.1599C75.7467 51.9303 77.0512 51.7663 78.3476 51.5777C78.5577 51.5571 78.7693 51.5571 78.9793 51.5777C79.5127 51.6351 80.0624 51.7253 80.2265 52.3403C80.2794 52.5765 80.2515 52.8235 80.1474 53.042C80.0433 53.2605 79.8689 53.4379 79.6521 53.5457C78.6663 54.2524 77.6297 54.8855 76.5507 55.4399C72.8419 57.0703 68.9137 58.1478 64.8917 58.6379C61.9216 59.0561 59.1484 58.4821 56.3177 57.9983L55.7926 57.8425C55.7926 57.7441 55.7926 57.6375 55.7926 57.5309C56.3473 57.0407 56.9999 56.6739 57.7071 56.4548C58.4144 56.2357 59.1601 56.1692 59.895 56.2599C63.3738 56.6699 66.3522 55.1037 69.3715 53.7507C69.4946 53.6933 69.5767 53.6359 69.4864 53.5293C69.3961 53.4227 69.2238 53.4391 69.1254 53.3981Z" fill="#023AFF"/>
<path fill-rule="evenodd" clip-rule="evenodd" d="M174.762 31.7339C176.403 32.8983 177.133 34.6285 177.962 36.5145C176.387 36.5117 174.855 36.006 173.589 35.0713C171.038 33.0951 168.75 30.8026 166.779 28.249C165.106 26.1964 163.771 23.8907 162.824 21.4184C162.287 20.1509 162.065 18.7724 162.176 17.4004C163.932 18.5812 165.368 20.1474 167.017 21.5004C167.509 21.894 167.566 22.509 167.772 23.042C168.757 25.7629 170.3 28.2484 172.301 30.3399C172.93 31.0816 173.802 31.5757 174.762 31.7339Z" fill="#023AFF"/>
<path fill-rule="evenodd" clip-rule="evenodd" d="M127.355 46.3873C129.504 46.2375 131.633 45.8805 133.713 45.3213C136.789 44.5911 139.765 43.4897 142.575 42.0413C143.19 41.7379 143.838 41.5083 144.478 41.2623C145.118 41.0163 145.758 40.8195 146.242 41.3771C146.726 41.9347 146.464 42.6645 146.168 43.3041C145.53 44.5285 144.593 45.572 143.444 46.3381C142.706 46.8793 142.033 47.6501 140.983 47.6747C141.098 46.6825 141.861 46.1413 142.443 45.4607C142.796 45.0425 143.387 44.8047 143.592 44.0995C142.682 44.1942 141.822 44.5663 141.131 45.1655C137.932 47.4551 134.233 48.9505 130.341 49.5279C129.557 49.6795 128.747 49.6458 127.978 49.4295C126.583 49.0195 126.288 48.5029 126.698 47.1007C126.733 46.8372 126.857 46.5938 127.051 46.4119C127.166 46.5841 127.281 46.7317 127.412 46.4119L127.355 46.3873Z" fill="#023AFF"/>
<path fill-rule="evenodd" clip-rule="evenodd" d="M55.7926 57.8425L56.3259 57.9573C56.4449 58.3692 56.4295 58.8082 56.2819 59.2107C56.1344 59.6132 55.8624 59.9583 55.5054 60.1959C54.5947 61.0159 53.7496 61.8851 52.9045 62.7625C51.9363 63.7711 52.0102 64.3123 53.2901 64.8945C54.3209 65.311 55.2706 65.9049 56.0961 66.6493C57.4746 68.0105 57.4253 68.6583 55.8254 69.7817C55.4398 70.0523 55.0787 70.3557 54.7095 70.6509C53.4454 70.7596 52.1722 70.6232 50.9599 70.2491C50.4954 70.1345 50.0599 69.924 49.6816 69.6311C49.3032 69.3383 48.9904 68.9696 48.7632 68.5486C48.536 68.1277 48.3995 67.664 48.3624 67.1872C48.3253 66.7103 48.3884 66.231 48.5477 65.7801C48.8779 64.5024 49.4702 63.3072 50.2872 62.2705C51.6197 60.434 53.3358 58.9091 55.3167 57.8015L55.7926 57.8425Z" fill="#ABCDFF"/>
<path fill-rule="evenodd" clip-rule="evenodd" d="M78.5854 93.4797C76.1978 88.3957 76.3866 83.6398 80.4233 79.343C79.7341 78.9494 78.9547 79.4578 78.3967 78.9248C79.0285 78.9248 79.6603 78.9248 80.292 78.8756C80.9238 78.8264 81.4243 78.728 82.2694 78.605C79.8802 83.2018 78.6176 88.2999 78.5854 93.4797Z" fill="#023AFF"/>
<path fill-rule="evenodd" clip-rule="evenodd" d="M142.009 48.9947C142.454 49.0693 142.912 49.0226 143.334 48.8596C143.755 48.6966 144.125 48.4232 144.404 48.0681C144.543 47.9095 144.717 47.7858 144.913 47.7073C147.374 46.4117 149.836 45.0997 152.347 43.8451C152.913 43.5663 153.61 42.9677 154.209 43.5991C154.808 44.2305 154.381 44.9849 154.053 45.6491C153.413 46.9693 152.248 47.8303 151.214 48.7979C151.082 48.886 150.933 48.946 150.776 48.9742C150.619 49.0024 150.459 48.9982 150.304 48.9619C150.107 48.0107 151.181 47.5843 151.313 46.4527C149.917 47.3609 148.389 48.0496 146.784 48.4945C145.821 48.779 144.843 49.0116 143.855 49.1915C143.552 49.2993 143.229 49.3375 142.909 49.3035C142.59 49.2694 142.282 49.1639 142.009 48.9947Z" fill="#023AFF"/>
<path fill-rule="evenodd" clip-rule="evenodd" d="M46.6032 84.837L45.2904 84.9108C45.2878 83.8779 45.5718 82.8646 46.1109 81.9834L46.2176 82.0736C46.0477 83.0122 46.1829 83.9806 46.6032 84.837Z" fill="#85B7FF"/>
<path fill-rule="evenodd" clip-rule="evenodd" d="M66.5573 53.7181L66.9019 53.4229H68.5428C67.9281 53.7261 67.2337 53.8293 66.5573 53.7181Z" fill="#023AFF"/>
<path fill-rule="evenodd" clip-rule="evenodd" d="M209.509 114.472C209.509 114.931 209.682 115.431 209.198 115.775C209.155 115.548 209.16 115.315 209.214 115.09C209.268 114.866 209.368 114.655 209.509 114.472Z" fill="#023AFF"/>
<path fill-rule="evenodd" clip-rule="evenodd" d="M47.3827 79.7366C47.4189 79.5858 47.4846 79.4436 47.5762 79.3183C47.6677 79.1931 47.7832 79.0872 47.916 79.0068L48.1621 79.2446L47.5386 79.8842L47.3827 79.7366Z" fill="#6B9FFC"/>
<path fill-rule="evenodd" clip-rule="evenodd" d="M159.698 15.3831C159.23 15.5143 159.263 15.1781 159.23 14.8911C159.351 14.9116 159.462 14.9706 159.546 15.0593C159.63 15.148 159.684 15.2616 159.698 15.3831Z" fill="#6B9FFC"/>
<path fill-rule="evenodd" clip-rule="evenodd" d="M137.283 21.8939C137.159 21.9221 137.029 21.9112 136.911 21.8628C136.794 21.8143 136.694 21.7307 136.626 21.6233C136.75 21.5761 136.886 21.5778 137.008 21.6281C137.13 21.6785 137.228 21.7736 137.283 21.8939Z" fill="#023AFF"/>
<path fill-rule="evenodd" clip-rule="evenodd" d="M46.1191 81.9996C46.137 81.7537 46.2451 81.523 46.4227 81.3518L46.5458 81.4502C46.539 81.5722 46.5079 81.6916 46.4544 81.8014C46.4009 81.9112 46.3259 82.0093 46.234 82.0898L46.1191 81.9996Z" fill="#85B7FF"/>
<path fill-rule="evenodd" clip-rule="evenodd" d="M46.4227 81.3356C46.455 81.0919 46.578 80.8693 46.7673 80.7124L46.8904 80.8108C46.8774 80.9324 46.8402 81.0501 46.781 81.1571C46.7218 81.2641 46.6419 81.3583 46.5458 81.434L46.4227 81.3356Z" fill="#85B7FF"/>
<path fill-rule="evenodd" clip-rule="evenodd" d="M46.7673 80.7124C46.7797 80.5922 46.8184 80.4762 46.8808 80.3727C46.9432 80.2692 47.0278 80.1808 47.1283 80.1138L47.2514 80.2204C47.1283 80.4172 47.0053 80.614 46.8904 80.8108L46.7673 80.7124Z" fill="#85B7FF"/>
<path fill-rule="evenodd" clip-rule="evenodd" d="M205.94 69.6997C206.268 69.6997 206.334 69.9703 206.359 70.2327C206.239 70.2047 206.132 70.1366 206.056 70.0397C205.98 69.9428 205.939 69.8229 205.94 69.6997Z" fill="#023AFF"/>
<path fill-rule="evenodd" clip-rule="evenodd" d="M186.643 146.419C186.692 146.091 186.922 146.001 187.209 145.984C187.166 146.103 187.09 146.208 186.99 146.285C186.889 146.362 186.769 146.409 186.643 146.419Z" fill="#023AFF"/>
<path fill-rule="evenodd" clip-rule="evenodd" d="M127.388 46.3871C127.256 46.6987 127.141 46.5511 127.027 46.3871C127.048 46.3598 127.076 46.3378 127.107 46.3226C127.138 46.3074 127.172 46.2996 127.207 46.2996C127.242 46.2996 127.276 46.3074 127.307 46.3226C127.339 46.3378 127.366 46.3598 127.388 46.3871Z" fill="#6B9FFC"/>
<path fill-rule="evenodd" clip-rule="evenodd" d="M67.8865 83.5823L68.2721 84.0005C68.2617 84.0341 68.2437 84.0649 68.2196 84.0905C68.1954 84.1161 68.1656 84.1358 68.1326 84.1481L67.6978 83.7873C67.7379 83.7011 67.8038 83.6294 67.8865 83.5823Z" fill="white"/>
<path fill-rule="evenodd" clip-rule="evenodd" d="M55.7925 57.8426L55.3577 57.8016L55.7597 57.531C55.7925 57.6376 55.7925 57.7442 55.7925 57.8426Z" fill="#6B9FFC"/>
<path fill-rule="evenodd" clip-rule="evenodd" d="M257.753 81.7045C257.622 81.7045 257.433 81.8357 257.392 81.7865C257.351 81.7373 257.31 81.4339 257.392 81.2617L257.753 81.7045Z" fill="white"/>
<path fill-rule="evenodd" clip-rule="evenodd" d="M47.1283 80.1138C47.2185 79.9908 47.3006 79.8596 47.3826 79.7366L47.5385 79.8842C47.4401 79.9908 47.3498 80.1056 47.2514 80.2204L47.1283 80.1138Z" fill="#85B7FF"/>
<path fill-rule="evenodd" clip-rule="evenodd" d="M128.618 15.4406C128.584 15.4829 128.546 15.5214 128.503 15.5554C128.462 15.4884 128.429 15.4168 128.405 15.3422C128.405 15.3422 128.471 15.2766 128.503 15.2438C128.536 15.211 128.585 15.375 128.618 15.4406Z" fill="white"/>
<path fill-rule="evenodd" clip-rule="evenodd" d="M206.4 70.2656L206.679 70.569C206.603 70.5611 206.533 70.5258 206.482 70.47C206.43 70.4141 206.401 70.3415 206.4 70.2656Z" fill="#023AFF"/>
<path fill-rule="evenodd" clip-rule="evenodd" d="M157.327 155.234C153.471 155.234 149.943 153.987 146.529 152.38C144.634 151.562 142.803 150.606 141.049 149.518C140.638 149.239 140.351 149.19 139.998 149.666C139.175 150.722 137.982 151.428 136.659 151.641C135.336 151.854 133.982 151.559 132.868 150.814C132.486 150.557 132.041 150.41 131.581 150.388C131.121 150.366 130.664 150.471 130.259 150.691C125.253 152.856 119.989 154.366 114.596 155.184C113.558 155.412 112.475 155.323 111.487 154.93C110.293 154.326 109.387 153.273 108.968 152.003C107.752 148.956 106.968 145.754 106.638 142.491C106.761 141.015 106.572 139.523 107.007 138.071C107.214 137.305 107.508 136.564 107.885 135.865C108.218 135.137 108.8 134.552 109.527 134.214C110.253 133.876 111.076 133.807 111.848 134.02C115.703 134.738 119.43 136.023 122.908 137.833C124.344 138.522 125.755 139.244 127.166 139.982C127.776 140.294 128.428 140.515 129.102 140.638C129.602 140.769 130.126 140.779 130.63 140.667C131.134 140.554 131.603 140.322 131.999 139.99C133.73 138.67 135.699 139.17 137.397 140.105C137.786 140.344 138.233 140.471 138.69 140.471C139.146 140.471 139.594 140.344 139.982 140.105C142.69 138.916 145.479 137.891 148.252 136.825C151.321 135.669 154.406 134.545 157.483 133.422C159.468 132.692 160.929 133.487 161.462 135.537C161.742 137.052 161.797 138.599 161.626 140.129C161.513 143.937 161.131 147.732 160.486 151.486C160.481 151.538 160.481 151.59 160.486 151.642C160.248 153.569 159.403 154.979 157.327 155.234ZM130.834 143.393C130.079 145.853 131.031 148.157 133.426 149.723C133.906 150.015 134.444 150.198 135.002 150.261C135.56 150.323 136.125 150.263 136.658 150.085C137.191 149.907 137.678 149.616 138.086 149.23C138.495 148.845 138.814 148.375 139.022 147.854C139.949 145.189 137.849 141.376 135.043 140.646C132.729 140.49 131.925 141.039 130.834 143.393ZM159.173 148.838C159.797 145.558 159.993 142.278 160.437 138.998C160.529 137.889 160.395 136.773 160.043 135.718C160.007 135.439 159.901 135.175 159.734 134.949C159.567 134.724 159.345 134.545 159.088 134.43C158.832 134.314 158.551 134.267 158.271 134.291C157.992 134.316 157.723 134.412 157.491 134.57C156.42 135.016 155.395 135.565 154.431 136.21L146.226 139.424C144.527 139.982 142.895 140.712 141.147 141.138C140.556 141.285 139.859 141.236 139.367 141.802C139.752 142.696 140.187 143.614 140.548 144.524C140.909 145.435 140.778 146.615 140.819 147.665C140.824 147.824 140.882 147.976 140.985 148.097C141.088 148.217 141.229 148.299 141.385 148.329C144.347 149.313 147.038 150.945 149.959 152.027C151.534 152.601 153.077 153.364 154.816 153.389C155.047 153.508 155.289 153.604 155.538 153.676C157.499 154.045 158.648 153.216 158.927 151.216C159.009 150.387 159.083 149.617 159.173 148.838ZM112.717 153.667C112.778 153.747 112.856 153.812 112.946 153.857C113.035 153.901 113.134 153.924 113.234 153.924C113.335 153.924 113.433 153.901 113.523 153.857C113.613 153.812 113.691 153.747 113.751 153.667L114.629 153.577C114.997 153.593 115.365 153.571 115.729 153.512C120.396 152.433 125.003 151.105 129.529 149.535C129.857 149.412 130.292 149.444 130.35 148.887C129.624 147.976 129.154 146.888 128.988 145.735C128.822 144.582 128.966 143.406 129.406 142.327C128.702 141.981 127.934 141.783 127.15 141.745C126.722 141.361 126.165 141.153 125.591 141.162C125.31 140.924 125.011 140.708 124.696 140.515C121.115 138.695 117.427 137.093 113.653 135.718C112.643 135.4 111.572 135.324 110.527 135.496C110.04 135.506 109.574 135.698 109.223 136.036C108.871 136.373 108.66 136.831 108.631 137.317C108.104 140.23 108.265 143.226 109.099 146.066C109.239 147.993 110.043 149.748 110.543 151.576C110.635 152.112 110.897 152.605 111.29 152.981C111.683 153.358 112.186 153.598 112.726 153.667H112.717Z" fill="#023AFF"/>
<path fill-rule="evenodd" clip-rule="evenodd" d="M131.096 23.7144C129.889 23.932 128.646 23.836 127.486 23.4356C124.108 22.0841 120.579 21.1452 116.976 20.6394C116.817 20.6355 116.66 20.6107 116.508 20.5656C116.081 20.3934 115.491 20.295 115.45 19.7456C115.409 19.1962 115.925 18.8846 116.459 18.7124C118.524 18.037 120.719 17.8572 122.867 18.1876C124.799 18.4928 126.671 19.1016 128.413 19.9916C129.132 20.3442 129.753 20.8682 130.221 21.5175C130.689 22.1668 130.989 22.9214 131.096 23.7144Z" fill="#ABCDFF"/>
<path fill-rule="evenodd" clip-rule="evenodd" d="M86.7902 31.3976C86.0423 32.1701 85.1065 32.7352 84.0745 33.0376C79.4507 34.7134 75.0262 36.8942 70.8812 39.5402C70.5037 39.7698 70.0607 40.3602 69.675 39.9256C69.2894 39.491 69.9048 39.1056 70.1509 38.7448C71.5703 36.8912 73.3371 35.3316 75.3528 34.1528C77.4752 32.8496 79.7942 31.8971 82.2202 31.332C83.7328 31.0508 85.2863 31.0731 86.7902 31.3976Z" fill="#ABCDFF"/>
<path fill-rule="evenodd" clip-rule="evenodd" d="M47.2514 80.2204C47.3499 80.1056 47.4401 79.9907 47.5386 79.8841L48.1622 79.2446C49.4257 78.6788 50.2134 77.4652 51.4441 76.8502C51.9015 76.5998 52.3727 76.3754 52.8553 76.1778C53.1549 76.0705 53.4808 76.0611 53.7861 76.151C54.0914 76.2409 54.3602 76.4255 54.5537 76.678C54.9803 77.1208 54.7178 77.6538 54.4963 78.1458C54.2686 78.5618 53.9686 78.9339 53.6101 79.2446C52.3466 80.5155 51.0831 81.7865 49.8031 83.0411C49.3497 83.4022 49.0553 83.9259 48.9826 84.5007C48.2606 84.9094 47.4104 85.0295 46.6032 84.8369C46.1857 83.9796 46.0534 83.0113 46.2258 82.0735C46.3203 81.9947 46.3975 81.8972 46.4526 81.7871C46.5077 81.6771 46.5394 81.5568 46.5458 81.4339C46.6419 81.3582 46.7218 81.2641 46.781 81.1571C46.8402 81.0501 46.8774 80.9323 46.8904 80.8108C47.0053 80.614 47.1283 80.4172 47.2514 80.2204Z" fill="#ABCDFF"/>
<path fill-rule="evenodd" clip-rule="evenodd" d="M113.037 90.3802C109.844 90.3326 106.786 89.0787 104.48 86.8706C102.567 85.1421 101.346 82.7796 101.042 80.2204C100.689 77.8401 101.012 75.4085 101.975 73.2032C102.939 70.9978 104.503 69.1076 106.49 67.7483C112.824 63.1645 121.3 65.8705 124.393 73.2258C125.202 74.9478 125.646 76.8182 125.697 78.7198C125.685 81.0647 124.964 83.3511 123.63 85.2798C121.234 88.732 117.952 90.4458 113.037 90.3802ZM111.954 75.6202C111.684 73.644 112.529 72.3402 114.506 71.6351C113.157 71.2387 111.712 71.3257 110.421 71.8812C109.129 72.4367 108.073 73.4257 107.433 74.6772C106.724 76.005 106.516 77.5434 106.848 79.0117C107.179 80.4799 108.028 81.7802 109.238 82.6751C110.449 83.5701 111.942 84.0001 113.444 83.8866C114.945 83.7732 116.356 83.1239 117.419 82.0572C118.44 81.0875 119.083 79.7865 119.233 78.3866C119.384 76.9868 119.031 75.5791 118.239 74.4148C117.78 76.9322 117.148 77.6128 114.957 77.9736C114.302 77.8666 113.684 77.5975 113.16 77.1907C112.635 76.784 112.221 76.2525 111.954 75.6448V75.6202Z" fill="#FEFDFC"/>
<path fill-rule="evenodd" clip-rule="evenodd" d="M158.287 89.3797C155.96 89.3458 153.696 88.6256 151.778 87.3097C149.859 85.9937 148.373 84.1407 147.505 81.9832C146.637 79.8257 146.426 77.4601 146.899 75.1832C147.372 72.9064 148.507 70.82 150.163 69.186C151.818 67.5519 153.919 66.4432 156.203 65.9989C158.487 65.5546 160.851 65.7946 162.999 66.6888C165.147 67.583 166.983 69.0914 168.275 71.0247C169.568 72.9581 170.261 75.2301 170.266 77.5554C170.284 79.1257 169.985 80.6836 169.388 82.136C168.79 83.5885 167.906 84.9058 166.788 86.0094C165.67 87.1129 164.341 87.9801 162.881 88.5592C161.42 89.1382 159.858 89.4173 158.287 89.3797ZM160.453 77.3176C159.826 77.1587 159.255 76.8306 158.802 76.3693C158.349 75.908 158.032 75.3312 157.885 74.7018C157.799 74.0413 157.909 73.3702 158.201 72.7713C158.492 72.1724 158.953 71.6719 159.526 71.3316C158.18 71.013 156.765 71.1646 155.517 71.7614C154.269 72.3581 153.263 73.364 152.667 74.6116C152.022 75.9009 151.834 77.3703 152.132 78.7804C152.43 80.1904 153.197 81.4581 154.308 82.377C155.414 83.3042 156.806 83.8239 158.25 83.8493C159.694 83.8746 161.103 83.4041 162.242 82.5164C163.374 81.6349 164.166 80.3881 164.482 78.9884C164.797 77.5888 164.617 76.1231 163.973 74.8412C163.768 75.5994 163.304 76.2617 162.66 76.7127C162.017 77.1638 161.236 77.3749 160.453 77.3094V77.3176Z" fill="#FEFDFC"/>
<path fill-rule="evenodd" clip-rule="evenodd" d="M137.332 124.861C134.788 124.861 132.245 124.861 129.71 124.861C122.719 124.746 115.162 121.392 112.11 112.422C111.388 110.373 110.898 108.249 110.65 106.091C110.434 104.4 110.602 102.682 111.142 101.065C111.593 99.7527 112.012 99.5641 113.407 99.7609C113.826 99.8141 114.248 99.8306 114.67 99.8101C129.833 99.1377 145.028 98.4489 160.166 98.3259C162.84 98.3259 162.84 98.3259 163.029 100.991C163.307 104.213 163.219 107.456 162.767 110.659C161.766 116.981 158.147 120.941 152.1 122.778C147.314 124.229 142.333 124.931 137.332 124.861ZM152.33 120.974C152.542 120.955 152.751 120.913 152.954 120.851C158.845 118.317 160.863 113.11 161.158 107.288C161.158 106.616 160.83 106.468 160.24 106.649C157.878 107.222 155.483 107.649 153.069 107.928C150.451 108.322 147.818 108.51 145.192 108.748C142.074 108.986 138.948 108.838 135.822 109.027C131.441 109.297 127.035 109.092 122.645 109.371C119.59 109.564 116.525 109.548 113.472 109.322C113.869 111.619 114.729 113.812 115.999 115.767C118.641 119.588 122.366 121.704 126.813 122.704C127.349 122.934 127.916 123.083 128.495 123.147C130.136 123.221 131.859 123.385 133.549 123.377C138.505 123.391 143.456 123.067 148.367 122.409C149.77 122.18 151.222 122.024 152.33 120.974ZM161.684 99.2935C159.993 99.4821 158.402 99.7773 156.761 99.8429C148.293 100.196 139.818 100.548 131.326 100.802C125.449 101.113 119.558 101.017 113.694 100.515C112.307 100.36 112.274 100.466 112.127 101.811C112.018 103.448 112.17 105.092 112.578 106.682C112.583 106.838 112.623 106.991 112.693 107.131C112.763 107.271 112.863 107.393 112.986 107.491C113.108 107.588 113.25 107.658 113.402 107.695C113.554 107.732 113.712 107.736 113.866 107.707C118.953 107.51 124.037 107.354 129.119 107.239C136.06 107.092 143.01 107.042 149.934 106.567C153.478 106.316 156.996 105.778 160.453 104.96C160.921 104.845 161.462 104.837 161.487 104.189C161.528 102.59 161.905 100.966 161.684 99.2935Z" fill="#023AFF"/>
<path fill-rule="evenodd" clip-rule="evenodd" d="M114.637 153.618L113.759 153.708H112.726C112.198 153.633 111.707 153.394 111.323 153.024C110.939 152.655 110.68 152.174 110.584 151.65C110.084 149.822 109.28 148.067 109.148 146.14C109.55 145.89 109.887 145.549 110.13 145.144C110.374 144.739 110.519 144.283 110.551 143.811C110.668 142.345 110.879 140.888 111.183 139.449C111.511 138.342 111.798 138.104 112.98 138.104C113.821 138.08 114.663 138.146 115.491 138.301C117.593 138.819 119.589 139.698 121.39 140.9C122.793 141.761 124.122 142.245 125.632 141.236C126.206 141.226 126.763 141.434 127.191 141.818C125.714 143.959 125.911 146.181 126.961 148.501C126.14 148.87 125.484 149.256 124.754 149.526C121.734 150.658 118.707 151.749 115.729 152.872C115.286 152.979 114.695 152.962 114.637 153.618Z" fill="#6B9FFC"/>
<path fill-rule="evenodd" clip-rule="evenodd" d="M146.193 139.399L154.398 136.185C155.089 136.145 155.773 136.35 156.328 136.764C156.883 137.178 157.275 137.774 157.434 138.448C157.759 139.282 157.923 140.169 157.918 141.064C157.778 142.753 158.229 144.401 158.311 146.082C158.361 146.993 158.311 148.108 159.132 148.879C159.033 149.699 158.96 150.428 158.845 151.199C158.566 153.192 157.417 154.02 155.456 153.659C155.207 153.588 154.965 153.492 154.734 153.372C154.734 152.232 153.914 151.732 153.142 151.175C150.688 149.616 148.054 148.357 145.299 147.427C143.822 146.894 142.665 146.296 142.591 144.533C142.556 144.271 142.454 144.022 142.296 143.811C141.894 143.229 142.14 142.819 142.591 142.442C142.853 142.264 143.105 142.073 143.346 141.868C144.281 140.949 145.594 140.564 146.193 139.399Z" fill="#6B9FFC"/>
<path fill-rule="evenodd" clip-rule="evenodd" d="M125.632 141.195C124.122 142.204 122.793 141.72 121.39 140.859C119.589 139.657 117.593 138.778 115.491 138.26C114.663 138.105 113.821 138.039 112.98 138.063C111.798 138.063 111.511 138.301 111.183 139.408C110.879 140.847 110.667 142.304 110.551 143.77C110.519 144.242 110.374 144.698 110.13 145.103C109.887 145.508 109.55 145.849 109.148 146.099C108.307 143.26 108.144 140.263 108.672 137.35C108.701 136.863 108.912 136.406 109.264 136.069C109.615 135.731 110.081 135.539 110.568 135.529C111.613 135.357 112.684 135.432 113.694 135.751C117.46 137.127 121.14 138.729 124.713 140.547C125.035 140.739 125.343 140.956 125.632 141.195Z" fill="#ABCDFF"/>
<path fill-rule="evenodd" clip-rule="evenodd" d="M146.193 139.399C145.594 140.605 144.281 140.99 143.395 141.859C143.154 142.064 142.902 142.256 142.64 142.433C142.189 142.811 141.943 143.253 142.345 143.803C142.504 144.014 142.605 144.263 142.64 144.524C142.714 146.287 143.871 146.886 145.348 147.419C148.103 148.349 150.737 149.607 153.192 151.166C154.012 151.683 154.833 152.224 154.783 153.364C153.044 153.364 151.501 152.544 149.926 152.003C147.005 150.92 144.314 149.289 141.352 148.305C141.196 148.275 141.055 148.193 140.952 148.072C140.849 147.951 140.791 147.799 140.786 147.64C140.745 146.591 140.95 145.517 140.515 144.5C140.08 143.483 139.695 142.671 139.334 141.777C139.826 141.212 140.523 141.261 141.114 141.113C142.862 140.646 144.495 139.916 146.193 139.399Z" fill="#023AFF"/>
<path fill-rule="evenodd" clip-rule="evenodd" d="M135.043 140.646C137.849 141.376 139.966 145.189 139.022 147.854C138.814 148.375 138.495 148.845 138.086 149.23C137.678 149.616 137.191 149.907 136.658 150.085C136.125 150.263 135.56 150.323 135.002 150.261C134.444 150.198 133.906 150.015 133.426 149.723C131.031 148.157 130.079 145.828 130.834 143.393C130.827 143.919 130.857 144.445 130.924 144.967C130.994 145.654 131.247 146.309 131.657 146.864C132.067 147.42 132.618 147.855 133.254 148.124C133.442 148.224 133.657 148.262 133.867 148.233C134.078 148.203 134.274 148.108 134.427 147.96C134.562 147.829 134.648 147.656 134.671 147.47C134.693 147.283 134.651 147.094 134.55 146.935C134.411 146.599 134.304 146.247 134.165 145.902C133.5 144.262 133.426 142.729 134.739 141.359C134.919 141.163 135.026 140.911 135.043 140.646Z" fill="#6B9FFC"/>
<path fill-rule="evenodd" clip-rule="evenodd" d="M114.637 153.618C114.695 152.962 115.286 152.979 115.696 152.798C118.707 151.675 121.734 150.584 124.721 149.453C125.451 149.182 126.14 148.797 126.928 148.428C125.878 146.107 125.681 143.885 127.158 141.745C127.942 141.783 128.71 141.981 129.414 142.327C128.975 143.406 128.83 144.582 128.996 145.735C129.162 146.888 129.632 147.976 130.358 148.887C130.267 149.444 129.833 149.412 129.537 149.535C125.011 151.105 120.405 152.433 115.737 153.512C115.375 153.584 115.006 153.62 114.637 153.618Z" fill="#023AFF"/>
<path fill-rule="evenodd" clip-rule="evenodd" d="M159.173 148.838C158.352 148.067 158.393 146.952 158.352 146.041C158.27 144.401 157.819 142.712 157.959 141.023C157.964 140.128 157.8 139.241 157.474 138.407C157.315 137.734 156.924 137.137 156.369 136.723C155.814 136.31 155.13 136.104 154.439 136.144C155.403 135.499 156.428 134.95 157.499 134.504C157.731 134.346 158 134.25 158.28 134.226C158.559 134.201 158.841 134.249 159.097 134.364C159.353 134.479 159.575 134.658 159.742 134.884C159.909 135.109 160.015 135.374 160.051 135.652C160.403 136.707 160.537 137.823 160.445 138.932C159.993 142.253 159.805 145.574 159.173 148.838Z" fill="#ABCDFF"/>
<path fill-rule="evenodd" clip-rule="evenodd" d="M135.043 140.646C135.026 140.911 134.919 141.163 134.739 141.359C133.426 142.729 133.5 144.278 134.165 145.902C134.304 146.246 134.411 146.599 134.55 146.935C134.65 147.094 134.693 147.283 134.67 147.469C134.648 147.656 134.562 147.829 134.427 147.96C134.274 148.108 134.078 148.203 133.867 148.232C133.656 148.262 133.442 148.224 133.254 148.124C132.618 147.855 132.067 147.42 131.657 146.864C131.247 146.309 130.994 145.654 130.924 144.967C130.857 144.445 130.827 143.919 130.834 143.393C131.925 141.039 132.729 140.49 135.043 140.646Z" fill="#ABCDFF"/>
<path fill-rule="evenodd" clip-rule="evenodd" d="M112.726 153.667H113.759C113.699 153.747 113.621 153.812 113.531 153.857C113.441 153.901 113.343 153.924 113.242 153.924C113.142 153.924 113.044 153.901 112.954 153.857C112.864 153.812 112.786 153.747 112.726 153.667Z" fill="#023AFF"/>
<path fill-rule="evenodd" clip-rule="evenodd" d="M114.957 77.9818C117.181 77.621 117.813 76.9404 118.239 74.423C119.031 75.5872 119.384 76.9949 119.233 78.3948C119.083 79.7947 118.44 81.0956 117.419 82.0654C116.356 83.1321 114.945 83.7814 113.444 83.8948C111.942 84.0083 110.449 83.5783 109.238 82.6833C108.028 81.7884 107.179 80.4881 106.848 79.0199C106.516 77.5516 106.724 76.0132 107.434 74.6854C108.073 73.4339 109.129 72.4449 110.421 71.8894C111.712 71.3339 113.157 71.2468 114.506 71.6432C112.529 72.332 111.684 73.6522 111.954 75.6284C111.555 75.8102 111.222 76.1115 111.002 76.4907C110.781 76.8698 110.684 77.3081 110.724 77.7449C110.763 78.1816 110.938 78.5953 111.223 78.9286C111.508 79.2619 111.89 79.4984 112.315 79.6054C113.423 79.9416 114.243 79.425 114.957 77.9818Z" fill="#023AFF"/>
<path fill-rule="evenodd" clip-rule="evenodd" d="M114.957 77.9818C114.243 79.425 113.423 79.9416 112.315 79.6218C111.89 79.5148 111.508 79.2783 111.223 78.945C110.938 78.6116 110.763 78.198 110.724 77.7612C110.684 77.3245 110.781 76.8862 111.001 76.507C111.222 76.1279 111.555 75.8265 111.954 75.6448C112.22 76.254 112.634 76.7871 113.158 77.1953C113.683 77.6036 114.301 77.874 114.957 77.9818Z" fill="#82A2FC"/>
<path fill-rule="evenodd" clip-rule="evenodd" d="M160.453 77.3093C161.24 77.3833 162.028 77.177 162.678 76.727C163.328 76.2769 163.798 75.6119 164.005 74.8493C164.65 76.1312 164.83 77.5969 164.514 78.9965C164.199 80.3961 163.407 81.643 162.274 82.5244C161.136 83.4122 159.727 83.8827 158.283 83.8573C156.839 83.8319 155.447 83.3123 154.34 82.385C153.229 81.4662 152.462 80.1985 152.164 78.7884C151.866 77.3783 152.055 75.909 152.699 74.6197C153.296 73.3721 154.302 72.3662 155.549 71.7694C156.797 71.1727 158.212 71.021 159.558 71.3397C158.986 71.68 158.525 72.1805 158.233 72.7794C157.942 73.3782 157.832 74.0493 157.918 74.7099C157.402 74.8227 156.931 75.0852 156.564 75.4643C156.188 75.8373 155.961 76.3342 155.925 76.8622C155.889 77.3902 156.046 77.9134 156.367 78.3343C156.682 78.7596 157.136 79.0608 157.65 79.1852C158.165 79.3096 158.707 79.2493 159.181 79.0149C159.498 78.8319 159.774 78.5863 159.993 78.293C160.211 77.9998 160.368 77.665 160.453 77.3093Z" fill="#023AFF"/>
<path fill-rule="evenodd" clip-rule="evenodd" d="M160.453 77.3094C160.365 77.6629 160.206 77.9949 159.986 78.2853C159.766 78.5756 159.49 78.8183 159.173 78.9986C158.698 79.2331 158.157 79.2934 157.642 79.1689C157.128 79.0445 156.673 78.7433 156.359 78.318C156.038 77.8972 155.88 77.374 155.917 76.846C155.953 76.3179 156.18 75.8211 156.556 75.448C156.923 75.0689 157.394 74.8065 157.909 74.6936C158.054 75.3199 158.368 75.8947 158.816 76.3557C159.265 76.8168 159.831 77.1465 160.453 77.3094Z" fill="#82A2FC"/>
<path fill-rule="evenodd" clip-rule="evenodd" d="M126.821 122.672C122.374 121.671 118.617 119.556 116.008 115.734C114.737 113.779 113.878 111.586 113.48 109.289C116.533 109.515 119.598 109.531 122.653 109.338C127.043 109.06 131.449 109.265 135.83 108.994C138.956 108.805 142.082 108.994 145.2 108.715C147.826 108.51 150.459 108.322 153.077 107.895C155.491 107.617 157.886 107.189 160.248 106.616C160.839 106.452 161.2 106.616 161.167 107.256C160.863 113.078 158.845 118.285 152.962 120.818C152.759 120.881 152.55 120.922 152.338 120.941C152.286 120.012 151.96 119.119 151.4 118.375C150.841 117.631 150.074 117.069 149.196 116.759C146.423 115.57 143.805 116.054 141.303 117.448C141.059 117.607 140.774 117.692 140.482 117.692C140.191 117.692 139.906 117.607 139.662 117.448C136.38 115.874 133.008 115.693 129.816 117.612C127.995 118.752 126.485 120.228 126.821 122.672Z" fill="#023AFF"/>
<path fill-rule="evenodd" clip-rule="evenodd" d="M161.684 99.2935C161.905 100.933 161.528 102.573 161.487 104.213C161.487 104.861 160.921 104.869 160.453 104.984C156.999 105.805 153.484 106.345 149.943 106.6C143.018 107.075 136.068 107.124 129.127 107.272C124.04 107.376 118.956 107.532 113.874 107.739C113.721 107.769 113.562 107.765 113.41 107.728C113.258 107.691 113.116 107.621 112.994 107.524C112.872 107.426 112.772 107.303 112.701 107.164C112.631 107.024 112.592 106.871 112.586 106.714C112.178 105.125 112.026 103.481 112.135 101.844C112.283 100.499 112.315 100.392 113.702 100.548C119.566 101.05 125.457 101.145 131.334 100.835C139.81 100.581 148.285 100.228 156.769 99.8757C158.352 99.7773 159.993 99.4821 161.684 99.2935Z" fill="#FEFDFC"/>
<path fill-rule="evenodd" clip-rule="evenodd" d="M126.821 122.672C126.485 120.212 127.962 118.752 129.767 117.67C132.967 115.751 136.331 115.931 139.613 117.506C139.857 117.665 140.142 117.75 140.433 117.75C140.725 117.75 141.01 117.665 141.254 117.506C143.715 116.112 146.373 115.628 149.147 116.817C150.025 117.126 150.792 117.688 151.351 118.432C151.91 119.177 152.237 120.07 152.289 120.999C151.181 122.048 149.729 122.212 148.334 122.401C143.423 123.059 138.472 123.383 133.516 123.369C131.826 123.369 130.144 123.213 128.462 123.139C127.896 123.063 127.343 122.906 126.821 122.672Z" fill="#6B9FFC"/>
</g>
<defs>
<clipPath id="clip0_4120_63717">
<rect width="275" height="207" fill="white"/>
</clipPath>
</defs>
</svg>
