<svg width="164" height="119" viewBox="0 0 164 119" fill="none" xmlns="http://www.w3.org/2000/svg">
<path d="M75 75C75.3333 74 77 72.5 81.5 72.5C85.283 72.4998 87 74.3335 87 75.0002" stroke="#3C66FB" stroke-width="3" stroke-linecap="round"/>
<path d="M76.5 8C76.5 12.4183 80.0817 16 84.5 16C88.9183 16 92.5 12.4183 92.5 8C92.5 3.58172 88.9183 0 84.5 0C80.0817 0 76.5 3.58172 76.5 8ZM80.0016 72.3001C79.9631 73.1277 80.6026 73.8298 81.4302 73.8683C82.2577 73.9069 82.9598 73.2673 82.9984 72.4398L80.0016 72.3001ZM83.0016 7.93017L80.0016 72.3001L82.9984 72.4398L85.9984 8.06983L83.0016 7.93017Z" fill="#3C66FB"/>
<path d="M33.5 103.5C34.5776 102.497 36.1738 101.255 38.2521 99.9173M76 88.5C74.4662 88.5822 72.9658 88.7023 71.5 88.8563" stroke="#3C66FB" stroke-width="3" stroke-linecap="round"/>
<path d="M106 100.691C107.492 100.733 109.536 100.973 112 101.492" stroke="#3C66FB" stroke-width="3" stroke-linecap="round"/>
<path d="M1.5 114C2.97599 108.26 8.51858 94.4514 18.9853 84.4834C19.2915 84.1917 19.3887 83.7404 19.2221 83.3516L18.3047 81.2111C18.1253 80.7924 18.2482 80.3076 18.6093 80.03C24.0214 75.8701 36.0174 67.0087 45.9233 60.8565C46.2722 60.6399 46.7159 60.6619 47.0445 60.9084L50.0416 63.1562C50.3256 63.3692 50.6999 63.4152 51.0293 63.2829C56.4979 61.0874 68.8434 57.5 82 57.5C95.0813 57.5 104.585 60.8923 108.109 62.7825C108.362 62.918 108.656 62.9481 108.927 62.8575L112.551 61.6497C112.835 61.5549 113.147 61.5927 113.4 61.7525L135.6 75.7476C135.853 75.9074 136.022 76.1723 136.059 76.4695L136.445 79.5605C136.48 79.8404 136.626 80.0875 136.855 80.2526C143.178 84.8169 156.505 97.5148 162 114" stroke="#3C66FB" stroke-width="3" stroke-linecap="round"/>
<ellipse cx="54.4765" cy="93.8641" rx="17.6421" ry="5.5" transform="rotate(-16.277 54.4765 93.8641)" stroke="#3C66FB" stroke-width="3"/>
<path d="M140.015 110.5C137.679 108.254 134.297 105.834 130.314 103.693C121.732 99.079 113.609 97.5077 112.171 100.183C111.054 102.261 114.299 106.291 119.826 110.149" stroke="#3C66FB" stroke-width="3" stroke-linecap="round"/>
<path d="M84.4999 18.1111C84.4999 18.1111 95.4999 15.6111 103.5 18.1111C109.833 20.0903 118.047 18.9358 121.194 18.3688C121.851 18.2505 122.458 18.7785 122.417 19.4448L120.552 49.284C120.522 49.7638 120.155 50.1525 119.677 50.1955C116.868 50.4474 107.555 50.9813 102.5 47.6113C96.5 43.6111 83 50.1111 83 50.1111L84.4999 18.1111Z" fill="#3C66FB"/>
<path d="M101.751 25.6283C98.1971 25.2855 94.9723 27.8519 94.6206 31.3947C94.4388 33.1756 95.0058 34.8588 96.0622 36.1297C97.1086 37.3995 98.6425 38.2768 100.414 38.4478C102.186 38.6187 103.86 38.0507 105.129 37.0042C106.399 35.9578 107.277 34.4238 107.448 32.6519L107.925 27.7025C108.012 26.9016 107.413 26.1744 106.601 26.0961L101.751 25.6283ZM105.47 32.4412C105.352 33.6587 104.75 34.7197 103.872 35.4343C102.993 36.1587 101.847 36.5477 100.629 36.4303C99.4114 36.3128 98.3505 35.711 97.6359 34.8328C96.9204 33.9645 96.5305 32.8278 96.6371 31.6192C96.8531 29.1723 99.1148 27.3722 101.56 27.608L104.51 27.8926L102.675 29.4041L101.379 29.2791C99.8741 29.1339 98.4925 30.1996 98.3186 31.6915C98.2234 32.4716 98.4723 33.205 98.9275 33.7684C99.3747 34.3111 100.028 34.6838 100.79 34.7574C101.424 34.8185 102.039 34.658 102.539 34.3366C103.04 34.0152 103.436 33.5339 103.641 32.9641L101.344 32.7426L102.81 31.5352L105.532 31.7977L105.47 32.4412Z" fill="white"/>
</svg>
